<?xml version="1.0" encoding="utf-8"?>
<!-- Generator: Adobe Illustrator 27.3.1, SVG Export Plug-In . SVG Version: 6.00 Build 0)  -->
<svg version="1.1" id="Layer_1" xmlns="http://www.w3.org/2000/svg" xmlns:xlink="http://www.w3.org/1999/xlink" x="0px" y="0px"
	 viewBox="0 0 100 600" style="enable-background:new 0 0 100 600;" xml:space="preserve">
<style type="text/css">
	.st0{fill:#111111;}
	.st1{fill:#111111;stroke:#000000;stroke-miterlimit:10;}
</style>
<path class="st0" d="M86.96,551.56v2.81l0.01,1.77v2.76l0.01,2.34v1.69l-6.05,0.01h-2.78l-2.39,0.01c-0.29,0-0.59,0-0.88,0
	l-6.05,0.02l-6.06,0.01c-0.11,0-0.22,0-0.32,0c2.13-1.03,4.25-2.06,6.38-3.09l0.12-0.05l5.92-2.72l1.55-0.71l0.53-0.24l3.96-1.82
	l2.99-1.38h0.01L86.96,551.56z"/>
<path class="st0" d="M91.99,535.06l-1.46,0.67l-0.14,0.06l-4.45,2.04l-3.03,1.39H82.9l-3.01,1.38l-4.24,1.95h-0.01l-0.23,0.1
	l-1.57,0.72l-5.91,2.72l-0.13,0.06l-6.06,2.78c-0.33,0.15-0.66,0.3-0.99,0.45l-0.31,0.14h-0.01l-4.75,2.18l-2.73,1.26l-3.31,1.52
	l-3.77,1.73l-0.41,0.19l-1.87,0.85l-5.62,2.58l-0.43,0.19l-6.06,2.78c-0.34,0.15-0.67,0.31-1.01,0.46l-5.04,2.3l-2.45,1.12
	l-3.61,1.65l-3.28,1.5l-0.6,0.28l-2.17,1l-5.32,2.44l-0.73,0.33l-6.05,2.78v0.01l6.05-0.02l6.06-0.01l1.41-0.01h1.52l3.13-0.01
	l6.05-0.01l4.22-0.01l1.63-0.01c0.07,0,0.13,0,0.2,0l6.06-0.01l6.05-0.01c0.32,0,0.65,0,0.97,0l2.79-0.01h2.29l6.05-0.02h3.79
	l2.27-0.01h1.69l4.37-0.01l6.05-0.01c0.18,0,0.36,0,0.54,0l5.1-0.01c0.14,0,0.27,0,0.41,0l6.05-0.01l3.36-0.01h2.7l3.57-0.01
	l2.49-0.01v-2.84l-0.01-3.96l-0.01-1.68v-1.23l-0.01-3.88v-2.99l-0.01-3.81l-0.01-2.76v-0.3l-0.01-3.73v-3.14c0-0.05,0-0.11,0-0.16
	l-0.01-3.5l-0.01-3.2c0-0.05,0-0.1,0-0.16v-3.43l-0.01-3.28c0-0.11,0-0.23,0-0.34C96.03,533.08,94.01,534.07,91.99,535.06z
	 M93,543.4l0.01,5.38v0.55l0.01,0.94l0.01,5.84v1.03l0.01,5.78c0,0.18,0,0.36,0,0.54l0.01,0.55l0.01,5.7h-2.53l-3.53,0.01
	l-6.05,0.01h-1.59l-3.75,0.01h-0.71l-6.05,0.01l-5.57,0.01c-0.16,0-0.32,0-0.49,0l-2.11,0.01h-3.95l-6.05,0.02l-3.48,0.01
	c-0.48,0-0.96,0-1.44,0h-1.13l-6.05,0.01l-6.06,0.01c-0.12,0-0.23,0-0.35,0c0.12-0.05,0.23-0.1,0.35-0.16l6.05-2.78
	c0.14-0.06,0.28-0.13,0.42-0.19h0.01l5.62-2.57c0.81-0.37,1.62-0.74,2.43-1.11l3.62-1.66l3.31-1.51l2.74-1.26l4.75-2.18
	c0.16-0.07,0.32-0.14,0.47-0.22l0.83-0.38l6.05-2.78c0.04-0.02,0.08-0.04,0.13-0.06h0.01l5.92-2.71v-0.01l1.56-0.71
	c0.13-0.06,0.25-0.11,0.38-0.17l4.11-1.89l3.01-1.38l3.04-1.39v-0.01c2.02-0.95,4.04-1.9,6.06-2.85C93,542.36,93,542.88,93,543.4z"
	/>
<path class="st0" d="M13.66,49.32v-2.81l-0.01-1.77v-2.76l-0.01-2.34v-1.69l6.05-0.01h2.78l2.39-0.01c0.29,0,0.59,0,0.88,0
	l6.05-0.01l6.06-0.01c0.11,0,0.22,0,0.32,0c-2.13,1.03-4.25,2.06-6.38,3.09l-0.12,0.05l-5.92,2.72l-1.55,0.71l-0.53,0.24l-3.96,1.82
	l-2.99,1.38h-0.01L13.66,49.32z"/>
<path class="st0" d="M8.63,65.82l1.46-0.67l0.14-0.06l4.45-2.04l3.03-1.39h0.01l3.01-1.38l4.24-1.95h0.01l0.23-0.1l1.57-0.72
	l5.91-2.72l0.13-0.06l6.06-2.78c0.33-0.15,0.66-0.3,0.99-0.45l0.31-0.14h0.01l4.75-2.18l2.73-1.26l3.31-1.52l3.77-1.73l0.41-0.19
	l1.87-0.85l5.62-2.58l0.43-0.19l6.06-2.78c0.34-0.15,0.67-0.31,1.01-0.46l5.04-2.3l2.45-1.12l3.61-1.65l3.28-1.5l0.6-0.28l2.17-1
	l5.32-2.44l0.73-0.33l6.05-2.78V24.2l-6.05,0.01l-6.06,0.01l-1.41,0.01h-1.52l-3.13,0.01l-6.05,0.01l-4.22,0.01l-1.63,0.01
	c-0.07,0-0.13,0-0.2,0l-6.06,0.01L57,24.29c-0.32,0-0.65,0-0.97,0l-2.79,0.01h-2.29l-6.05,0.01h-3.79l-2.27,0.01h-1.69l-4.37,0.01
	l-6.05,0.01c-0.18,0-0.36,0-0.54,0l-5.1,0.01c-0.14,0-0.27,0-0.41,0l-6.05,0.01l-3.36,0.01h-2.7l-3.57,0.01l-2.49,0.01v2.84
	l0.01,3.96l0.01,1.68v1.23l0.01,3.88v2.99l0.01,3.81l0.01,2.76v0.3l0.01,3.73v3.14c0,0.05,0,0.11,0,0.16l0.01,3.5l0.01,3.2
	c0,0.05,0,0.1,0,0.16v3.43l0.01,3.28c0,0.11,0,0.23,0,0.34C4.6,67.8,6.62,66.81,8.63,65.82z M7.62,57.47l-0.01-5.38v-0.55L7.61,50.6
	L7.6,44.76v-1.03l-0.01-5.78c0-0.18,0-0.36,0-0.54l-0.01-0.55l-0.01-5.7h2.53l3.53-0.01l6.05-0.01h1.59l3.75-0.01h0.71l6.05-0.01
	l5.57-0.01c0.16,0,0.32,0,0.49,0l2.11-0.01h3.95l6.05-0.01l3.48-0.01c0.48,0,0.96,0,1.44,0H56l6.05-0.01l6.06-0.01
	c0.12,0,0.23,0,0.35,0c-0.12,0.05-0.23,0.1-0.35,0.16l-6.05,2.78c-0.14,0.06-0.28,0.13-0.42,0.19h-0.01l-5.62,2.57
	c-0.81,0.37-1.62,0.74-2.43,1.11l-3.62,1.66l-3.31,1.51l-2.74,1.26l-4.75,2.18c-0.16,0.07-0.32,0.14-0.47,0.22l-0.83,0.38
	l-6.05,2.78c-0.04,0.02-0.08,0.04-0.13,0.06h-0.01l-5.92,2.71v0.01l-1.56,0.71c-0.13,0.06-0.25,0.11-0.38,0.17l-4.11,1.89
	l-3.01,1.38l-3.04,1.39v0.01c-2.02,0.95-4.04,1.9-6.06,2.85C7.62,58.51,7.62,57.99,7.62,57.47z"/>
<g>
	<g>
		<path class="st0" d="M30.69,523.37c0.14,0.06,0.27,0.12,0.41,0.18h0.01l0.53,0.25c2.16,1.01,4.31,2.02,6.47,3.02
			c-0.14,0.07-0.27,0.13-0.41,0.2c-2.02,0.93-4.03,1.85-6.05,2.78l-0.95,0.43l-0.25,0.12h-0.01l-4.84,2.21l-0.01-2.21v-2.46
			l-0.01-2.18v-2.15l-0.01-2.54L30.69,523.37z"/>
		<path class="st0" d="M1.28,482.44c0.01,2.11,0.03,4.22,0.04,6.33v0.53c0,0.11,0,0.21,0,0.32l0.01,6.01v0.55c0,0.08,0,0.16,0,0.25
			l0.01,6.07v0.55c0,0.06,0,0.11,0,0.17l0.01,6.14v0.56c0,0.03,0,0.06,0,0.1l0.01,6.2v0.57c0.01,0.01,0.01,0.01,0.02,0.02
			c0,2.09,0,4.18-0.01,6.27v0.58l0.01,6.29v0.58l0.01,6.28l0.01,0.4v0.19l0.01,6.27v0.6l0.01,6.26v0.27l0.01,0.34l0.01,6.25v0.62
			l0.01,6.23v0.64l0.01,6.23l6.04-2.78c0.25-0.11,0.5-0.23,0.75-0.34h0.01l5.31-2.43l2.17-1c0.15-0.07,0.3-0.14,0.45-0.21l3.42-1.56
			l3.62-1.66l2.43-1.11l5.06-2.32c0.12-0.05,0.24-0.11,0.35-0.16h0.01l0.63-0.29l6.05-2.77c0.15-0.07,0.3-0.14,0.45-0.21l5.6-2.57
			l1.89-0.87c0.08-0.04,0.17-0.07,0.25-0.11l3.91-1.8l3.32-1.52l2.73-1.25l4.76-2.18c0.06-0.03,0.12-0.05,0.19-0.08l1.11-0.51
			l6.05-2.78c0.05-0.02,0.1-0.04,0.15-0.07h0.01l5.9-2.7l1.58-0.73c0.03-0.01,0.06-0.02,0.09-0.04l4.38-2.01l6.05-2.77v-0.01
			l4.45-2.04l0.02-0.01l1.59-0.73l5.9-2.71l-5.9-2.7v-0.01l-1.41-0.64c-0.06-0.02-0.12-0.05-0.17-0.07l-4.48-2.06l-3.01-1.38
			l-3.05-1.4l-4.07-1.86c-0.66-0.3-1.32-0.61-1.99-0.91l-5.86-2.69h-0.01c-2.08-0.95-4.16-1.91-6.24-2.86l-0.66-0.31
			c-0.19-0.09-0.39-0.17-0.58-0.26l-4.82-2.21l-2.67-1.22l-3.39-1.55v-0.01l-3.31-1.51c-0.26-0.12-0.53-0.24-0.79-0.37l-1.95-0.9
			l-5.54-2.54c-0.17-0.08-0.35-0.16-0.52-0.24l-5.95-2.73H31.6c-0.3-0.15-0.6-0.31-0.91-0.46l-5.15-2.36l-2.34-1.07l-3.71-1.71
			l-2.55-1.17c-0.41-0.19-0.81-0.37-1.22-0.56l-2.29-1.05l-5.2-2.39c-0.29-0.13-0.58-0.26-0.87-0.4l-5.2-2.39H2.16
			C1.87,482.69,1.57,482.56,1.28,482.44z M8.23,492.47l5.21,2.39l2.27,1.04l1.07,0.49c0.9,0.41,1.8,0.83,2.71,1.24l3.71,1.7
			l2.35,1.08l5.14,2.36l0.86,0.39h0.05v0.03l6.06,2.78l0.51,0.24l5.54,2.54l1.95,0.9h0.01l0.63,0.29h0.01l3.47,1.59l3.38,1.55
			l2.68,1.23l4.81,2.21l0.43,0.19c0.27,0.12,0.54,0.25,0.81,0.37l6.06,2.78l0.17,0.08h0.01l5.87,2.69l1.61,0.74l0.23,0.1h0.01
			l4.21,1.93l3.04,1.39l-3.03,1.39l-4.45,2.04l0.07,0.04h-0.15l-1.52,0.7l-5.89,2.7l-0.15,0.07l-6.06,2.78
			c-0.42,0.19-0.84,0.38-1.25,0.58l-0.02,0.02h-0.01l-4.77,2.18l-2.72,1.24l-3.33,1.53l-4.05,1.86l-0.11,0.05l-1.89,0.87l-5.59,2.57
			h-0.01l-0.45,0.2l-6.06,2.78c-0.32,0.15-0.65,0.3-0.97,0.45h-0.01l-5.07,2.33l-2.42,1.11l-3.63,1.66l-3.57,1.64l-0.29,0.13
			l-2.19,1l-5.3,2.43l-0.75,0.34v-0.69l-0.01-3.21l-0.01-2.96v-0.7l-0.01-3.14v-3.74l-0.01-3.06l-0.01-3.08v-3.71l-0.01-3.15v-0.73
			l-0.01-2.91l-0.01-3.22v-3.58l-0.01-3.28v-0.75l-0.01-2.77l-0.01-3.34V510l-0.01-3.41v-0.76l-0.01-2.62v-3.49l-0.01-0.76v-2.54
			l-0.01-3.55v-0.79L8.23,492.47z"/>
		<path class="st0" d="M13.45,503.81l0.01,4.79l0.01,1.39v0.67l0.01,4.8v2.07l0.01,4.81l0.01,1.24v0.81l0.01,4.82v2.04l0.01,4.82
			l0.01,1.1v0.94l0.01,4.83v2.02l0.01,4.85v0.95l0.01,1.06l2.2-1c0.05-0.02,0.09-0.04,0.14-0.07l3.71-1.7l3.64-1.67l2.41-1.1v-0.01
			l5.08-2.33l-0.06-0.02h0.12l0.91-0.42l6.05-2.78c0.16-0.07,0.31-0.14,0.47-0.22h0.01l5.58-2.56l1.87-0.85l0.03-0.01l4.15-1.9
			l3.35-1.53l2.71-1.24l4.64-2.13l0.13-0.06l1.27-0.58l6.05-2.78v-0.16l-6.06-2.78l-0.97-0.45c-0.1-0.04-0.2-0.08-0.3-0.13
			l-4.79-2.2l-2.69-1.23l-3.37-1.54l-3.64-1.67c-0.16-0.07-0.32-0.15-0.49-0.22l-1.93-0.88l-5.55-2.55
			c-0.17-0.08-0.34-0.15-0.51-0.23l-6.06-2.78l-0.21-0.1h-0.01c-0.23-0.1-0.47-0.21-0.7-0.31l-5.13-2.36l-2.36-1.08l-3.69-1.7
			l-2.88-1.32l-0.91-0.42l-2.27-1.04V503.81z M23.21,513.07l2.37,1.09v0.01l5.12,2.34l0.54,0.25c0.13,0.06,0.26,0.12,0.39,0.18
			l6.06,2.78l0.49,0.22l5.56,2.55l1.93,0.88l0.35,0.16l3.79,1.74l3.35,1.53l-3.35,1.53v0.01l-4.14,1.89l0.19,0.09h-0.39l-1.72,0.79
			l-5.58,2.56l-0.47,0.22l-6.06,2.78l-0.96,0.44l0.1,0.04l-0.2,0.01h-0.01l-4.98,2.28l-2.4,1.1l-3.65,1.68l-0.01-3.35v-1.69
			l-0.01-1.82l-0.01-3.35v-3.51l-0.01-3.36v-1.55l-0.01-1.95v-3.37l-0.01-1.47v-2.01l-0.01-3.38L23.21,513.07z"/>
	</g>
	<path class="st0" d="M35.62,526.84"/>
</g>
<g>
	<g>
		<path class="st0" d="M67.99,480.1c-0.14-0.06-0.27-0.12-0.41-0.18h-0.01l-0.53-0.25c-2.16-1.01-4.31-2.01-6.47-3.02
			c0.14-0.07,0.27-0.13,0.41-0.2c2.02-0.93,4.03-1.85,6.05-2.78l0.95-0.43l0.25-0.12h0.01l4.84-2.21l0.01,2.21v2.46l0.01,2.18v2.15
			l0.01,2.54L67.99,480.1z"/>
		<path class="st0" d="M97.4,521.03c-0.01-2.11-0.03-4.22-0.04-6.33v-0.53c0-0.11,0-0.21,0-0.32l-0.01-6.01v-0.55
			c0-0.08,0-0.16,0-0.25l-0.01-6.07v-0.55c0-0.06,0-0.11,0-0.17l-0.01-6.14v-0.56c0-0.03,0-0.06,0-0.1l-0.01-6.2v-0.57
			c-0.01-0.01-0.01-0.01-0.02-0.02c0-2.09,0-4.18,0.01-6.27v-0.58l-0.01-6.29v-0.58l-0.01-6.28l-0.01-0.4v-0.19l-0.01-6.27v-0.6
			l-0.01-6.26v-0.27l-0.01-0.34l-0.01-6.25v-0.62l-0.01-6.23v-0.64l-0.01-6.23l-6.04,2.78c-0.25,0.11-0.5,0.23-0.75,0.34h-0.01
			l-5.31,2.43l-2.17,1c-0.15,0.07-0.3,0.14-0.45,0.21l-3.42,1.56l-3.62,1.66l-2.43,1.11l-5.06,2.32c-0.12,0.05-0.24,0.11-0.35,0.16
			h-0.01L67,446.23L60.95,449c-0.15,0.07-0.3,0.14-0.45,0.21l-5.6,2.57l-1.89,0.87c-0.08,0.04-0.17,0.07-0.25,0.11l-3.91,1.8
			l-3.32,1.52l-2.73,1.25l-4.76,2.18c-0.06,0.03-0.12,0.05-0.19,0.08l-1.11,0.51l-6.05,2.78c-0.05,0.02-0.1,0.04-0.15,0.07h-0.01
			l-5.9,2.7l-1.58,0.73c-0.03,0.01-0.06,0.02-0.09,0.04l-4.38,2.01l-6.05,2.77v0.01l-4.45,2.04l-0.02,0.01l-1.59,0.73l-5.9,2.71
			l5.9,2.7v0.01l1.41,0.64c0.06,0.02,0.12,0.05,0.17,0.07l4.48,2.06l3.01,1.38l3.05,1.4l4.07,1.86c0.66,0.3,1.32,0.61,1.99,0.91
			l5.86,2.69h0.01c2.08,0.95,4.16,1.91,6.24,2.86l0.66,0.31c0.19,0.09,0.39,0.17,0.58,0.26l4.82,2.21l2.67,1.22l3.39,1.55v0.01
			l3.31,1.51c0.26,0.12,0.53,0.24,0.79,0.37l1.95,0.9l5.54,2.54c0.17,0.08,0.35,0.16,0.52,0.24l5.95,2.73h0.11
			c0.3,0.15,0.6,0.31,0.91,0.46l5.15,2.36l2.34,1.07l3.71,1.71l2.55,1.17c0.41,0.19,0.81,0.37,1.22,0.56l2.29,1.05l5.2,2.39
			c0.29,0.13,0.58,0.26,0.87,0.4l5.2,2.39h0.01C96.82,520.77,97.11,520.9,97.4,521.03z M90.45,510.99l-5.21-2.39l-2.27-1.04
			l-1.07-0.49c-0.9-0.41-1.8-0.83-2.71-1.24l-3.71-1.7l-2.35-1.08l-5.14-2.36l-0.86-0.39h-0.05v-0.03l-6.06-2.78l-0.51-0.24
			l-5.54-2.54l-1.95-0.9h-0.01l-0.63-0.29h-0.01l-3.47-1.59l-3.38-1.55l-2.68-1.23l-4.81-2.21l-0.43-0.19
			c-0.27-0.12-0.54-0.25-0.81-0.37l-6.06-2.78l-0.17-0.08h-0.01l-5.87-2.69l-1.61-0.74l-0.23-0.1h-0.01l-4.21-1.93l-3.04-1.39
			l3.03-1.39l4.45-2.04L23,473.2h0.15l1.52-0.7l5.89-2.7l0.15-0.07l6.06-2.78c0.42-0.19,0.84-0.38,1.25-0.58l0.02-0.01h0.01
			l4.77-2.18l2.72-1.24l3.33-1.53l4.05-1.86l0.11-0.05l1.89-0.87l5.59-2.57h0.01l0.45-0.2l6.06-2.78c0.32-0.15,0.65-0.3,0.97-0.45
			h0.01l5.07-2.33l2.42-1.11l3.63-1.66l3.57-1.64l0.29-0.13l2.19-1l5.3-2.43l0.75-0.34v0.69l0.01,3.21l0.01,2.96v0.7l0.01,3.14v3.74
			l0.01,3.06l0.01,3.08v3.71l0.01,3.15v0.73l0.01,2.91l0.01,3.22v3.58l0.01,3.28v0.75l0.01,2.77l0.01,3.34v3.45l0.01,3.41v0.76
			l0.01,2.62v3.49l0.01,0.76v2.54l0.01,3.55v0.79L90.45,510.99z"/>
		<path class="st0" d="M85.24,499.66l-0.01-4.79l-0.01-1.39v-0.67l-0.01-4.8v-2.07l-0.01-4.81l-0.01-1.24v-0.81l-0.01-4.82v-2.04
			l-0.01-4.82l-0.01-1.1v-0.94l-0.01-4.83v-2.02l-0.01-4.85v-0.95l-0.01-1.06l-2.2,1c-0.05,0.02-0.09,0.04-0.14,0.07l-3.71,1.7
			l-3.64,1.67l-2.41,1.1v0.01l-5.08,2.33l0.06,0.02h-0.12l-0.91,0.42l-6.05,2.78c-0.16,0.07-0.31,0.14-0.47,0.22H60.5l-5.58,2.56
			l-1.87,0.85l-0.03,0.01l-4.15,1.9l-3.35,1.53l-2.71,1.24l-4.64,2.13l-0.13,0.06l-1.27,0.58l-6.05,2.78v0.16l6.06,2.78l0.97,0.45
			c0.1,0.04,0.2,0.08,0.3,0.13l4.79,2.2l2.69,1.23l3.37,1.54l3.64,1.67c0.16,0.07,0.32,0.15,0.49,0.22l1.93,0.88l5.55,2.55
			c0.17,0.08,0.34,0.15,0.51,0.23l6.06,2.78l0.21,0.1h0.01c0.23,0.1,0.47,0.21,0.7,0.31l5.13,2.36l2.36,1.08l3.69,1.7l2.88,1.32
			l0.91,0.42l2.27,1.04V499.66z M75.48,490.4l-2.37-1.09v-0.01l-5.12-2.34l-0.54-0.25c-0.13-0.06-0.26-0.12-0.39-0.18L61,483.75
			l-0.49-0.22l-5.56-2.55l-1.93-0.88l-0.35-0.16l-3.79-1.74l-3.35-1.53l3.35-1.53v-0.01l4.14-1.89l-0.19-0.09h0.39l1.72-0.79
			l5.58-2.56l0.47-0.22l6.06-2.78l0.96-0.44l-0.1-0.04l0.2-0.01h0.01l4.98-2.28l2.4-1.1l3.65-1.68l0.01,3.35v1.69l0.01,1.82
			l0.01,3.35v3.51l0.01,3.36v1.55l0.01,1.95v3.37l0.01,1.47v2.01l0.01,3.38L75.48,490.4z"/>
	</g>
	<path class="st0" d="M63.07,476.62"/>
</g>
<g>
	<g>
		<path class="st0" d="M30.02,423.16c0.14,0.06,0.27,0.12,0.41,0.18h0.01l0.53,0.25c2.16,1.01,4.31,2.01,6.47,3.02
			c-0.14,0.07-0.27,0.13-0.41,0.2c-2.02,0.93-4.03,1.85-6.05,2.78l-0.95,0.43l-0.25,0.12h-0.01l-4.84,2.21l-0.01-2.21v-2.46
			l-0.01-2.18v-2.15l-0.01-2.54L30.02,423.16z"/>
		<path class="st0" d="M0.62,382.23c0.01,2.11,0.03,4.22,0.04,6.33v0.53c0,0.11,0,0.21,0,0.32l0.01,6.01v0.55c0,0.08,0,0.16,0,0.25
			l0.01,6.07v0.55c0,0.06,0,0.11,0,0.17l0.01,6.14v0.56c0,0.03,0,0.06,0,0.1l0.01,6.2v0.57c0.01,0.01,0.01,0.01,0.02,0.02
			c0,2.09,0,4.18-0.01,6.27v0.58l0.01,6.29v0.58l0.01,6.28l0.01,0.4v0.19l0.01,6.27v0.6l0.01,6.26v0.27l0.01,0.34l0.01,6.25v0.62
			l0.01,6.23v0.64l0.01,6.23l6.04-2.78c0.25-0.11,0.5-0.23,0.75-0.34h0.01l5.31-2.43l2.17-1c0.15-0.07,0.3-0.14,0.45-0.21l3.42-1.56
			l3.62-1.66l2.43-1.11l5.06-2.32c0.12-0.05,0.24-0.11,0.35-0.16h0.01l0.63-0.29l6.05-2.77c0.15-0.07,0.3-0.14,0.45-0.21l5.6-2.57
			l1.89-0.87c0.08-0.04,0.17-0.07,0.25-0.11l3.91-1.8l3.32-1.52l2.73-1.25l4.76-2.18c0.06-0.03,0.12-0.05,0.19-0.08l1.11-0.51
			l6.05-2.78c0.05-0.02,0.1-0.04,0.15-0.07h0.01l5.9-2.7l1.58-0.73c0.03-0.01,0.06-0.02,0.09-0.04l4.38-2.01l6.05-2.77v-0.01
			l4.45-2.04l0.02-0.01l1.59-0.73l5.9-2.71l-5.9-2.7v-0.01l-1.41-0.64c-0.06-0.02-0.12-0.05-0.17-0.07l-4.48-2.06l-3.01-1.38
			l-3.05-1.4l-4.07-1.86c-0.66-0.3-1.32-0.61-1.99-0.91l-5.86-2.69h-0.01c-2.08-0.95-4.16-1.91-6.24-2.86l-0.66-0.31
			c-0.19-0.09-0.39-0.17-0.58-0.26l-4.82-2.21l-2.67-1.22l-3.39-1.55v-0.01l-3.31-1.51c-0.26-0.12-0.53-0.24-0.79-0.37l-1.95-0.9
			l-5.54-2.54c-0.17-0.08-0.35-0.16-0.52-0.24l-5.95-2.73h-0.11c-0.3-0.15-0.6-0.31-0.91-0.46l-5.15-2.36l-2.34-1.07l-3.71-1.71
			l-2.55-1.17c-0.41-0.19-0.81-0.37-1.22-0.56l-2.29-1.05l-5.2-2.39c-0.29-0.13-0.58-0.26-0.87-0.4l-5.2-2.39H1.49
			C1.2,382.48,0.91,382.35,0.62,382.23z M7.57,392.26l5.21,2.39l2.27,1.04l1.07,0.49c0.9,0.41,1.8,0.83,2.71,1.24l3.71,1.7
			l2.35,1.08l5.14,2.36l0.86,0.39h0.05v0.03l6.06,2.78l0.51,0.24l5.54,2.54l1.95,0.9h0.01l0.63,0.29h0.01l3.47,1.59l3.38,1.55
			l2.68,1.23l4.81,2.21l0.43,0.19c0.27,0.12,0.54,0.25,0.81,0.37l6.06,2.78l0.17,0.08h0.01l5.87,2.69l1.61,0.74l0.23,0.1h0.01
			l4.21,1.93l3.04,1.39l-3.03,1.39l-4.45,2.04l0.07,0.04h-0.15l-1.52,0.7l-5.89,2.7l-0.15,0.07l-6.06,2.78
			c-0.42,0.19-0.84,0.38-1.25,0.58l-0.02,0.01h-0.01l-4.77,2.18l-2.72,1.24l-3.33,1.53l-4.05,1.86L45,443.75l-1.89,0.87l-5.59,2.57
			h-0.01l-0.45,0.2L31,450.16c-0.32,0.15-0.65,0.3-0.97,0.45h-0.01l-5.07,2.33l-2.42,1.11l-3.63,1.66l-3.57,1.64l-0.29,0.13l-2.19,1
			l-5.3,2.43l-0.75,0.34v-0.69l-0.01-3.21l-0.01-2.96v-0.7l-0.01-3.14v-3.74l-0.01-3.06l-0.01-3.08v-3.71l-0.01-3.15v-0.73
			l-0.01-2.91l-0.01-3.22v-3.58l-0.01-3.28v-0.75l-0.01-2.77l-0.01-3.34v-3.45l-0.01-3.41v-0.76l-0.01-2.62v-3.49l-0.01-0.76v-2.54
			l-0.01-3.55v-0.79L7.57,392.26z"/>
		<path class="st0" d="M12.78,403.6l0.01,4.79l0.01,1.39v0.67l0.01,4.8v2.07l0.01,4.81l0.01,1.24v0.81l0.01,4.82v2.04l0.01,4.82
			l0.01,1.1v0.94l0.01,4.83v2.02l0.01,4.85v0.95l0.01,1.06l2.2-1c0.05-0.02,0.09-0.04,0.14-0.07l3.71-1.7l3.64-1.67l2.41-1.1v-0.01
			l5.08-2.33l-0.06-0.02h0.12l0.91-0.42l6.05-2.78c0.16-0.07,0.31-0.14,0.47-0.22h0.01l5.58-2.56l1.87-0.85l0.03-0.01l4.15-1.9
			l3.35-1.53l2.71-1.24l4.64-2.13l0.13-0.06l1.27-0.58l6.05-2.78v-0.16l-6.06-2.78l-0.97-0.45c-0.1-0.04-0.2-0.08-0.3-0.13
			l-4.79-2.2l-2.69-1.23l-3.37-1.54l-3.64-1.67c-0.16-0.07-0.32-0.15-0.49-0.22l-1.93-0.88l-5.55-2.55
			c-0.17-0.08-0.34-0.15-0.51-0.23l-6.06-2.78l-0.21-0.1h-0.01c-0.23-0.1-0.47-0.21-0.7-0.31l-5.13-2.36l-2.36-1.08l-3.69-1.7
			l-2.88-1.32l-0.91-0.42l-2.27-1.04V403.6z M22.54,412.85l2.37,1.09v0.01l5.12,2.34l0.54,0.25c0.13,0.06,0.26,0.12,0.39,0.18
			l6.06,2.78l0.49,0.22l5.56,2.55l1.93,0.88l0.35,0.16l3.79,1.74l3.35,1.53l-3.35,1.53v0.01L45,430.02l0.19,0.09h-0.39l-1.72,0.79
			l-5.58,2.56l-0.47,0.22l-6.06,2.78l-0.96,0.44l0.1,0.04l-0.2,0.01h-0.01l-4.98,2.28l-2.4,1.1l-3.65,1.68l-0.01-3.35v-1.69
			l-0.01-1.82l-0.01-3.35v-3.51l-0.01-3.36v-1.55l-0.01-1.95v-3.37l-0.01-1.47v-2.01l-0.01-3.38L22.54,412.85z"/>
	</g>
	<path class="st0" d="M34.95,426.63"/>
</g>
<g>
	<g>
		<path class="st0" d="M67.33,379.88c-0.14-0.06-0.27-0.12-0.41-0.18h-0.01l-0.53-0.25c-2.16-1.01-4.31-2.01-6.47-3.02
			c0.14-0.07,0.27-0.13,0.41-0.2c2.02-0.93,4.03-1.85,6.05-2.78l0.95-0.43l0.25-0.12h0.01l4.84-2.21l0.01,2.21v2.46l0.01,2.18v2.15
			l0.01,2.54L67.33,379.88z"/>
		<path class="st0" d="M96.74,420.82c-0.01-2.11-0.03-4.22-0.04-6.33v-0.53c0-0.11,0-0.21,0-0.32l-0.01-6.01v-0.55
			c0-0.08,0-0.16,0-0.25l-0.01-6.07v-0.55c0-0.06,0-0.11,0-0.17l-0.01-6.14v-0.56c0-0.03,0-0.06,0-0.1l-0.01-6.2v-0.57
			c-0.01-0.01-0.01-0.01-0.02-0.02c0-2.09,0-4.18,0.01-6.27v-0.58l-0.01-6.29v-0.58l-0.01-6.28l-0.01-0.4v-0.19l-0.01-6.27v-0.6
			l-0.01-6.26v-0.27l-0.01-0.34l-0.01-6.25v-0.62l-0.01-6.23v-0.64l-0.01-6.23l-6.04,2.78c-0.25,0.11-0.5,0.23-0.75,0.34h-0.01
			l-5.31,2.43l-2.17,1c-0.15,0.07-0.3,0.14-0.45,0.21l-3.42,1.56l-3.62,1.66l-2.43,1.11l-5.06,2.32c-0.12,0.05-0.24,0.11-0.35,0.16
			h-0.01l-0.63,0.29l-6.05,2.77c-0.15,0.07-0.3,0.14-0.45,0.21l-5.6,2.57l-1.89,0.87c-0.08,0.04-0.17,0.07-0.25,0.11l-3.91,1.8
			l-3.32,1.52l-2.73,1.25l-4.76,2.18c-0.06,0.03-0.12,0.05-0.19,0.08l-1.11,0.51l-6.05,2.78c-0.05,0.02-0.1,0.04-0.15,0.07h-0.01
			l-5.9,2.7l-1.58,0.73c-0.03,0.01-0.06,0.02-0.09,0.04l-4.38,2.01l-6.05,2.77v0.01l-4.45,2.04l-0.02,0.01l-1.59,0.73l-5.9,2.71
			l5.9,2.7v0.01l1.41,0.64c0.06,0.02,0.12,0.05,0.17,0.07l4.48,2.06l3.01,1.38l3.05,1.4l4.07,1.86c0.66,0.3,1.32,0.61,1.99,0.91
			l5.86,2.69h0.01c2.08,0.95,4.16,1.91,6.24,2.86l0.66,0.31c0.19,0.09,0.39,0.17,0.58,0.26l4.82,2.21l2.67,1.22l3.39,1.55v0.01
			l3.31,1.51c0.26,0.12,0.53,0.24,0.79,0.37l1.95,0.9l5.54,2.54c0.17,0.08,0.35,0.16,0.52,0.24l5.95,2.73h0.11
			c0.3,0.15,0.6,0.31,0.91,0.46l5.15,2.36l2.34,1.07l3.71,1.71l2.55,1.17c0.41,0.19,0.81,0.37,1.22,0.56l2.29,1.05l5.2,2.39
			c0.29,0.13,0.58,0.26,0.87,0.4l5.2,2.39h0.01C96.15,420.56,96.45,420.69,96.74,420.82z M89.79,410.78l-5.21-2.39l-2.27-1.04
			l-1.07-0.49c-0.9-0.41-1.8-0.83-2.71-1.24l-3.71-1.7l-2.35-1.08l-5.14-2.36l-0.86-0.39h-0.05v-0.03l-6.06-2.78l-0.51-0.24
			l-5.54-2.54l-1.95-0.9h-0.01l-0.63-0.29h-0.01l-3.47-1.59l-3.38-1.55l-2.68-1.23l-4.81-2.21l-0.43-0.19
			c-0.27-0.12-0.54-0.25-0.81-0.37l-6.06-2.78l-0.17-0.08h-0.01l-5.87-2.69l-1.61-0.74l-0.23-0.1h-0.01l-4.21-1.93l-3.04-1.39
			l3.03-1.39l4.45-2.04l-0.07-0.04h0.15l1.52-0.7l5.89-2.7l0.15-0.07l6.06-2.78c0.42-0.19,0.84-0.38,1.25-0.58l0.02-0.01h0.01
			l4.77-2.18l2.72-1.24l3.33-1.53l4.05-1.86l0.11-0.05l1.89-0.87l5.59-2.57h0.01l0.45-0.2l6.06-2.78c0.32-0.15,0.65-0.3,0.97-0.45
			h0.01l5.07-2.33l2.42-1.11l3.63-1.66l3.57-1.64l0.29-0.13l2.19-1l5.3-2.43l0.75-0.34v0.69l0.01,3.21l0.01,2.96v0.7l0.01,3.14v3.74
			l0.01,3.06l0.01,3.08v3.71l0.01,3.15v0.73l0.01,2.91l0.01,3.22v3.58l0.01,3.28v0.75l0.01,2.77l0.01,3.34v3.45l0.01,3.41v0.76
			l0.01,2.62v3.49l0.01,0.76v2.54l0.01,3.55v0.79L89.79,410.78z"/>
		<path class="st0" d="M84.57,399.44l-0.01-4.79l-0.01-1.39v-0.67l-0.01-4.8v-2.07l-0.01-4.81l-0.01-1.24v-0.81l-0.01-4.82V372
			l-0.01-4.82l-0.01-1.1v-0.94l-0.01-4.83v-2.02l-0.01-4.85v-0.95l-0.01-1.06l-2.2,1c-0.05,0.02-0.09,0.04-0.14,0.07l-3.71,1.7
			l-3.64,1.67l-2.41,1.1v0.01l-5.08,2.33l0.06,0.02h-0.12l-0.91,0.42l-6.05,2.78c-0.16,0.07-0.31,0.14-0.47,0.22h-0.01l-5.58,2.56
			l-1.87,0.85l-0.03,0.01l-4.15,1.9l-3.35,1.53l-2.71,1.24l-4.64,2.13l-0.13,0.06l-1.27,0.58l-6.05,2.78v0.16l6.06,2.78l0.97,0.45
			c0.1,0.04,0.2,0.08,0.3,0.13l4.79,2.2l2.69,1.23l3.37,1.54l3.64,1.67c0.16,0.07,0.32,0.15,0.49,0.22l1.93,0.88l5.55,2.55
			c0.17,0.08,0.34,0.15,0.51,0.23l6.06,2.78l0.21,0.1h0.01c0.23,0.1,0.47,0.21,0.7,0.31l5.13,2.36l2.36,1.08l3.69,1.7l2.88,1.32
			l0.91,0.42l2.27,1.04V399.44z M74.81,390.19l-2.37-1.09v-0.01l-5.12-2.34l-0.54-0.25c-0.13-0.06-0.26-0.12-0.39-0.18l-6.06-2.78
			l-0.49-0.22l-5.56-2.55l-1.93-0.88l-0.35-0.16l-3.79-1.74l-3.35-1.53l3.35-1.53v-0.01l4.14-1.89l-0.19-0.09h0.39l1.72-0.79
			l5.58-2.56l0.47-0.22l6.06-2.78l0.96-0.44l-0.1-0.04l0.2-0.01h0.01l4.98-2.28l2.4-1.1l3.65-1.68l0.01,3.35v1.69l0.01,1.82
			l0.01,3.35v3.51l0.01,3.36v1.55l0.01,1.95v3.37l0.01,1.47v2.01l0.01,3.38L74.81,390.19z"/>
	</g>
	<path class="st0" d="M62.4,376.41"/>
</g>
<g>
	<g>
		<path class="st0" d="M31.96,322.95c0.14,0.06,0.27,0.12,0.41,0.18h0.01l0.53,0.25c2.16,1.01,4.31,2.01,6.47,3.02
			c-0.14,0.07-0.27,0.13-0.41,0.2c-2.02,0.93-4.03,1.85-6.05,2.78l-0.95,0.43l-0.25,0.12H31.7l-4.84,2.21l-0.01-2.21v-2.46
			l-0.01-2.18v-2.15l-0.01-2.54L31.96,322.95z"/>
		<path class="st0" d="M2.55,282.01c0.01,2.11,0.03,4.22,0.04,6.33v0.53c0,0.11,0,0.21,0,0.32l0.01,6.01v0.55c0,0.08,0,0.16,0,0.25
			l0.01,6.07v0.55c0,0.06,0,0.11,0,0.17l0.01,6.14v0.56c0,0.03,0,0.06,0,0.1l0.01,6.2v0.57c0.01,0.01,0.01,0.01,0.02,0.02
			c0,2.09,0,4.18-0.01,6.27v0.58l0.01,6.29v0.58l0.01,6.28l0.01,0.4v0.19l0.01,6.27v0.6l0.01,6.26v0.27l0.01,0.34l0.01,6.25v0.62
			l0.01,6.23v0.64l0.01,6.23l6.04-2.78c0.25-0.11,0.5-0.23,0.75-0.34h0.01l5.31-2.43l2.17-1c0.15-0.07,0.3-0.14,0.45-0.21l3.42-1.56
			l3.62-1.66l2.43-1.11l5.06-2.32c0.12-0.05,0.24-0.11,0.35-0.16h0.01l0.63-0.29l6.05-2.77c0.15-0.07,0.3-0.14,0.45-0.21l5.6-2.57
			l1.89-0.87c0.08-0.04,0.17-0.07,0.25-0.11l3.91-1.8l3.32-1.52l2.73-1.25l4.76-2.18c0.06-0.03,0.12-0.05,0.19-0.08l1.11-0.51
			l6.05-2.78c0.05-0.02,0.1-0.04,0.15-0.07h0.01l5.9-2.7l1.58-0.73c0.03-0.01,0.06-0.02,0.09-0.04l4.38-2.01l6.05-2.77v-0.01
			l4.45-2.04l0.02-0.01l1.59-0.73l5.9-2.71l-5.9-2.7v-0.01l-1.41-0.64c-0.06-0.02-0.12-0.05-0.17-0.07l-4.48-2.06l-3.01-1.38
			l-3.05-1.4l-4.07-1.86c-0.66-0.3-1.32-0.61-1.99-0.91l-5.86-2.69h-0.01c-2.08-0.95-4.16-1.91-6.24-2.86l-0.66-0.31
			c-0.19-0.09-0.39-0.17-0.58-0.26L57.09,307l-2.67-1.22l-3.39-1.55v-0.01l-3.31-1.51c-0.26-0.12-0.53-0.24-0.79-0.37l-1.95-0.9
			l-5.54-2.54c-0.17-0.08-0.35-0.16-0.52-0.24l-5.95-2.73h-0.11c-0.3-0.15-0.6-0.31-0.91-0.46l-5.15-2.36l-2.34-1.07l-3.71-1.71
			l-2.55-1.17c-0.41-0.19-0.81-0.37-1.22-0.56l-2.29-1.05l-5.2-2.39c-0.29-0.13-0.58-0.26-0.87-0.4l-5.2-2.39H3.43
			C3.13,282.27,2.84,282.14,2.55,282.01z M9.5,292.05l5.21,2.39l2.27,1.04l1.07,0.49c0.9,0.41,1.8,0.83,2.71,1.24l3.71,1.7
			l2.35,1.08l5.14,2.36l0.86,0.39h0.05v0.03l6.06,2.78l0.51,0.24l5.54,2.54l1.95,0.9h0.01l0.63,0.29h0.01l3.47,1.59l3.38,1.55
			l2.68,1.23l4.81,2.21l0.43,0.19c0.27,0.12,0.54,0.25,0.81,0.37l6.06,2.78l0.17,0.08h0.01l5.87,2.69l1.61,0.74l0.23,0.1h0.01
			l4.21,1.93l3.04,1.39l-3.03,1.39l-4.45,2.04l0.07,0.04H76.8l-1.52,0.7l-5.89,2.7l-0.15,0.07l-6.06,2.78
			c-0.42,0.19-0.84,0.38-1.25,0.58l-0.02,0.01H61.9l-4.77,2.18l-2.72,1.24l-3.33,1.53l-4.05,1.86l-0.11,0.05l-1.89,0.87l-5.59,2.57
			h-0.01l-0.45,0.2l-6.06,2.78c-0.32,0.15-0.65,0.3-0.97,0.45h-0.01l-5.07,2.33l-2.42,1.11l-3.63,1.66l-3.57,1.64l-0.29,0.13
			l-2.19,1l-5.3,2.43l-0.75,0.34v-0.69l-0.01-3.21l-0.01-2.96v-0.7l-0.01-3.14v-3.74l-0.01-3.06l-0.01-3.08v-3.71l-0.01-3.15v-0.73
			l-0.01-2.91l-0.01-3.22v-3.58l-0.01-3.28v-0.75l-0.01-2.77l-0.01-3.34v-3.45l-0.01-3.41v-0.76l-0.01-2.62v-3.49l-0.01-0.76v-2.54
			l-0.01-3.55v-0.79L9.5,292.05z"/>
		<path class="st0" d="M14.72,303.39l0.01,4.79l0.01,1.39v0.67l0.01,4.8v2.07l0.01,4.81l0.01,1.24v0.81l0.01,4.82v2.04l0.01,4.82
			l0.01,1.1v0.94l0.01,4.83v2.02l0.01,4.85v0.95l0.01,1.06l2.2-1c0.05-0.02,0.09-0.04,0.14-0.07l3.71-1.7l3.64-1.67l2.41-1.1v-0.01
			l5.08-2.33l-0.06-0.02h0.12l0.91-0.42l6.05-2.78c0.16-0.07,0.31-0.14,0.47-0.22h0.01l5.58-2.56l1.87-0.85l0.03-0.01l4.15-1.9
			l3.35-1.53l2.71-1.24l4.64-2.13l0.13-0.06l1.27-0.58l6.05-2.78v-0.16l-6.06-2.78l-0.97-0.45c-0.1-0.04-0.2-0.08-0.3-0.13
			l-4.79-2.2l-2.69-1.23l-3.37-1.54l-3.64-1.67c-0.16-0.07-0.32-0.15-0.49-0.22L45,315.19l-5.55-2.55
			c-0.17-0.08-0.34-0.15-0.51-0.23l-6.06-2.78l-0.21-0.1h-0.01c-0.23-0.1-0.47-0.21-0.7-0.31l-5.13-2.36l-2.36-1.08l-3.69-1.7
			l-2.88-1.32l-0.91-0.42l-2.27-1.04V303.39z M24.47,312.64l2.37,1.09v0.01l5.12,2.34l0.54,0.25c0.13,0.06,0.26,0.12,0.39,0.18
			l6.06,2.78l0.49,0.22l5.56,2.55l1.93,0.88l0.35,0.16l3.79,1.74l3.35,1.53l-3.35,1.53v0.01l-4.14,1.89l0.19,0.09h-0.39l-1.72,0.79
			l-5.58,2.56l-0.47,0.22l-6.06,2.78l-0.96,0.44l0.1,0.04l-0.2,0.01h-0.01L26.87,339l-2.4,1.1l-3.65,1.68l-0.01-3.35v-1.69
			l-0.01-1.82l-0.01-3.35v-3.51l-0.01-3.36v-1.55l-0.01-1.95v-3.37l-0.01-1.47v-2.01l-0.01-3.38L24.47,312.64z"/>
	</g>
	<path class="st0" d="M36.89,326.42"/>
</g>
<g>
	<g>
		<path class="st0" d="M69.26,279.67c-0.14-0.06-0.27-0.12-0.41-0.18h-0.01l-0.53-0.25c-2.16-1.01-4.31-2.01-6.47-3.02
			c0.14-0.07,0.27-0.13,0.41-0.2c2.02-0.93,4.03-1.85,6.05-2.78l0.95-0.43l0.25-0.12h0.01l4.84-2.21l0.01,2.21v2.46l0.01,2.18v2.15
			l0.01,2.54L69.26,279.67z"/>
		<path class="st0" d="M98.67,320.6c-0.01-2.11-0.03-4.22-0.04-6.33v-0.53c0-0.11,0-0.21,0-0.32l-0.01-6.01v-0.55
			c0-0.08,0-0.16,0-0.25l-0.01-6.07V300c0-0.06,0-0.11,0-0.17l-0.01-6.14v-0.56c0-0.03,0-0.06,0-0.1l-0.01-6.2v-0.57
			c-0.01-0.01-0.01-0.01-0.02-0.02c0-2.09,0-4.18,0.01-6.27v-0.58l-0.01-6.29v-0.58l-0.01-6.28l-0.01-0.4v-0.19l-0.01-6.27v-0.6
			l-0.01-6.26v-0.27l-0.01-0.34l-0.01-6.25v-0.62l-0.01-6.23v-0.64l-0.01-6.23l-6.04,2.78c-0.25,0.11-0.5,0.23-0.75,0.34h-0.01
			l-5.31,2.43l-2.17,1c-0.15,0.07-0.3,0.14-0.45,0.21l-3.42,1.56l-3.62,1.66l-2.43,1.11l-5.06,2.32c-0.12,0.05-0.24,0.11-0.35,0.16
			H68.9l-0.63,0.29l-6.05,2.77c-0.15,0.07-0.3,0.14-0.45,0.21l-5.6,2.57l-1.89,0.87c-0.08,0.04-0.17,0.07-0.25,0.11l-3.91,1.8
			l-3.32,1.52l-2.73,1.25l-4.76,2.18c-0.06,0.03-0.12,0.05-0.19,0.08l-1.11,0.51l-6.05,2.78c-0.05,0.02-0.1,0.04-0.15,0.07h-0.01
			l-5.9,2.7l-1.58,0.73c-0.03,0.01-0.06,0.02-0.09,0.04l-4.38,2.01l-6.05,2.77v0.01l-4.45,2.04l-0.02,0.01l-1.59,0.73l-5.9,2.71
			l5.9,2.7v0.01l1.41,0.64c0.06,0.02,0.12,0.05,0.17,0.07l4.48,2.06l3.01,1.38l3.05,1.4l4.07,1.86c0.66,0.3,1.32,0.61,1.99,0.91
			l5.86,2.69h0.01c2.08,0.95,4.16,1.91,6.24,2.86l0.66,0.31c0.19,0.09,0.39,0.17,0.58,0.26l4.82,2.21l2.67,1.22l3.39,1.55v0.01
			l3.31,1.51c0.26,0.12,0.53,0.24,0.79,0.37l1.95,0.9l5.54,2.54c0.17,0.08,0.35,0.16,0.52,0.24l5.95,2.73h0.11
			c0.3,0.15,0.6,0.31,0.91,0.46l5.15,2.36l2.34,1.07l3.71,1.71l2.55,1.17c0.41,0.19,0.81,0.37,1.22,0.56l2.29,1.05l5.2,2.39
			c0.29,0.13,0.58,0.26,0.87,0.4l5.2,2.39h0.01C98.09,320.35,98.38,320.48,98.67,320.6z M91.72,310.57l-5.21-2.39l-2.27-1.04
			l-1.07-0.49c-0.9-0.41-1.8-0.83-2.71-1.24l-3.71-1.7l-2.35-1.08l-5.14-2.36l-0.86-0.39h-0.05v-0.03l-6.06-2.78l-0.51-0.24
			l-5.54-2.54l-1.95-0.9h-0.01l-0.63-0.29h-0.01l-3.47-1.59l-3.38-1.55l-2.68-1.23l-4.81-2.21l-0.43-0.19
			c-0.27-0.12-0.54-0.25-0.81-0.37L32,283.19l-0.17-0.08h-0.01l-5.87-2.69l-1.61-0.74l-0.23-0.1H24.1l-4.21-1.93l-3.04-1.39
			l3.03-1.39l4.45-2.04l-0.07-0.04h0.15l1.52-0.7l5.89-2.7l0.15-0.07l6.06-2.78c0.42-0.19,0.84-0.38,1.25-0.58l0.02-0.01h0.01
			l4.77-2.18l2.72-1.24l3.33-1.53l4.05-1.86l0.11-0.05l1.89-0.87l5.59-2.57h0.01l0.45-0.2l6.06-2.78c0.32-0.15,0.65-0.3,0.97-0.45
			h0.01l5.07-2.33l2.42-1.11l3.63-1.66l3.57-1.64l0.29-0.13l2.19-1l5.3-2.43l0.75-0.34v0.69l0.01,3.21l0.01,2.96v0.7l0.01,3.14V256
			l0.01,3.06l0.01,3.08v3.71l0.01,3.15v0.73l0.01,2.91l0.01,3.22v3.58l0.01,3.28v0.75l0.01,2.77l0.01,3.34v3.45l0.01,3.41v0.76
			l0.01,2.62v3.49l0.01,0.76v2.54l0.01,3.55v0.79L91.72,310.57z"/>
		<path class="st0" d="M86.5,299.23l-0.01-4.79l-0.01-1.39v-0.67l-0.01-4.8v-2.07l-0.01-4.81l-0.01-1.24v-0.81l-0.01-4.82v-2.04
			l-0.01-4.82l-0.01-1.1v-0.94l-0.01-4.83v-2.02l-0.01-4.85v-0.95l-0.01-1.06l-2.2,1c-0.05,0.02-0.09,0.04-0.14,0.07l-3.71,1.7
			l-3.64,1.67l-2.41,1.1v0.01l-5.08,2.33l0.06,0.02H69.2l-0.91,0.42l-6.05,2.78c-0.16,0.07-0.31,0.14-0.47,0.22h-0.01l-5.58,2.56
			l-1.87,0.85l-0.03,0.01l-4.15,1.9l-3.35,1.53l-2.71,1.24l-4.64,2.13l-0.13,0.06l-1.27,0.58L32,276.16v0.16l6.06,2.78l0.97,0.45
			c0.1,0.04,0.2,0.08,0.3,0.13l4.79,2.2l2.69,1.23l3.37,1.54l3.64,1.67c0.16,0.07,0.32,0.15,0.49,0.22l1.93,0.88l5.55,2.55
			c0.17,0.08,0.34,0.15,0.51,0.23l6.06,2.78l0.21,0.1h0.01c0.23,0.1,0.47,0.21,0.7,0.31l5.13,2.36l2.36,1.08l3.69,1.7l2.88,1.32
			l0.91,0.42l2.27,1.04V299.23z M76.75,289.98l-2.37-1.09v-0.01l-5.12-2.34l-0.54-0.25c-0.13-0.06-0.26-0.12-0.39-0.18l-6.06-2.78
			l-0.49-0.22l-5.56-2.55l-1.93-0.88l-0.35-0.16l-3.79-1.74l-3.35-1.53l3.35-1.53v-0.01l4.14-1.89l-0.19-0.09h0.39l1.72-0.79
			l5.58-2.56l0.47-0.22l6.06-2.78l0.96-0.44l-0.1-0.04l0.2-0.01h0.01l4.98-2.28l2.4-1.1l3.65-1.68l0.01,3.35v1.69l0.01,1.82
			l0.01,3.35v3.51l0.01,3.36v1.55l0.01,1.95v3.37l0.01,1.47v2.01l0.01,3.38L76.75,289.98z"/>
	</g>
	<path class="st0" d="M64.33,276.2"/>
</g>
<g>
	<g>
		<path class="st0" d="M31.62,222.73c0.14,0.06,0.27,0.12,0.41,0.18h0.01l0.53,0.25c2.16,1.01,4.31,2.01,6.47,3.02
			c-0.14,0.07-0.27,0.13-0.41,0.2c-2.02,0.93-4.03,1.85-6.05,2.78l-0.95,0.43l-0.25,0.12h-0.01l-4.84,2.21l-0.01-2.21v-2.46
			l-0.01-2.18v-2.15l-0.01-2.54L31.62,222.73z"/>
		<path class="st0" d="M2.21,181.8c0.01,2.11,0.03,4.22,0.04,6.33v0.53c0,0.11,0,0.21,0,0.32L2.27,195v0.55c0,0.08,0,0.16,0,0.25
			l0.01,6.07v0.55c0,0.06,0,0.11,0,0.17l0.01,6.14v0.56c0,0.03,0,0.06,0,0.1l0.01,6.2v0.57c0.01,0.01,0.01,0.01,0.02,0.02
			c0,2.09,0,4.18-0.01,6.27v0.58l0.01,6.29v0.58l0.01,6.28l0.01,0.4v0.19l0.01,6.27v0.6l0.01,6.26v0.27l0.01,0.34l0.01,6.25v0.62
			l0.01,6.23v0.64l0.01,6.23l6.04-2.78c0.25-0.11,0.5-0.23,0.75-0.34h0.01l5.31-2.43l2.17-1c0.15-0.07,0.3-0.14,0.45-0.21l3.42-1.56
			l3.62-1.66l2.43-1.11l5.06-2.32c0.12-0.05,0.24-0.11,0.35-0.16h0.01l0.63-0.29l6.05-2.77c0.15-0.07,0.3-0.14,0.45-0.21l5.6-2.57
			l1.89-0.87c0.08-0.04,0.17-0.07,0.25-0.11l3.91-1.8l3.32-1.52l2.73-1.25l4.76-2.18c0.06-0.03,0.12-0.05,0.19-0.08l1.11-0.51
			l6.05-2.78c0.05-0.02,0.1-0.04,0.15-0.07h0.01l5.9-2.7l1.58-0.73c0.03-0.01,0.06-0.02,0.09-0.04l4.38-2.01l6.05-2.77v-0.01
			l4.45-2.04l0.02-0.01l1.59-0.73l5.9-2.71l-5.9-2.7v-0.01l-1.41-0.64c-0.06-0.02-0.12-0.05-0.17-0.07l-4.48-2.06l-3.01-1.38
			l-3.05-1.4l-4.07-1.86c-0.66-0.3-1.32-0.61-1.99-0.91l-5.86-2.69h-0.01c-2.08-0.95-4.16-1.91-6.24-2.86l-0.66-0.31
			c-0.19-0.09-0.39-0.17-0.58-0.26l-4.82-2.21l-2.67-1.22l-3.39-1.55v-0.01l-3.31-1.51c-0.26-0.12-0.53-0.24-0.79-0.37l-1.95-0.9
			l-5.54-2.54c-0.17-0.08-0.35-0.16-0.52-0.24l-5.95-2.73h-0.11c-0.3-0.15-0.6-0.31-0.91-0.46l-5.15-2.36l-2.34-1.07l-3.71-1.71
			l-2.55-1.17c-0.41-0.19-0.81-0.37-1.22-0.56l-2.29-1.05l-5.2-2.39c-0.29-0.13-0.58-0.26-0.87-0.4l-5.2-2.39H3.09
			C2.8,182.06,2.51,181.93,2.21,181.8z M9.16,191.84l5.21,2.39l2.27,1.04l1.07,0.49c0.9,0.41,1.8,0.83,2.71,1.24l3.71,1.7l2.35,1.08
			l5.14,2.36l0.86,0.39h0.05v0.03l6.06,2.78l0.51,0.24l5.54,2.54l1.95,0.9h0.01l0.63,0.29h0.01l3.47,1.59l3.38,1.55l2.68,1.23
			l4.81,2.21l0.43,0.19c0.27,0.12,0.54,0.25,0.81,0.37l6.06,2.78l0.17,0.08h0.01l5.87,2.69l1.61,0.74l0.23,0.1h0.01l4.21,1.93
			l3.04,1.39L81,227.55l-4.45,2.04l0.07,0.04h-0.15l-1.52,0.7l-5.89,2.7l-0.15,0.07l-6.06,2.78c-0.42,0.19-0.84,0.38-1.25,0.58
			l-0.02,0.01h-0.01l-4.77,2.18l-2.72,1.24l-3.33,1.53l-4.05,1.86l-0.11,0.05l-1.89,0.87l-5.59,2.57h-0.01l-0.45,0.2l-6.06,2.78
			c-0.32,0.15-0.65,0.3-0.97,0.45h-0.01l-5.07,2.33l-2.42,1.11l-3.63,1.66l-3.57,1.64l-0.29,0.13l-2.19,1l-5.3,2.43l-0.75,0.34
			v-0.69l-0.01-3.21l-0.01-2.96v-0.7l-0.01-3.14v-3.74l-0.01-3.06l-0.01-3.08v-3.71l-0.01-3.15v-0.73l-0.01-2.91l-0.01-3.22v-3.58
			l-0.01-3.28v-0.75l-0.01-2.77l-0.01-3.34v-3.45l-0.01-3.41v-0.76l-0.01-2.62v-3.49l-0.01-0.76v-2.54l-0.01-3.55v-0.79L9.16,191.84
			z"/>
		<path class="st0" d="M14.38,203.17l0.01,4.79l0.01,1.39v0.67l0.01,4.8v2.07l0.01,4.81l0.01,1.24v0.81l0.01,4.82v2.04l0.01,4.82
			l0.01,1.1v0.94l0.01,4.83v2.02l0.01,4.85v0.95l0.01,1.06l2.2-1c0.05-0.02,0.09-0.04,0.14-0.07l3.71-1.7l3.64-1.67l2.41-1.1v-0.01
			l5.08-2.33l-0.06-0.02h0.12l0.91-0.42l6.05-2.78c0.16-0.07,0.31-0.14,0.47-0.22h0.01l5.58-2.56l1.87-0.85l0.03-0.01l4.15-1.9
			l3.35-1.53l2.71-1.24l4.64-2.13l0.13-0.06l1.27-0.58l6.05-2.78v-0.16l-6.06-2.78l-0.97-0.45c-0.1-0.04-0.2-0.08-0.3-0.13
			l-4.79-2.2l-2.69-1.23l-3.37-1.54l-3.64-1.67c-0.16-0.07-0.32-0.15-0.49-0.22l-1.93-0.88l-5.55-2.55
			c-0.17-0.08-0.34-0.15-0.51-0.23l-6.06-2.78l-0.21-0.1h-0.01c-0.23-0.1-0.47-0.21-0.7-0.31l-5.13-2.36l-2.36-1.08l-3.69-1.7
			l-2.88-1.32l-0.91-0.42l-2.27-1.04V203.17z M24.14,212.43l2.37,1.09v0.01l5.12,2.34l0.54,0.25c0.13,0.06,0.26,0.12,0.39,0.18
			l6.06,2.78l0.49,0.22l5.56,2.55l1.93,0.88l0.35,0.16l3.79,1.74l3.35,1.53l-3.35,1.53v0.01l-4.14,1.89l0.19,0.09H46.4l-1.72,0.79
			l-5.58,2.56l-0.47,0.22l-6.06,2.78l-0.96,0.44l0.1,0.04l-0.2,0.01h-0.01l-4.98,2.28l-2.4,1.1l-3.65,1.68l-0.01-3.35v-1.69
			l-0.01-1.82l-0.01-3.35v-3.51l-0.01-3.36v-1.55l-0.01-1.95v-3.37l-0.01-1.47v-2.01l-0.01-3.38L24.14,212.43z"/>
	</g>
	<path class="st0" d="M36.55,226.21"/>
</g>
<g>
	<g>
		<path class="st0" d="M68.93,179.46c-0.14-0.06-0.27-0.12-0.41-0.18h-0.01l-0.53-0.25c-2.16-1.01-4.31-2.01-6.47-3.02
			c0.14-0.07,0.27-0.13,0.41-0.2c2.02-0.93,4.03-1.85,6.05-2.78l0.95-0.43l0.25-0.12h0.01l4.84-2.21l0.01,2.21v2.46l0.01,2.18v2.15
			l0.01,2.54L68.93,179.46z"/>
		<path class="st0" d="M98.34,220.39c-0.01-2.11-0.03-4.22-0.04-6.33v-0.53c0-0.11,0-0.21,0-0.32l-0.01-6.01v-0.55
			c0-0.08,0-0.16,0-0.25l-0.01-6.07v-0.55c0-0.06,0-0.11,0-0.17l-0.01-6.14v-0.56c0-0.03,0-0.06,0-0.1l-0.01-6.2v-0.57
			c-0.01-0.01-0.01-0.01-0.02-0.02c0-2.09,0-4.18,0.01-6.27v-0.58l-0.01-6.29v-0.58l-0.01-6.28l-0.01-0.4v-0.19l-0.01-6.27v-0.6
			l-0.01-6.26v-0.27l-0.01-0.34l-0.01-6.25v-0.62l-0.01-6.23v-0.64l-0.01-6.23l-6.04,2.78c-0.25,0.11-0.5,0.23-0.75,0.34h-0.01
			l-5.31,2.43l-2.17,1c-0.15,0.07-0.3,0.14-0.45,0.21l-3.42,1.56l-3.62,1.66l-2.43,1.11l-5.06,2.32c-0.12,0.05-0.24,0.11-0.35,0.16
			h-0.01l-0.63,0.29l-6.05,2.77c-0.15,0.07-0.3,0.14-0.45,0.21l-5.6,2.57l-1.89,0.87c-0.08,0.04-0.17,0.07-0.25,0.11l-3.91,1.8
			l-3.32,1.52l-2.73,1.25l-4.76,2.18c-0.06,0.03-0.12,0.05-0.19,0.08l-1.11,0.51l-6.05,2.78c-0.05,0.02-0.1,0.04-0.15,0.07h-0.01
			l-5.9,2.7l-1.58,0.73c-0.03,0.01-0.06,0.02-0.09,0.04l-4.38,2.01l-6.05,2.77v0.01l-4.45,2.04l-0.02,0.01l-1.59,0.73l-5.9,2.71
			l5.9,2.7v0.01l1.41,0.64c0.06,0.02,0.12,0.05,0.17,0.07l4.48,2.06l3.01,1.38l3.05,1.4l4.07,1.86c0.66,0.3,1.32,0.61,1.99,0.91
			l5.86,2.69h0.01c2.08,0.95,4.16,1.91,6.24,2.86l0.66,0.31c0.19,0.09,0.39,0.17,0.58,0.26l4.82,2.21l2.67,1.22l3.39,1.55v0.01
			l3.31,1.51c0.26,0.12,0.53,0.24,0.79,0.37l1.95,0.9l5.54,2.54c0.17,0.08,0.35,0.16,0.52,0.24l5.95,2.73h0.11
			c0.3,0.15,0.6,0.31,0.91,0.46l5.15,2.36l2.34,1.07l3.71,1.71l2.55,1.17c0.41,0.19,0.81,0.37,1.22,0.56l2.29,1.05l5.2,2.39
			c0.29,0.13,0.58,0.26,0.87,0.4l5.2,2.39h0.01C97.75,220.14,98.04,220.26,98.34,220.39z M91.39,210.36l-5.21-2.39l-2.27-1.04
			l-1.07-0.49c-0.9-0.41-1.8-0.83-2.71-1.24l-3.71-1.7l-2.35-1.08l-5.14-2.36l-0.86-0.39h-0.05v-0.03l-6.06-2.78l-0.51-0.24
			l-5.54-2.54l-1.95-0.9h-0.01l-0.63-0.29h-0.01l-3.47-1.59l-3.38-1.55l-2.68-1.23l-4.81-2.21l-0.43-0.19
			c-0.27-0.12-0.54-0.25-0.81-0.37l-6.06-2.78l-0.17-0.08h-0.01l-5.87-2.69L24,179.46l-0.23-0.1h-0.01l-4.21-1.93l-3.04-1.39
			l3.03-1.39L24,172.6l-0.07-0.04h0.15l1.52-0.7l5.89-2.7l0.15-0.07l6.06-2.78c0.42-0.19,0.84-0.38,1.25-0.58l0.02-0.01h0.01
			l4.77-2.18l2.72-1.24l3.33-1.53l4.05-1.86l0.11-0.05l1.89-0.87l5.59-2.57h0.01l0.45-0.2l6.06-2.78c0.32-0.15,0.65-0.3,0.97-0.45
			h0.01l5.07-2.33l2.42-1.11l3.63-1.66l3.57-1.64l0.29-0.13l2.19-1l5.3-2.43l0.75-0.34v0.69l0.01,3.21l0.01,2.96v0.7l0.01,3.14v3.74
			l0.01,3.06l0.01,3.08v3.71l0.01,3.15v0.73l0.01,2.91l0.01,3.22v3.58l0.01,3.28v0.75l0.01,2.77l0.01,3.34v3.45l0.01,3.41v0.76
			l0.01,2.62v3.49l0.01,0.76v2.54l0.01,3.55v0.79L91.39,210.36z"/>
		<path class="st0" d="M86.17,199.02l-0.01-4.79l-0.01-1.39v-0.67l-0.01-4.8v-2.07l-0.01-4.81l-0.01-1.24v-0.81l-0.01-4.82v-2.04
			l-0.01-4.82l-0.01-1.1v-0.94l-0.01-4.83v-2.02l-0.01-4.85v-0.95L86.1,151l-2.2,1c-0.05,0.02-0.09,0.04-0.14,0.07l-3.71,1.7
			l-3.64,1.67l-2.41,1.1v0.01l-5.08,2.33l0.06,0.02h-0.12l-0.91,0.42l-6.05,2.78c-0.16,0.07-0.31,0.14-0.47,0.22h-0.01l-5.58,2.56
			l-1.87,0.85l-0.03,0.01l-4.15,1.9l-3.35,1.53l-2.71,1.24l-4.64,2.13l-0.13,0.06l-1.27,0.58l-6.05,2.78v0.16l6.06,2.78l0.97,0.45
			c0.1,0.04,0.2,0.08,0.3,0.13l4.79,2.2l2.69,1.23l3.37,1.54l3.64,1.67c0.16,0.07,0.32,0.15,0.49,0.22l1.93,0.88l5.55,2.55
			c0.17,0.08,0.34,0.15,0.51,0.23l6.06,2.78l0.21,0.1h0.01c0.23,0.1,0.47,0.21,0.7,0.31l5.13,2.36l2.36,1.08l3.69,1.7l2.88,1.32
			l0.91,0.42l2.27,1.04V199.02z M76.41,189.76l-2.37-1.09v-0.01l-5.12-2.34l-0.54-0.25c-0.13-0.06-0.26-0.12-0.39-0.18l-6.06-2.78
			l-0.49-0.22l-5.56-2.55l-1.93-0.88l-0.35-0.16l-3.79-1.74l-3.35-1.53l3.35-1.53v-0.01l4.14-1.89l-0.19-0.09h0.39l1.72-0.79
			l5.58-2.56l0.47-0.22l6.06-2.78l0.96-0.44l-0.1-0.04l0.2-0.01h0.01l4.98-2.28l2.4-1.1l3.65-1.68l0.01,3.35v1.69l0.01,1.82
			l0.01,3.35v3.51l0.01,3.36v1.55l0.01,1.95v3.37l0.01,1.47v2.01l0.01,3.38L76.41,189.76z"/>
	</g>
	<path class="st0" d="M64,175.98"/>
</g>
<g>
	<g>
		<path class="st0" d="M31.62,122.52c0.14,0.06,0.27,0.12,0.41,0.18h0.01l0.53,0.25c2.16,1.01,4.31,2.01,6.47,3.02
			c-0.14,0.07-0.27,0.13-0.41,0.2c-2.02,0.93-4.03,1.85-6.05,2.78l-0.95,0.43l-0.25,0.12h-0.01l-4.84,2.21l-0.01-2.21v-2.46
			l-0.01-2.18v-2.15l-0.01-2.54L31.62,122.52z"/>
		<path class="st0" d="M2.21,81.59c0.01,2.11,0.03,4.22,0.04,6.33v0.53c0,0.11,0,0.21,0,0.32l0.01,6.01v0.55c0,0.08,0,0.16,0,0.25
			l0.01,6.07v0.55c0,0.06,0,0.11,0,0.17l0.01,6.14v0.56c0,0.03,0,0.06,0,0.1l0.01,6.2v0.57c0.01,0.01,0.01,0.01,0.02,0.02
			c0,2.09,0,4.18-0.01,6.27v0.58l0.01,6.29v0.58l0.01,6.28l0.01,0.4v0.19l0.01,6.27v0.6l0.01,6.26v0.27l0.01,0.34l0.01,6.25v0.62
			l0.01,6.23v0.64l0.01,6.23l6.04-2.78c0.25-0.11,0.5-0.23,0.75-0.34h0.01l5.31-2.43l2.17-1c0.15-0.07,0.3-0.14,0.45-0.21l3.42-1.56
			l3.62-1.66l2.43-1.11l5.06-2.32c0.12-0.05,0.24-0.11,0.35-0.16h0.01l0.63-0.29l6.05-2.77c0.15-0.07,0.3-0.14,0.45-0.21l5.6-2.57
			l1.89-0.87c0.08-0.04,0.17-0.07,0.25-0.11l3.91-1.8l3.32-1.52l2.73-1.25l4.76-2.18c0.06-0.03,0.12-0.05,0.19-0.08l1.11-0.51
			l6.05-2.78c0.05-0.02,0.1-0.04,0.15-0.07h0.01l5.9-2.7l1.58-0.73c0.03-0.01,0.06-0.02,0.09-0.04l4.38-2.01l6.05-2.77v-0.01
			l4.45-2.04l0.02-0.01l1.59-0.73l5.9-2.71l-5.9-2.7v-0.01l-1.41-0.64c-0.06-0.02-0.12-0.05-0.17-0.07l-4.48-2.06l-3.01-1.38
			l-3.05-1.4l-4.07-1.86c-0.66-0.3-1.32-0.61-1.99-0.91l-5.86-2.69h-0.01c-2.08-0.95-4.16-1.91-6.24-2.86l-0.66-0.31
			c-0.19-0.09-0.39-0.17-0.58-0.26l-4.82-2.21l-2.67-1.22l-3.39-1.55v-0.01l-3.31-1.51c-0.26-0.12-0.53-0.24-0.79-0.37l-1.95-0.9
			l-5.54-2.54c-0.17-0.08-0.35-0.16-0.52-0.24l-5.95-2.73h-0.11c-0.3-0.15-0.6-0.31-0.91-0.46l-5.15-2.36l-2.34-1.07l-3.71-1.71
			l-2.55-1.17c-0.41-0.19-0.81-0.37-1.22-0.56l-2.29-1.05l-5.2-2.39c-0.29-0.13-0.58-0.26-0.87-0.4l-5.2-2.39H3.09
			C2.8,81.85,2.51,81.72,2.21,81.59z M9.16,91.63l5.21,2.39l2.27,1.04l1.07,0.49c0.9,0.41,1.8,0.83,2.71,1.24l3.71,1.7l2.35,1.08
			l5.14,2.36l0.86,0.39h0.05v0.03l6.06,2.78l0.51,0.24l5.54,2.54l1.95,0.9h0.01l0.63,0.29h0.01l3.47,1.59l3.38,1.55l2.68,1.23
			l4.81,2.21l0.43,0.19c0.27,0.12,0.54,0.25,0.81,0.37l6.06,2.78l0.17,0.08h0.01l5.87,2.69l1.61,0.74l0.23,0.1h0.01l4.21,1.93
			l3.04,1.39L81,127.34l-4.45,2.04l0.07,0.04h-0.15l-1.52,0.7l-5.89,2.7l-0.15,0.07l-6.06,2.78c-0.42,0.19-0.84,0.38-1.25,0.58
			l-0.02,0.01h-0.01l-4.77,2.18l-2.72,1.24l-3.33,1.53l-4.05,1.86l-0.11,0.05l-1.89,0.87l-5.59,2.57h-0.01l-0.45,0.2l-6.06,2.78
			c-0.32,0.15-0.65,0.3-0.97,0.45h-0.01l-5.07,2.33l-2.42,1.11l-3.63,1.66l-3.57,1.64l-0.29,0.13l-2.19,1l-5.3,2.43l-0.75,0.34
			v-0.69l-0.01-3.21l-0.01-2.96v-0.7l-0.01-3.14v-3.74l-0.01-3.06l-0.01-3.08v-3.71l-0.01-3.15v-0.73l-0.01-2.91l-0.01-3.22v-3.58
			l-0.01-3.28v-0.75l-0.01-2.77l-0.01-3.34v-3.45l-0.01-3.41v-0.76l-0.01-2.62v-3.49l-0.01-0.76v-2.54l-0.01-3.55v-0.79L9.16,91.63z
			"/>
		<path class="st0" d="M14.38,102.96l0.01,4.79l0.01,1.39v0.67l0.01,4.8v2.07l0.01,4.81l0.01,1.24v0.81l0.01,4.82v2.04l0.01,4.82
			l0.01,1.1v0.94l0.01,4.83v2.02l0.01,4.85v0.95l0.01,1.06l2.2-1c0.05-0.02,0.09-0.04,0.14-0.07l3.71-1.7l3.64-1.67l2.41-1.1v-0.01
			l5.08-2.33l-0.06-0.02h0.12l0.91-0.42l6.05-2.78c0.16-0.07,0.31-0.14,0.47-0.22h0.01l5.58-2.56l1.87-0.85l0.03-0.01l4.15-1.9
			l3.35-1.53l2.71-1.24l4.64-2.13l0.13-0.06l1.27-0.58l6.05-2.78v-0.16l-6.06-2.78l-0.97-0.45c-0.1-0.04-0.2-0.08-0.3-0.13
			l-4.79-2.2l-2.69-1.23l-3.37-1.54l-3.64-1.67c-0.16-0.07-0.32-0.15-0.49-0.22l-1.93-0.88l-5.55-2.55
			c-0.17-0.08-0.34-0.15-0.51-0.23l-6.06-2.78l-0.21-0.1h-0.01c-0.23-0.1-0.47-0.21-0.7-0.31l-5.13-2.36l-2.36-1.08l-3.69-1.7
			l-2.88-1.32l-0.91-0.42l-2.27-1.04V102.96z M24.14,112.22l2.37,1.09v0.01l5.12,2.34l0.54,0.25c0.13,0.06,0.26,0.12,0.39,0.18
			l6.06,2.78l0.49,0.22l5.56,2.55l1.93,0.88l0.35,0.16l3.79,1.74l3.35,1.53l-3.35,1.53v0.01l-4.14,1.89l0.19,0.09H46.4l-1.72,0.79
			l-5.58,2.56l-0.47,0.22l-6.06,2.78l-0.96,0.44l0.1,0.04l-0.2,0.01h-0.01l-4.98,2.28l-2.4,1.1l-3.65,1.68L20.49,138v-1.69
			l-0.01-1.82l-0.01-3.35v-3.51l-0.01-3.36v-1.55l-0.01-1.95v-3.37l-0.01-1.47v-2.01l-0.01-3.38L24.14,112.22z"/>
	</g>
	<path class="st0" d="M36.55,126"/>
</g>
<g>
	<g>
		<path class="st0" d="M68.93,79.25c-0.14-0.06-0.27-0.12-0.41-0.18h-0.01l-0.53-0.25c-2.16-1.01-4.31-2.01-6.47-3.02
			c0.14-0.07,0.27-0.13,0.41-0.2c2.02-0.93,4.03-1.85,6.05-2.78l0.95-0.43l0.25-0.12h0.01l4.84-2.21l0.01,2.21v2.46l0.01,2.18v2.15
			l0.01,2.54L68.93,79.25z"/>
		<path class="st0" d="M98.34,120.18c-0.01-2.11-0.03-4.22-0.04-6.33v-0.53c0-0.11,0-0.21,0-0.32l-0.01-6.01v-0.55
			c0-0.08,0-0.16,0-0.25l-0.01-6.07v-0.55c0-0.06,0-0.11,0-0.17l-0.01-6.14V92.7c0-0.03,0-0.06,0-0.1l-0.01-6.2v-0.57
			c-0.01-0.01-0.01-0.01-0.02-0.02c0-2.09,0-4.18,0.01-6.27v-0.58l-0.01-6.29v-0.58l-0.01-6.28l-0.01-0.4v-0.19l-0.01-6.27v-0.6
			l-0.01-6.26v-0.27l-0.01-0.34l-0.01-6.25v-0.62l-0.01-6.23v-0.64l-0.01-6.23l-6.04,2.78c-0.25,0.11-0.5,0.23-0.75,0.34h-0.01
			l-5.31,2.43l-2.17,1c-0.15,0.07-0.3,0.14-0.45,0.21l-3.42,1.56l-3.62,1.66l-2.43,1.11l-5.06,2.32c-0.12,0.05-0.24,0.11-0.35,0.16
			h-0.01l-0.63,0.29l-6.05,2.77c-0.15,0.07-0.3,0.14-0.45,0.21l-5.6,2.57l-1.89,0.87c-0.08,0.04-0.17,0.07-0.25,0.11l-3.91,1.8
			l-3.32,1.52l-2.73,1.25l-4.76,2.18c-0.06,0.03-0.12,0.05-0.19,0.08l-1.11,0.51l-6.05,2.78c-0.05,0.02-0.1,0.04-0.15,0.07h-0.01
			l-5.9,2.7l-1.58,0.73c-0.03,0.01-0.06,0.02-0.09,0.04l-4.38,2.01l-6.05,2.77v0.01l-4.45,2.04l-0.02,0.01l-1.59,0.73l-5.9,2.71
			l5.9,2.7v0.01l1.41,0.64c0.06,0.02,0.12,0.05,0.17,0.07l4.48,2.06l3.01,1.38l3.05,1.4l4.07,1.86c0.66,0.3,1.32,0.61,1.99,0.91
			l5.86,2.69h0.01c2.08,0.95,4.16,1.91,6.24,2.86l0.66,0.31c0.19,0.09,0.39,0.17,0.58,0.26l4.82,2.21l2.67,1.22l3.39,1.55v0.01
			l3.31,1.51c0.26,0.12,0.53,0.24,0.79,0.37l1.95,0.9l5.54,2.54c0.17,0.08,0.35,0.16,0.52,0.24l5.95,2.73h0.11
			c0.3,0.15,0.6,0.31,0.91,0.46l5.15,2.36l2.34,1.07l3.71,1.71l2.55,1.17c0.41,0.19,0.81,0.37,1.22,0.56l2.29,1.05l5.2,2.39
			c0.29,0.13,0.58,0.26,0.87,0.4l5.2,2.39h0.01C97.75,119.93,98.04,120.05,98.34,120.18z M91.39,110.15l-5.21-2.39l-2.27-1.04
			l-1.07-0.49c-0.9-0.41-1.8-0.83-2.71-1.24l-3.71-1.7l-2.35-1.08l-5.14-2.36l-0.86-0.39h-0.05v-0.03l-6.06-2.78l-0.51-0.24
			l-5.54-2.54l-1.95-0.9h-0.01l-0.63-0.29h-0.01l-3.47-1.59l-3.38-1.55l-2.68-1.23l-4.81-2.21l-0.43-0.19
			c-0.27-0.12-0.54-0.25-0.81-0.37l-6.06-2.78l-0.17-0.08h-0.01l-5.87-2.69L24,79.25l-0.23-0.1h-0.01l-4.21-1.93l-3.04-1.39
			l3.03-1.39L24,72.39l-0.07-0.04h0.15l1.52-0.7l5.89-2.7l0.15-0.07l6.06-2.78c0.42-0.19,0.84-0.38,1.25-0.58l0.02-0.01h0.01
			l4.77-2.18l2.72-1.24l3.33-1.53l4.05-1.86l0.11-0.05l1.89-0.87l5.59-2.57h0.01l0.45-0.2l6.06-2.78c0.32-0.15,0.65-0.3,0.97-0.45
			h0.01l5.07-2.33l2.42-1.11l3.63-1.66l3.57-1.64l0.29-0.13l2.19-1l5.3-2.43l0.75-0.34v0.69l0.01,3.21L92.15,48v0.7l0.01,3.14v3.74
			l0.01,3.06l0.01,3.08v3.71l0.01,3.15v0.73l0.01,2.91l0.01,3.22v3.58l0.01,3.28v0.75l0.01,2.77l0.01,3.34v3.45l0.01,3.41v0.76
			l0.01,2.62v3.49l0.01,0.76v2.54l0.01,3.55v0.79L91.39,110.15z"/>
		<path class="st0" d="M86.17,98.81l-0.01-4.79l-0.01-1.39v-0.67l-0.01-4.8v-2.07l-0.01-4.81l-0.01-1.24v-0.81l-0.01-4.82v-2.04
			l-0.01-4.82l-0.01-1.1V64.5l-0.01-4.83v-2.02L86.1,52.8v-0.95l-0.01-1.06l-2.2,1c-0.05,0.02-0.09,0.04-0.14,0.07l-3.71,1.7
			l-3.64,1.67l-2.41,1.1v0.01l-5.08,2.33l0.06,0.02h-0.12l-0.91,0.42l-6.05,2.78c-0.16,0.07-0.31,0.14-0.47,0.22h-0.01l-5.58,2.56
			l-1.87,0.85l-0.03,0.01l-4.15,1.9l-3.35,1.53l-2.71,1.24l-4.64,2.13l-0.13,0.06l-1.27,0.58l-6.05,2.78v0.16l6.06,2.78l0.97,0.45
			c0.1,0.04,0.2,0.08,0.3,0.13l4.79,2.2l2.69,1.23l3.37,1.54l3.64,1.67c0.16,0.07,0.32,0.15,0.49,0.22L55.89,87l5.55,2.55
			c0.17,0.08,0.34,0.15,0.51,0.23L68,92.56l0.21,0.1h0.01c0.23,0.1,0.47,0.21,0.7,0.31l5.13,2.36l2.36,1.08l3.69,1.7l2.88,1.32
			l0.91,0.42l2.27,1.04V98.81z M76.41,89.55l-2.37-1.09v-0.01l-5.12-2.34l-0.54-0.25c-0.13-0.06-0.26-0.12-0.39-0.18l-6.06-2.78
			l-0.49-0.22l-5.56-2.55l-1.93-0.88l-0.35-0.16l-3.79-1.74l-3.35-1.53l3.35-1.53v-0.01l4.14-1.89l-0.19-0.09h0.39l1.72-0.79
			l5.58-2.56l0.47-0.22l6.06-2.78l0.96-0.44l-0.1-0.04l0.2-0.01h0.01l4.98-2.28l2.4-1.1l3.65-1.68l0.01,3.35v1.69l0.01,1.82
			l0.01,3.35v3.51l0.01,3.36v1.55L80.09,81v3.37l0.01,1.47v2.01l0.01,3.38L76.41,89.55z"/>
	</g>
	<path class="st0" d="M64,75.77"/>
</g>
<g>
	<path class="st1" d="M64.67,468.84"/>
</g>
<path class="st1" d="M87.5,533.76"/>
</svg>
