<?xml version="1.0" encoding="utf-8"?>
<!-- Generator: Adobe Illustrator 27.3.1, SVG Export Plug-In . SVG Version: 6.00 Build 0)  -->
<svg version="1.1" id="Layer_1" xmlns="http://www.w3.org/2000/svg" xmlns:xlink="http://www.w3.org/1999/xlink" x="0px" y="0px"
	 viewBox="0 0 1080 2100" style="enable-background:new 0 0 1080 2100;" xml:space="preserve">
<style type="text/css">
	.st0{fill:#111111;}
</style>
<g>
	<g>
		<path class="st0" d="M594.78,346.77c-0.89,2.01-1.78,4.03-2.67,6.04v0.1l-3.78,7.93c-14.98,32.05-29.96,64.1-44.94,96.16
			c-0.97-2.03-1.93-4.05-2.9-6.08c-13.76-29.99-27.52-59.99-41.28-89.98l-6.45-14.17l-1.78-3.67v-0.1l-32.94-71.94l32.82-0.1h36.61
			l32.49-0.1h31.93l37.72-0.1L594.78,346.77z"/>
		<path class="st0" d="M983.03,46.83c-20.92,0.13-41.85,0.25-62.77,0.38H915c-1.06,0-2.13,0-3.19,0l-59.57,0.13h-5.42
			c-0.82,0-1.63,0-2.45,0l-60.17,0.07h-5.49c-0.57,0-1.14,0-1.71,0l-60.84,0.13h-5.56c-0.32,0-0.64,0-0.96,0l-61.5,0.06h-5.64
			c-0.07,0.07-0.15,0.13-0.22,0.2c-20.72-0.02-41.45-0.05-62.17-0.07h-5.71l-62.32,0.07h-5.79l-62.25,0.06l-3.93,0.07h-1.93L376,48
			h-5.94l-62.1,0.07h-2.67l-3.41,0.07l-61.95,0.07h-6.16l-61.8,0.07h-6.31l-61.8,0.13l27.52,59.93c1.14,2.47,2.28,4.93,3.41,7.4
			v0.07l24.11,52.6l9.87,21.54c0.69,1.5,1.38,3,2.08,4.49l15.51,33.9l16.47,35.88l11.05,24.05l23,50.15
			c0.54,1.17,1.09,2.33,1.63,3.5v0.07l2.89,6.28l27.45,60c0.69,1.48,1.38,2.95,2.08,4.43l25.45,55.57l8.61,18.7
			c0.37,0.84,0.74,1.67,1.11,2.51l17.81,38.72l15.06,32.91l12.39,27.03l21.66,47.18c0.27,0.62,0.54,1.23,0.82,1.85l5.05,10.97
			l27.52,60c0.22,0.48,0.45,0.97,0.67,1.45v0.07l26.78,58.48l7.2,15.66c0.12,0.29,0.25,0.57,0.37,0.86l19.96,43.41l27.45,60h0.07
			l20.18,44.07l0.07,0.2l7.2,15.73l26.86,58.48l26.78-58.54h0.07l6.38-14.01c0.25-0.57,0.49-1.15,0.74-1.72l20.4-44.4l13.65-29.8
			l13.87-30.2l18.47-40.37c3.02-6.56,6.03-13.13,9.05-19.69l26.71-58.15v-0.07c9.45-20.64,18.89-41.28,28.34-61.91l3.04-6.54
			c0.87-1.92,1.73-3.83,2.6-5.75l21.96-47.77l12.09-26.43l15.36-33.57h0.07l14.99-32.84c1.21-2.62,2.42-5.24,3.64-7.86l8.9-19.36
			l25.15-54.91c0.79-1.72,1.58-3.44,2.37-5.15l27.08-59v-1.06c1.53-3,3.07-5.99,4.6-8.99l23.37-51.08l10.61-23.19l16.92-36.8
			l11.57-25.31c1.85-4.03,3.71-8.06,5.56-12.09l10.39-22.66l23.67-51.54c1.31-2.86,2.62-5.73,3.93-8.59l23.67-51.54v-0.07
			C980.51,52.63,981.77,49.73,983.03,46.83z M883.54,115.73l-23.67,51.67l-10.31,22.53l-4.9,10.64
			c-4.11,8.94-8.21,17.88-12.32,26.83l-16.84,36.8l-10.68,23.26l-23.37,50.94l-3.86,8.52v0.53h-0.3l-27.52,60.13l-2.37,5.09
			l-25.15,54.91l-8.9,19.3v0.07l-2.89,6.21v0.13l-15.73,34.36l-15.36,33.5l-12.17,26.56l-21.89,47.64l-1.93,4.29
			c-1.24,2.69-2.47,5.37-3.71,8.06l-27.6,60.13l-0.82,1.72v0.07l-26.71,58.21l-7.34,15.99l-1.04,2.25v0.06l-19.14,41.76l-13.8,30.13
			l-13.8-30.06l-20.25-44.14l-0.37,0.66v-1.45l-6.9-15.07l-26.78-58.41l-0.67-1.52l-27.52-60.06c-1.9-4.14-3.81-8.28-5.71-12.42
			l-0.15-0.2v-0.07l-21.66-47.24l-12.32-26.96l-15.14-32.97L373.56,488l-0.52-1.12l-8.61-18.77l-25.45-55.44v-0.06l-2-4.43
			l-27.52-60.06c-1.48-3.22-2.97-6.43-4.45-9.65v-0.06l-23.07-50.22l-10.98-23.98l-16.47-35.95l-16.25-35.42l-1.34-2.91l-9.94-21.67
			l-24.11-52.6l-3.41-7.4h6.83l31.83-0.07l29.31-0.07h6.97l31.09-0.07h37.1l30.34-0.07l30.57-0.07h36.8l31.23-0.07h7.27l28.86-0.07
			l31.9-0.07h35.46l32.57-0.07h7.42l27.45-0.07l33.16-0.07h34.2l33.83-0.07h7.57l25.97-0.06h34.57l7.57-0.07h25.22l35.17-0.06h7.79
			L883.54,115.73z"/>
		<path class="st0" d="M771.14,167.47l-47.48,0.07l-13.8,0.07h-6.68l-47.63,0.07h-20.48l-47.7,0.07l-12.32,0.07h-8.01l-47.78,0.07
			h-20.25l-47.78,0.07L440.33,168h-9.35l-47.93,0.07h-20.03l-48.08,0.07h-9.42l-10.54,0.06l9.94,21.81
			c0.22,0.46,0.45,0.92,0.67,1.39l16.84,36.74l16.54,36.08l10.91,23.85h0.07l23.07,50.41l0.22-0.59v1.19l4.15,8.99l27.52,60
			c0.72,1.54,1.43,3.08,2.15,4.62v0.07l25.37,55.3l8.46,18.5l0.15,0.33l18.84,41.1l15.21,33.17l12.32,26.83l21.14,46.05l0.59,1.32
			l5.71,12.55l27.52,60h1.56l27.52-60.06l4.45-9.58c0.42-0.99,0.84-1.98,1.26-2.97l21.81-47.51l12.24-26.63l15.28-33.37l16.54-36.08
			c0.74-1.61,1.48-3.22,2.23-4.82l8.75-19.16l25.3-55.04c0.77-1.67,1.53-3.35,2.3-5.02l27.52-60.06l1.04-2.11v-0.13
			c1.04-2.31,2.08-4.62,3.12-6.94l23.37-50.88l10.68-23.39l16.84-36.6l13.06-28.55l4.15-9.05l10.31-22.47H771.14z M679.37,264.2
			l-10.76,23.46h-0.07l-23.22,50.75l-2.45,5.35c-0.59,1.3-1.19,2.6-1.78,3.9l-27.6,60.13l-2.23,4.89l-25.3,55.11l-8.75,19.1
			l-1.56,3.43l-17.21,37.53l-15.21,33.24l-15.21-33.17h-0.07l-18.77-41.03l-0.89,1.91v-3.83l-7.79-17.05l-25.37-55.3l-2.15-4.63
			l-27.52-60.06l-4.38-9.51l-0.37,0.99l-0.07-1.98v-0.07L418,287.99l-10.91-23.79l-16.62-36.14l33.24-0.06h16.77l18.03-0.07
			l33.24-0.06h34.8l33.31-0.07h15.36l19.36-0.06h33.46l14.62-0.07h19.96l33.53-0.06L679.37,264.2z"/>
	</g>
	<path class="st0" d="M542.75,387.27"/>
</g>
<path class="st0" d="M322.89,927.63h-32.92l-20.72,0.08h-32.4l-27.48,0.08h-19.84l-0.18-71v-32.61l-0.09-28.07
	c0-3.44,0-6.88,0-10.32l-0.18-71L189,643.7c0.01-1.26,0.02-2.53,0.03-3.79c12.08,24.96,24.16,49.91,36.23,74.87l0.61,1.41
	l31.96,69.52l8.34,18.22l2.81,6.26l21.34,46.45l16.15,35.11v0.08L322.89,927.63z"/>
<path class="st0" d="M449.77,953.54l-5.87-12.73l-0.52-1.22l-17.81-38.82l-12.14-26.44v-0.06l-12.07-26.21l-16.96-36.96v-0.06
	l-0.91-2.03l-6.26-13.71l-23.69-51.55l-0.52-1.16l-24.21-52.82c-1.3-2.87-2.61-5.73-3.91-8.6l-1.24-2.67v-0.06l-18.99-41.38
	l-10.96-23.83l-13.25-28.88l-15.07-32.89l-1.63-3.54l-7.44-16.33l-22.51-48.99l-1.7-3.72l-24.21-52.82
	c-1.35-2.93-2.7-5.85-4.05-8.78l-20.1-43.93l-9.79-21.33l-14.42-31.44l-13.12-28.59l-2.41-5.23l-8.68-18.89l-21.27-46.43l-2.87-6.33
	l-24.21-52.77h-0.07l0.13,52.77l0.07,52.82l0.07,12.26v13.25l0.07,27.25l0.06,52.77l0.07,36.78l0.07,14.24c0,0.58,0,1.16,0,1.74
	l0.07,52.82l0.13,52.77c0,2.83,0,5.66,0,8.48l0.06,24.29v19.99l0.13,52.77v33.01l0.07,19.76v14.7l0.07,38.12l0.13,52.77
	c0,1.57,0,3.14,0,4.71l0.07,44.51c0,1.18,0,2.36,0,3.55l0.13,52.77l0.07,29.29v23.54l0.07,31.09l0.07,21.68h24.73l34.52-0.06
	l14.62-0.06h10.77l33.86-0.06h26.03l33.21-0.06l24.08-0.06h2.61l32.56-0.06h27.34c0.48,0,0.96,0,1.44,0l30.54-0.06l27.93-0.06
	c0.46,0,0.91,0,1.37,0h29.95l28.64-0.06c1,0.01,2,0.02,3,0.02C467.03,988.73,458.4,971.14,449.77,953.54z M377.02,962.38
	l-46.91,0.06h-4.76l-8.22,0.06l-50.96,0.06h-8.94l-50.37,0.06c-1.57,0-3.13,0-4.7,0l-4.83,0.06l-49.72,0.06v-22.08l-0.07-30.74
	l-0.13-52.76v-13.89l-0.07-32.72v-6.16l-0.13-52.76l-0.07-48.58c0-1.41,0-2.83,0-4.24l-0.07-18.36v-34.4l-0.13-52.76l-0.07-30.34
	c0-4.18,0-8.37,0-12.55v-9.88l-0.13-52.77l-0.07-52.82c0-1.01,0-2.01,0-3.02c0.46,1.01,0.91,2.01,1.37,3.02l24.21,52.76
	c0.57,1.22,1.13,2.44,1.7,3.66v0.06l22.45,49.05c3.24,7.05,6.48,14.1,9.72,21.15l14.49,31.56l13.18,28.82l10.96,23.88l18.99,41.38
	c0.63,1.38,1.26,2.75,1.89,4.13l3.33,7.26l24.21,52.77c0.17,0.37,0.35,0.74,0.52,1.1v0.06l23.62,51.6h0.07l6.2,13.6
	c0.5,1.1,1,2.21,1.5,3.31l16.44,35.8l12.01,26.21l12.14,26.5h0.07c8.29,17.61,16.59,35.23,24.88,52.84
	C386.08,962.39,381.55,962.38,377.02,962.38z"/>
<path class="st0" d="M758.69,924.63h32.23l20.28,0.08h31.71l26.9,0.07h19.42l0.17-69.5v-31.92l0.09-27.48c0-3.37,0-6.74,0-10.1
	l0.17-69.5l0.09-69.58c-0.01-1.24-0.02-2.47-0.03-3.71c-11.82,24.43-23.64,48.86-35.47,73.29l-0.6,1.38l-31.28,68.05l-8.16,17.83
	l-2.75,6.12l-20.88,45.47l-15.81,34.37v0.08L758.69,924.63z"/>
<path class="st0" d="M604.92,1006.33c1-0.01,2-0.02,3-0.02l28.64,0.06h29.95c0.46,0,0.91,0,1.37,0l27.93,0.06l30.54,0.06
	c0.48,0,0.96,0,1.44,0h27.34l32.56,0.06h2.61l24.08,0.06l33.21,0.06h26.03l33.86,0.06h10.77l14.62,0.06l34.52,0.06h24.73l0.07-21.68
	l0.07-31.09v-23.54l0.07-29.29l0.13-52.77c0-1.18,0-2.36,0-3.55l0.07-44.51c0-1.57,0-3.14,0-4.71l0.13-52.77l0.07-38.12v-14.7
	l0.07-19.76v-33.01l0.13-52.77V564.6l0.06-24.29c0-2.83,0-5.66,0-8.48l0.13-52.77l0.07-52.82c0-0.58,0-1.16,0-1.74l0.07-14.24
	l0.07-36.78l0.06-52.77l0.07-27.25V280.2l0.07-12.26l0.07-52.82l0.13-52.77h-0.07l-24.21,52.77l-2.87,6.33l-21.27,46.43l-8.68,18.89
	l-2.41,5.23l-13.12,28.59l-14.42,31.44l-9.79,21.33l-20.1,43.93c-1.35,2.93-2.7,5.85-4.05,8.78l-24.21,52.82l-1.7,3.72l-22.51,48.99
	l-7.44,16.33l-1.63,3.54l-15.07,32.89l-13.25,28.88l-10.96,23.83l-18.99,41.38v0.06l-1.24,2.67c-1.3,2.87-2.61,5.73-3.91,8.6
	l-24.21,52.82l-0.52,1.16l-23.69,51.55l-6.26,13.71l-0.91,2.03v0.06l-16.96,36.96l-12.07,26.21v0.06l-12.14,26.44l-17.81,38.82
	l-0.52,1.22l-5.87,12.73C622.18,971.14,613.55,988.73,604.92,1006.33z M689.98,962.4c8.29-17.61,16.59-35.23,24.88-52.84h0.07
	l12.14-26.5l12.01-26.21l16.44-35.8c0.5-1.1,1-2.21,1.5-3.31l6.2-13.6h0.07l23.62-51.6v-0.06c0.17-0.37,0.35-0.74,0.52-1.1
	l24.21-52.77l3.33-7.26c0.63-1.38,1.26-2.75,1.89-4.13l18.99-41.38l10.96-23.88l13.18-28.82l14.49-31.56
	c3.24-7.05,6.48-14.1,9.72-21.15l22.45-49.05v-0.06c0.57-1.22,1.13-2.44,1.7-3.66l24.21-52.76c0.46-1.01,0.91-2.01,1.37-3.02
	c0,1.01,0,2.01,0,3.02l-0.07,52.82l-0.13,52.77v9.88c0,4.18,0,8.37,0,12.55l-0.07,30.34l-0.13,52.76v34.4l-0.07,18.36
	c0,1.41,0,2.83,0,4.24l-0.07,48.58l-0.13,52.76v6.16l-0.07,32.72v13.89l-0.13,52.76l-0.07,30.74v22.08l-49.72-0.06l-4.83-0.06
	c-1.57,0-3.13,0-4.7,0l-50.37-0.06h-8.94l-50.96-0.06l-8.22-0.06h-4.76l-46.91-0.06C699.04,962.38,694.51,962.39,689.98,962.4z"/>
<g>
	<g>
		<path class="st0" d="M594.41,1396.42c-0.93,2.11-1.87,4.22-2.8,6.34v0.1l-3.97,8.31c-15.71,33.61-31.42,67.22-47.12,100.82
			c-1.01-2.12-2.03-4.25-3.04-6.37c-14.43-31.45-28.86-62.9-43.28-94.35l-6.77-14.86l-1.87-3.85v-0.1l-34.53-75.44l34.42-0.1h38.38
			l34.07-0.1h33.48l39.55-0.1L594.41,1396.42z"/>
		<path class="st0" d="M983.03,1092.83c-20.92,0.13-41.85,0.25-62.77,0.38H915c-1.06,0-2.13,0-3.19,0l-59.57,0.13h-5.42
			c-0.82,0-1.63,0-2.45,0l-60.17,0.07h-5.49c-0.57,0-1.14,0-1.71,0l-60.84,0.13h-5.56c-0.32,0-0.64,0-0.96,0l-61.5,0.06h-5.64
			c-0.07,0.07-0.15,0.13-0.22,0.2c-20.72-0.02-41.45-0.05-62.17-0.07h-5.71l-62.32,0.07h-5.79l-62.25,0.06l-3.93,0.07h-1.93
			L376,1094h-5.94l-62.1,0.07h-2.67l-3.41,0.07l-61.95,0.07h-6.16l-61.8,0.07h-6.31l-61.8,0.13l27.52,59.93
			c1.14,2.47,2.28,4.93,3.41,7.4v0.07l24.11,52.6l9.87,21.54c0.69,1.5,1.38,3,2.08,4.49l15.51,33.9l16.47,35.88l11.05,24.05
			l23,50.15c0.54,1.17,1.09,2.33,1.63,3.5v0.07l2.89,6.28l27.45,60c0.69,1.48,1.38,2.95,2.08,4.43l25.45,55.57l8.61,18.7
			c0.37,0.84,0.74,1.67,1.11,2.51l17.81,38.72l15.06,32.91l12.39,27.03l21.66,47.18c0.27,0.62,0.54,1.23,0.82,1.85l5.05,10.97
			l27.52,60c0.22,0.48,0.45,0.97,0.67,1.45v0.07l26.78,58.48l7.2,15.66c0.12,0.29,0.25,0.57,0.37,0.86l19.96,43.41l27.45,60h0.07
			l20.18,44.07l0.07,0.2l7.2,15.73l26.86,58.48l26.78-58.54h0.07l6.38-14.01c0.25-0.57,0.49-1.15,0.74-1.72l20.4-44.4l13.65-29.8
			l13.87-30.2l18.47-40.37c3.02-6.56,6.03-13.13,9.05-19.69l26.71-58.15v-0.07c9.45-20.64,18.89-41.28,28.34-61.91l3.04-6.54
			c0.87-1.92,1.73-3.83,2.6-5.75l21.96-47.77l12.09-26.43l15.36-33.57h0.07l14.99-32.84c1.21-2.62,2.42-5.24,3.64-7.86l8.9-19.36
			l25.15-54.91c0.79-1.72,1.58-3.44,2.37-5.15l27.08-59v-1.06c1.53-3,3.07-5.99,4.6-8.99l23.37-51.08l10.61-23.19l16.92-36.8
			l11.57-25.31c1.85-4.03,3.71-8.06,5.56-12.09l10.39-22.66l23.67-51.54c1.31-2.86,2.62-5.73,3.93-8.59l23.67-51.54v-0.07
			C980.51,1098.63,981.77,1095.73,983.03,1092.83z M883.54,1161.73l-23.67,51.67l-10.31,22.53l-4.9,10.64
			c-4.11,8.94-8.21,17.88-12.32,26.83l-16.84,36.8l-10.68,23.26l-23.37,50.94l-3.86,8.52v0.53h-0.3l-27.52,60.13l-2.37,5.09
			l-25.15,54.91l-8.9,19.3v0.07l-2.89,6.21v0.13l-15.73,34.36l-15.36,33.5l-12.17,26.56l-21.89,47.64l-1.93,4.29
			c-1.24,2.69-2.47,5.37-3.71,8.06l-27.6,60.13l-0.82,1.72v0.07l-26.71,58.21l-7.34,15.99l-1.04,2.25v0.06l-19.14,41.76l-13.8,30.13
			l-13.8-30.06l-20.25-44.14l-0.37,0.66v-1.45l-6.9-15.07l-26.78-58.41l-0.67-1.52l-27.52-60.06c-1.9-4.14-3.81-8.28-5.71-12.42
			l-0.15-0.2v-0.07l-21.66-47.24l-12.32-26.96l-15.14-32.97l-18.4-40.11l-0.52-1.12l-8.61-18.77l-25.45-55.44v-0.06l-2-4.43
			l-27.52-60.06c-1.48-3.22-2.97-6.43-4.45-9.65v-0.06l-23.07-50.22l-10.98-23.98l-16.47-35.95l-16.25-35.42l-1.34-2.91l-9.94-21.67
			l-24.11-52.6l-3.41-7.4h6.83l31.83-0.07l29.31-0.07h6.97l31.09-0.07h37.1l30.34-0.07l30.57-0.07h36.8l31.23-0.07h7.27l28.86-0.07
			l31.9-0.07h35.46l32.57-0.07h7.42l27.45-0.07l33.16-0.07h34.2l33.83-0.07h7.57l25.97-0.06h34.57l7.57-0.07h25.22l35.17-0.06h7.79
			L883.54,1161.73z"/>
		<path class="st0" d="M771.14,1213.47l-47.48,0.07l-13.8,0.07h-6.68l-47.63,0.07h-20.48l-47.7,0.07l-12.32,0.07h-8.01l-47.78,0.07
			h-20.25l-47.78,0.07l-10.91,0.07h-9.35l-47.93,0.07h-20.03l-48.08,0.07h-9.42l-10.54,0.06l9.94,21.81
			c0.22,0.46,0.45,0.92,0.67,1.39l16.84,36.74l16.54,36.08l10.91,23.85h0.07l23.07,50.41l0.22-0.59v1.19l4.15,8.99l27.52,60
			c0.72,1.54,1.43,3.08,2.15,4.62v0.07l25.37,55.3l8.46,18.5l0.15,0.33l18.84,41.1l15.21,33.17l12.32,26.83l21.14,46.05l0.59,1.32
			l5.71,12.55l27.52,60h1.56l27.52-60.06l4.45-9.58c0.42-0.99,0.84-1.98,1.26-2.97l21.81-47.51l12.24-26.63l15.28-33.37l16.54-36.08
			c0.74-1.61,1.48-3.22,2.23-4.82l8.75-19.16l25.3-55.04c0.77-1.67,1.53-3.35,2.3-5.02l27.52-60.06l1.04-2.11v-0.13
			c1.04-2.31,2.08-4.62,3.12-6.94l23.37-50.88l10.68-23.39l16.84-36.6l13.06-28.55l4.15-9.05l10.31-22.46H771.14z M679.37,1310.2
			l-10.76,23.46h-0.07l-23.22,50.75l-2.45,5.35c-0.59,1.3-1.19,2.6-1.78,3.9l-27.6,60.13l-2.23,4.89l-25.3,55.11l-8.75,19.1
			l-1.56,3.43l-17.21,37.53l-15.21,33.24l-15.21-33.17h-0.07l-18.77-41.03l-0.89,1.91v-3.83l-7.79-17.05l-25.37-55.3l-2.15-4.63
			l-27.52-60.06l-4.38-9.51l-0.37,0.99l-0.07-1.98v-0.07L418,1333.99l-10.91-23.79l-16.62-36.14l33.24-0.06h16.77l18.03-0.07
			l33.24-0.06h34.8l33.31-0.07h15.36l19.36-0.06h33.46l14.62-0.07h19.96l33.53-0.06L679.37,1310.2z"/>
	</g>
	<path class="st0" d="M542.75,1433.27"/>
</g>
<path class="st0" d="M312.97,1970.86h-30.48l-19.18,0.07h-30l-25.44,0.07h-18.37l-0.16-65.74v-30.19l-0.08-25.99
	c0-3.19,0-6.37,0-9.56l-0.16-65.74l-0.08-65.81c0.01-1.17,0.02-2.34,0.03-3.51c11.18,23.11,22.36,46.21,33.55,69.32l0.57,1.3
	l29.59,64.36l7.72,16.87l2.6,5.79l19.75,43.01l14.96,32.51v0.07L312.97,1970.86z"/>
<path class="st0" d="M449.77,1999.54l-5.87-12.73l-0.52-1.22l-17.81-38.82l-12.14-26.44v-0.06l-12.07-26.21l-16.96-36.96v-0.06
	l-0.91-2.03l-6.26-13.71l-23.69-51.55l-0.52-1.16l-24.21-52.82c-1.3-2.87-2.61-5.73-3.91-8.6l-1.24-2.67v-0.06l-18.99-41.38
	l-10.96-23.83l-13.25-28.88l-15.07-32.89l-1.63-3.54l-7.44-16.33l-22.51-48.99l-1.7-3.72l-24.21-52.82
	c-1.35-2.93-2.7-5.85-4.05-8.78l-20.1-43.93l-9.79-21.33l-14.42-31.44l-13.12-28.59l-2.41-5.23l-8.68-18.89l-21.27-46.43l-2.87-6.33
	l-24.21-52.77h-0.07l0.13,52.77l0.07,52.82l0.07,12.26v13.25l0.07,27.25l0.06,52.77l0.07,36.78l0.07,14.24c0,0.58,0,1.16,0,1.74
	l0.07,52.82l0.13,52.77c0,2.83,0,5.66,0,8.48l0.06,24.29v19.99l0.13,52.77v33.01l0.07,19.76v14.7l0.07,38.12l0.13,52.77
	c0,1.57,0,3.14,0,4.71l0.07,44.51c0,1.18,0,2.36,0,3.55l0.13,52.77l0.07,29.29v23.54l0.07,31.09l0.07,21.68h24.73l34.52-0.06
	l14.62-0.06h10.77l33.86-0.06h26.03l33.21-0.06l24.08-0.06h2.61l32.56-0.06h27.34c0.48,0,0.96,0,1.44,0l30.54-0.06l27.93-0.06
	c0.46,0,0.91,0,1.37,0h29.95l28.64-0.06c1,0.01,2,0.02,3,0.02C467.03,2034.73,458.4,2017.14,449.77,1999.54z M377.02,2008.38
	l-46.91,0.06h-4.76l-8.22,0.06l-50.96,0.06h-8.94l-50.37,0.06c-1.57,0-3.13,0-4.7,0l-4.83,0.06l-49.72,0.06v-22.08l-0.07-30.74
	l-0.13-52.76v-13.89l-0.07-32.72v-6.16l-0.13-52.76l-0.07-48.58c0-1.41,0-2.83,0-4.24l-0.07-18.36v-34.4l-0.13-52.76l-0.07-30.34
	c0-4.18,0-8.37,0-12.55v-9.88l-0.13-52.77l-0.07-52.82c0-1.01,0-2.01,0-3.02c0.46,1.01,0.91,2.01,1.37,3.02l24.21,52.76
	c0.57,1.22,1.13,2.44,1.7,3.66v0.06l22.45,49.05c3.24,7.05,6.48,14.1,9.72,21.15l14.49,31.56l13.18,28.82l10.96,23.88l18.99,41.38
	c0.63,1.38,1.26,2.75,1.89,4.13l3.33,7.26l24.21,52.77c0.17,0.37,0.35,0.74,0.52,1.1v0.06l23.62,51.6h0.07l6.2,13.6
	c0.5,1.1,1,2.21,1.5,3.31l16.44,35.8l12.01,26.21l12.14,26.5h0.07c8.29,17.61,16.59,35.23,24.88,52.84
	C386.08,2008.39,381.55,2008.38,377.02,2008.38z"/>
<path class="st0" d="M759.69,1970.64h31.66l19.92,0.08h31.15l26.42,0.07h19.08l0.17-68.27v-31.35l0.08-26.99c0-3.31,0-6.62,0-9.92
	l0.17-68.27l0.08-68.34c-0.01-1.21-0.02-2.43-0.03-3.64c-11.61,23.99-23.22,47.99-34.84,71.98l-0.59,1.35l-30.73,66.84l-8.02,17.52
	l-2.7,6.02l-20.51,44.66l-15.53,33.76v0.08L759.69,1970.64z"/>
<path class="st0" d="M604.92,2052.33c1-0.01,2-0.02,3-0.02l28.64,0.06h29.95c0.46,0,0.91,0,1.37,0l27.93,0.06l30.54,0.06
	c0.48,0,0.96,0,1.44,0h27.34l32.56,0.06h2.61l24.08,0.06l33.21,0.06h26.03l33.86,0.06h10.77l14.62,0.06l34.52,0.06h24.73l0.07-21.68
	l0.07-31.09v-23.54l0.07-29.29l0.13-52.77c0-1.18,0-2.36,0-3.55l0.07-44.51c0-1.57,0-3.14,0-4.71l0.13-52.77l0.07-38.12v-14.7
	l0.07-19.76v-33.01l0.13-52.77v-19.99l0.06-24.29c0-2.83,0-5.66,0-8.48l0.13-52.77l0.07-52.82c0-0.58,0-1.16,0-1.74l0.07-14.24
	l0.07-36.78l0.06-52.77l0.07-27.25v-13.25l0.07-12.26l0.07-52.82l0.13-52.77h-0.07l-24.21,52.77l-2.87,6.33l-21.27,46.43
	l-8.68,18.89l-2.41,5.23l-13.12,28.59l-14.42,31.44l-9.79,21.33l-20.1,43.93c-1.35,2.93-2.7,5.85-4.05,8.78l-24.21,52.82l-1.7,3.72
	l-22.51,48.99l-7.44,16.33l-1.63,3.54l-15.07,32.89l-13.25,28.88l-10.96,23.83l-18.99,41.38v0.06l-1.24,2.67
	c-1.3,2.87-2.61,5.73-3.91,8.6l-24.21,52.82l-0.52,1.16l-23.69,51.55l-6.26,13.71l-0.91,2.03v0.06l-16.96,36.96l-12.07,26.21v0.06
	l-12.14,26.44l-17.81,38.82l-0.52,1.22l-5.87,12.73C622.18,2017.14,613.55,2034.73,604.92,2052.33z M689.98,2008.4
	c8.29-17.61,16.59-35.23,24.88-52.84h0.07l12.14-26.5l12.01-26.21l16.44-35.8c0.5-1.1,1-2.21,1.5-3.31l6.2-13.6h0.07l23.62-51.6
	v-0.06c0.17-0.37,0.35-0.74,0.52-1.1l24.21-52.77l3.33-7.26c0.63-1.38,1.26-2.75,1.89-4.13l18.99-41.38l10.96-23.88l13.18-28.82
	l14.49-31.56c3.24-7.05,6.48-14.1,9.72-21.15l22.45-49.05v-0.06c0.57-1.22,1.13-2.44,1.7-3.66l24.21-52.76
	c0.46-1.01,0.91-2.01,1.37-3.02c0,1.01,0,2.01,0,3.02l-0.07,52.82l-0.13,52.77v9.88c0,4.18,0,8.37,0,12.55l-0.07,30.34l-0.13,52.76
	v34.4l-0.07,18.36c0,1.41,0,2.83,0,4.24l-0.07,48.58l-0.13,52.76v6.16l-0.07,32.72v13.89l-0.13,52.76l-0.07,30.74v22.08l-49.72-0.06
	l-4.83-0.06c-1.57,0-3.13,0-4.7,0l-50.37-0.06h-8.94l-50.96-0.06l-8.22-0.06h-4.76l-46.91-0.06
	C699.04,2008.38,694.51,2008.39,689.98,2008.4z"/>
</svg>
