<?xml version="1.0" encoding="utf-8"?>
<!-- Generator: Adobe Illustrator 27.3.1, SVG Export Plug-In . SVG Version: 6.00 Build 0)  -->
<svg version="1.1" id="Layer_1" xmlns="http://www.w3.org/2000/svg" xmlns:xlink="http://www.w3.org/1999/xlink" x="0px" y="0px"
	 viewBox="0 0 560 100" style="enable-background:new 0 0 560 100;" xml:space="preserve">
<style type="text/css">
	.st0{fill:#111111;}
	.st1{fill:#111111;stroke:#000000;stroke-miterlimit:10;}
</style>
<path class="st0" d="M27.32,86.35h-2.81l-1.77,0.01h-2.76l-2.34,0.01h-1.69l-0.01-6.05v-2.78l-0.01-2.39c0-0.29,0-0.59,0-0.88
	l-0.01-6.05l-0.01-6.06c0-0.11,0-0.22,0-0.32c1.03,2.13,2.06,4.25,3.09,6.38l0.05,0.12l2.72,5.92l0.71,1.55l0.24,0.53l1.82,3.96
	l1.38,2.99v0.01L27.32,86.35z"/>
<path class="st0" d="M43.82,91.38l-0.67-1.46l-0.06-0.14l-2.04-4.45l-1.39-3.03v-0.01l-1.38-3.01l-1.95-4.24v-0.01l-0.1-0.23
	l-0.72-1.57l-2.72-5.91l-0.06-0.13l-2.78-6.06c-0.15-0.33-0.3-0.66-0.45-0.99l-0.14-0.31v-0.01l-2.18-4.75l-1.26-2.73l-1.52-3.31
	l-1.73-3.77l-0.19-0.41l-0.85-1.87l-2.58-5.62l-0.19-0.43l-2.78-6.06c-0.15-0.34-0.31-0.67-0.46-1.01l-2.3-5.04l-1.12-2.45
	l-1.65-3.61l-1.5-3.28l-0.28-0.6l-1-2.17L5.32,7.42L4.99,6.69L2.21,0.64H2.2l0.01,6.05l0.01,6.06l0.01,1.41v1.52l0.01,3.13
	l0.01,6.05l0.01,4.22l0.01,1.63c0,0.07,0,0.13,0,0.2l0.01,6.06l0.01,6.05c0,0.32,0,0.65,0,0.97l0.01,2.79v2.29l0.01,6.05v3.79
	l0.01,2.27v1.69l0.01,4.37l0.01,6.05c0,0.18,0,0.36,0,0.54l0.01,5.1c0,0.14,0,0.27,0,0.41l0.01,6.05l0.01,3.36v2.7L2.38,95
	l0.01,2.49h2.84l3.96-0.01l1.68-0.01h1.23l3.88-0.01h2.99l3.81-0.01l2.76-0.01h0.3l3.73-0.01h3.14c0.05,0,0.11,0,0.16,0l3.5-0.01
	l3.2-0.01c0.05,0,0.1,0,0.16,0h3.43l3.28-0.01c0.11,0,0.23,0,0.34,0C45.8,95.42,44.81,93.4,43.82,91.38z M35.47,92.39l-5.38,0.01
	h-0.55l-0.94,0.01l-5.84,0.01h-1.03l-5.78,0.01c-0.18,0-0.36,0-0.54,0l-0.55,0.01l-5.7,0.01V89.9l-0.01-3.53l-0.01-6.05v-1.59
	l-0.01-3.75v-0.71l-0.01-6.05l-0.01-5.57c0-0.16,0-0.32,0-0.49L9.1,60.06v-3.95l-0.01-6.05l-0.01-3.48c0-0.48,0-0.96,0-1.44v-1.13
	l-0.01-6.05L9.06,31.9c0-0.12,0-0.23,0-0.35c0.05,0.12,0.1,0.23,0.16,0.35l2.78,6.05c0.06,0.14,0.13,0.28,0.19,0.42v0.01L14.76,44
	c0.37,0.81,0.74,1.62,1.11,2.43l1.66,3.62l1.51,3.31l1.26,2.74l2.18,4.75c0.07,0.16,0.14,0.32,0.22,0.47l0.38,0.83l2.78,6.05
	c0.02,0.04,0.04,0.08,0.06,0.13v0.01l2.71,5.92h0.01l0.71,1.56c0.06,0.13,0.11,0.25,0.17,0.38l1.89,4.11l1.38,3.01l1.39,3.04h0.01
	c0.95,2.02,1.9,4.04,2.85,6.06C36.51,92.39,35.99,92.39,35.47,92.39z"/>
<path class="st0" d="M529.56,13.05h2.81l1.77-0.01h2.76l2.34-0.01h1.69l0.01,6.05v2.78l0.01,2.39c0,0.29,0,0.59,0,0.88l0.02,6.05
	l0.01,6.06c0,0.11,0,0.22,0,0.32c-1.03-2.13-2.06-4.25-3.09-6.38l-0.05-0.12l-2.72-5.92l-0.71-1.55l-0.24-0.53l-1.82-3.96
	l-1.38-2.99v-0.01L529.56,13.05z"/>
<path class="st0" d="M513.06,8.02l0.67,1.46l0.06,0.14l2.04,4.45l1.39,3.03v0.01l1.38,3.01l1.95,4.24v0.01l0.1,0.23l0.72,1.57
	l2.72,5.91l0.06,0.13l2.78,6.06c0.15,0.33,0.3,0.66,0.45,0.99l0.14,0.31v0.01l2.18,4.75l1.26,2.73l1.52,3.31l1.73,3.77l0.19,0.41
	l0.85,1.87l2.58,5.62l0.19,0.43l2.78,6.06c0.15,0.34,0.31,0.67,0.46,1.01l2.3,5.04l1.12,2.45l1.65,3.61l1.5,3.28l0.28,0.6l1,2.17
	l2.44,5.32l0.33,0.73l2.78,6.05h0.01l-0.01-6.05l-0.01-6.06l-0.01-1.41v-1.52l-0.01-3.13l-0.01-6.05l-0.01-4.22l-0.01-1.63
	c0-0.07,0-0.13,0-0.2l-0.01-6.06l-0.01-6.05c0-0.32,0-0.65,0-0.97l-0.01-2.79v-2.29l-0.02-6.05V40.5l-0.01-2.27v-1.69l-0.01-4.37
	l-0.01-6.05c0-0.18,0-0.36,0-0.54l-0.01-5.1c0-0.14,0-0.27,0-0.41l-0.02-6.05l-0.01-3.36v-2.7L554.5,4.4l-0.01-2.49h-2.84
	l-3.96,0.01l-1.68,0.01h-1.23l-3.88,0.01h-2.99l-3.81,0.01l-2.76,0.01h-0.3l-3.73,0.01h-3.14c-0.05,0-0.11,0-0.16,0l-3.5,0.01
	l-3.2,0.01c-0.05,0-0.1,0-0.16,0h-3.43l-3.28,0.01c-0.11,0-0.23,0-0.34,0C511.08,3.99,512.07,6,513.06,8.02z M521.4,7.01L526.78,7
	h0.55L528.27,7l5.84-0.01h1.03l5.78-0.01c0.18,0,0.36,0,0.54,0l0.55-0.01l5.7-0.01V9.5l0.01,3.53l0.02,6.05v1.59l0.01,3.75v0.71
	l0.01,6.05l0.01,5.57c0,0.16,0,0.32,0,0.49l0.01,2.11v3.95l0.02,6.05l0.01,3.48c0,0.48,0,0.96,0,1.44v1.13l0.01,6.05l0.01,6.06
	c0,0.12,0,0.23,0,0.35c-0.05-0.12-0.1-0.23-0.16-0.35l-2.78-6.05c-0.06-0.14-0.13-0.28-0.19-0.42v-0.01l-2.57-5.62
	c-0.37-0.81-0.74-1.62-1.11-2.43l-1.66-3.62l-1.51-3.31l-1.26-2.74l-2.18-4.75c-0.07-0.16-0.14-0.32-0.22-0.47l-0.38-0.83
	l-2.78-6.05c-0.02-0.04-0.04-0.08-0.06-0.13v-0.01l-2.71-5.92h-0.01l-0.71-1.56c-0.06-0.13-0.11-0.25-0.17-0.38l-1.89-4.11
	l-1.38-3.01l-1.39-3.04h-0.01c-0.95-2.02-1.9-4.04-2.85-6.06C520.36,7.01,520.88,7.01,521.4,7.01z"/>
<g>
	<g>
		<path class="st0" d="M55.51,30.08c-0.06,0.14-0.12,0.27-0.18,0.41v0.01l-0.25,0.53c-1.01,2.16-2.01,4.31-3.02,6.47
			c-0.07-0.14-0.13-0.27-0.2-0.41c-0.93-2.02-1.85-4.03-2.78-6.05l-0.43-0.95l-0.12-0.25v-0.01l-2.21-4.84l2.21-0.01h2.46l2.18-0.01
			h2.15l2.54-0.01L55.51,30.08z"/>
		<path class="st0" d="M96.44,0.67c-2.11,0.01-4.22,0.03-6.33,0.04h-0.53c-0.11,0-0.21,0-0.32,0l-6.01,0.01H82.7
			c-0.08,0-0.16,0-0.25,0l-6.07,0.01h-0.55c-0.06,0-0.11,0-0.17,0l-6.14,0.01h-0.56c-0.03,0-0.06,0-0.1,0l-6.2,0.01h-0.57
			c-0.01,0.01-0.01,0.01-0.02,0.02c-2.09,0-4.18,0-6.27-0.01h-0.58l-6.29,0.01h-0.58l-6.28,0.01l-0.4,0.01h-0.19l-6.27,0.01h-0.6
			L28.35,0.8h-0.27L27.74,0.8l-6.25,0.01h-0.62l-6.23,0.01H14L7.77,0.83l2.78,6.04c0.11,0.25,0.23,0.5,0.34,0.75v0.01l2.43,5.31
			l1,2.17c0.07,0.15,0.14,0.3,0.21,0.45l1.56,3.42l1.66,3.62l1.11,2.43l2.32,5.06c0.05,0.12,0.11,0.24,0.16,0.35v0.01l0.29,0.63
			l2.77,6.05c0.07,0.15,0.14,0.3,0.21,0.45l2.57,5.6l0.87,1.89c0.04,0.08,0.07,0.17,0.11,0.25l1.8,3.91l1.52,3.32l1.25,2.73
			l2.18,4.76c0.03,0.06,0.05,0.12,0.08,0.19l0.51,1.11l2.78,6.05c0.02,0.05,0.04,0.1,0.07,0.15v0.01l2.7,5.9L41.78,75
			c0.01,0.03,0.02,0.06,0.04,0.09l2.01,4.38l2.77,6.05h0.01l2.04,4.45l0.01,0.02l0.73,1.59l2.71,5.9l2.7-5.9h0.01l0.64-1.41
			c0.02-0.06,0.05-0.12,0.07-0.17l2.06-4.48l1.38-3.01l1.4-3.05l1.86-4.07c0.3-0.66,0.61-1.32,0.91-1.99l2.69-5.86v-0.01
			c0.95-2.08,1.91-4.16,2.86-6.24l0.31-0.66c0.09-0.19,0.17-0.39,0.26-0.58l2.21-4.82l1.22-2.67l1.55-3.39h0.01l1.51-3.31
			c0.12-0.26,0.24-0.53,0.37-0.79l0.9-1.95l2.54-5.54c0.08-0.17,0.16-0.35,0.24-0.52l2.73-5.95v-0.11c0.15-0.3,0.31-0.6,0.46-0.91
			l2.36-5.15l1.07-2.34l1.71-3.71l1.17-2.55c0.19-0.41,0.37-0.81,0.56-1.22l1.05-2.29l2.39-5.2c0.13-0.29,0.26-0.58,0.4-0.87
			l2.39-5.2V1.55C96.18,1.26,96.31,0.96,96.44,0.67z M86.4,7.62l-2.39,5.21l-1.04,2.27l-0.49,1.07c-0.41,0.9-0.83,1.8-1.24,2.71
			l-1.7,3.71l-1.08,2.35l-2.36,5.14l-0.39,0.86v0.05h-0.03l-2.78,6.06l-0.24,0.51l-2.54,5.54l-0.9,1.95v0.01l-0.29,0.63v0.01
			l-1.59,3.47l-1.55,3.38l-1.23,2.68l-2.21,4.81l-0.19,0.43c-0.12,0.27-0.25,0.54-0.37,0.81l-2.78,6.06l-0.08,0.17v0.01l-2.69,5.87
			L55.51,75l-0.1,0.23v0.01l-1.93,4.21l-1.39,3.04l-1.39-3.03L48.65,75l-0.04,0.07v-0.15l-0.7-1.52l-2.7-5.89l-0.07-0.15l-2.78-6.06
			c-0.19-0.42-0.38-0.84-0.58-1.25l-0.01-0.02v-0.01l-2.18-4.77l-1.24-2.72l-1.53-3.33l-1.86-4.05l-0.05-0.11l-0.87-1.89l-2.57-5.59
			v-0.01l-0.2-0.45l-2.78-6.06c-0.15-0.32-0.3-0.65-0.45-0.97v-0.01l-2.33-5.07l-1.11-2.42l-1.66-3.63l-1.64-3.57l-0.13-0.29
			l-1-2.19l-2.43-5.3L17.4,6.87h0.69l3.21-0.01l2.96-0.01h0.7l3.14-0.01h3.74l3.06-0.01l3.08-0.01h3.71l3.15-0.01h0.73l2.91-0.01
			l3.22-0.01h3.58l3.28-0.01h0.75l2.77-0.01l3.34-0.01h3.45l3.41-0.01h0.76l2.62-0.01h3.49l0.76-0.01h2.54l3.55-0.01h0.79L86.4,7.62
			z"/>
		<path class="st0" d="M75.07,12.84l-4.79,0.01l-1.39,0.01h-0.67l-4.8,0.01h-2.07l-4.81,0.01l-1.24,0.01h-0.81l-4.82,0.01h-2.04
			l-4.82,0.01l-1.1,0.01h-0.94l-4.83,0.01H33.9l-4.85,0.01h-0.95l-1.06,0.01l1,2.2c0.02,0.05,0.04,0.09,0.07,0.14l1.7,3.71
			l1.67,3.64l1.1,2.41h0.01l2.33,5.08l0.02-0.06v0.12l0.42,0.91l2.78,6.05c0.07,0.16,0.14,0.31,0.22,0.47v0.01l2.56,5.58l0.85,1.87
			l0.01,0.03l1.9,4.15l1.53,3.35l1.24,2.71l2.13,4.64l0.06,0.13l0.58,1.27L52,67.35h0.16l2.78-6.06l0.45-0.97
			c0.04-0.1,0.08-0.2,0.13-0.3l2.2-4.79l1.23-2.69l1.54-3.37l1.67-3.64c0.07-0.16,0.15-0.32,0.22-0.49l0.88-1.93l2.55-5.55
			c0.08-0.17,0.15-0.34,0.23-0.51l2.78-6.06l0.1-0.21v-0.01c0.1-0.23,0.21-0.47,0.31-0.7l2.36-5.13l1.08-2.36l1.7-3.69l1.32-2.88
			l0.42-0.91l1.04-2.27H75.07z M65.81,22.59l-1.09,2.37h-0.01l-2.34,5.12l-0.25,0.54c-0.06,0.13-0.12,0.26-0.18,0.39l-2.78,6.06
			l-0.22,0.49l-2.55,5.56l-0.88,1.93l-0.16,0.35l-1.74,3.79l-1.53,3.35l-1.53-3.35h-0.01l-1.89-4.14l-0.09,0.19v-0.39l-0.79-1.72
			l-2.56-5.58l-0.22-0.47l-2.78-6.06l-0.44-0.96l-0.04,0.1l-0.01-0.2v-0.01l-2.28-4.98l-1.1-2.4l-1.68-3.65l3.35-0.01h1.69
			l1.82-0.01l3.35-0.01h3.51l3.36-0.01h1.55l1.95-0.01h3.37l1.47-0.01h2.01l3.38-0.01L65.81,22.59z"/>
	</g>
	<path class="st0" d="M52.03,35.01"/>
</g>
<g>
	<g>
		<path class="st0" d="M98.78,67.38c0.06-0.14,0.12-0.27,0.18-0.41v-0.01l0.25-0.53c1.01-2.16,2.01-4.31,3.02-6.47
			c0.07,0.14,0.13,0.27,0.2,0.41c0.93,2.02,1.85,4.03,2.78,6.05l0.43,0.95l0.12,0.25v0.01l2.21,4.84l-2.21,0.01h-2.46l-2.18,0.01
			h-2.15l-2.54,0.01L98.78,67.38z"/>
		<path class="st0" d="M57.85,96.79c2.11-0.01,4.22-0.03,6.33-0.04h0.53c0.11,0,0.21,0,0.32,0l6.01-0.01h0.55c0.08,0,0.16,0,0.25,0
			l6.07-0.01h0.55c0.06,0,0.11,0,0.17,0l6.14-0.01h0.56c0.03,0,0.06,0,0.1,0l6.2-0.01h0.57c0.01-0.01,0.01-0.01,0.02-0.02
			c2.09,0,4.18,0,6.27,0.01h0.58l6.29-0.01h0.58l6.28-0.01l0.4-0.01h0.19l6.27-0.01h0.6l6.26-0.01h0.27l0.34-0.01l6.25-0.01h0.62
			l6.23-0.01h0.64l6.23-0.01l-2.78-6.04c-0.11-0.25-0.23-0.5-0.34-0.75v-0.01l-2.43-5.31l-1-2.17c-0.07-0.15-0.14-0.3-0.21-0.45
			l-1.56-3.42l-1.66-3.62l-1.11-2.43l-2.32-5.06c-0.05-0.12-0.11-0.24-0.16-0.35v-0.01l-0.29-0.63l-2.77-6.05
			c-0.07-0.15-0.14-0.3-0.21-0.45l-2.57-5.6l-0.87-1.89c-0.04-0.08-0.07-0.17-0.11-0.25l-1.8-3.91l-1.52-3.32l-1.25-2.73l-2.18-4.76
			c-0.03-0.06-0.05-0.12-0.08-0.19l-0.51-1.11l-2.78-6.05c-0.02-0.05-0.04-0.1-0.07-0.15v-0.01l-2.7-5.9l-0.73-1.58
			c-0.01-0.03-0.02-0.06-0.04-0.09L110.46,18l-2.77-6.05h-0.01l-2.04-4.45l-0.01-0.02l-0.73-1.59L102.21,0l-2.7,5.9H99.5l-0.64,1.41
			c-0.02,0.06-0.05,0.12-0.07,0.17l-2.06,4.48l-1.38,3.01l-1.4,3.05l-1.86,4.07c-0.3,0.66-0.61,1.32-0.91,1.99l-2.69,5.86v0.01
			c-0.95,2.08-1.91,4.16-2.86,6.24l-0.31,0.66c-0.09,0.19-0.17,0.39-0.26,0.58l-2.21,4.82l-1.22,2.67l-1.55,3.39h-0.01l-1.51,3.31
			c-0.12,0.26-0.24,0.53-0.37,0.79l-0.9,1.95l-2.54,5.54c-0.08,0.17-0.16,0.35-0.24,0.52l-2.73,5.95v0.11
			c-0.15,0.3-0.31,0.6-0.46,0.91l-2.36,5.15l-1.07,2.34l-1.71,3.71l-1.17,2.55c-0.19,0.41-0.37,0.81-0.56,1.22l-1.05,2.29l-2.39,5.2
			c-0.13,0.29-0.26,0.58-0.4,0.87l-2.39,5.2v0.01C58.1,96.21,57.98,96.5,57.85,96.79z M67.88,89.84l2.39-5.21l1.04-2.27l0.49-1.07
			c0.41-0.9,0.83-1.8,1.24-2.71l1.7-3.71l1.08-2.35l2.36-5.14l0.39-0.86v-0.05h0.03l2.78-6.06l0.24-0.51l2.54-5.54l0.9-1.95V52.4
			l0.29-0.63v-0.01l1.59-3.47l1.55-3.38l1.23-2.68l2.21-4.81L92.11,37c0.12-0.27,0.25-0.54,0.37-0.81l2.78-6.06l0.08-0.17v-0.01
			l2.69-5.87l0.74-1.61l0.1-0.23v-0.01l1.93-4.21l1.39-3.04l1.39,3.03l2.04,4.45l0.04-0.07v0.15l0.7,1.52l2.7,5.89l0.07,0.15
			l2.78,6.06c0.19,0.42,0.38,0.84,0.58,1.25l0.01,0.02v0.01l2.18,4.77l1.24,2.72l1.53,3.33l1.86,4.05l0.05,0.11l0.87,1.89l2.57,5.59
			v0.01l0.2,0.45l2.78,6.06c0.15,0.32,0.3,0.65,0.45,0.97v0.01l2.33,5.07l1.11,2.42l1.66,3.63l1.64,3.57l0.13,0.29l1,2.19l2.43,5.3
			l0.34,0.75h-0.69l-3.21,0.01l-2.96,0.01h-0.7l-3.14,0.01h-3.74l-3.06,0.01l-3.08,0.01h-3.71l-3.15,0.01h-0.73l-2.91,0.01
			l-3.22,0.01h-3.58l-3.28,0.01h-0.75l-2.77,0.01l-3.34,0.01h-3.45L82,90.68h-0.76l-2.62,0.01h-3.49l-0.76,0.01h-2.54l-3.55,0.01
			h-0.79L67.88,89.84z"/>
		<path class="st0" d="M79.22,84.63l4.79-0.01l1.39-0.01h0.67l4.8-0.01h2.07l4.81-0.01L99,84.59h0.81l4.82-0.01h2.04l4.82-0.01
			l1.1-0.01h0.94l4.83-0.01h2.02l4.85-0.01h0.95l1.06-0.01l-1-2.2c-0.02-0.05-0.04-0.09-0.07-0.14l-1.7-3.71l-1.67-3.64l-1.1-2.41
			h-0.01l-2.33-5.08l-0.02,0.06v-0.12l-0.42-0.91l-2.78-6.05c-0.07-0.16-0.14-0.31-0.22-0.47v-0.01l-2.56-5.58l-0.85-1.87
			l-0.01-0.03l-1.9-4.15l-1.53-3.35l-1.24-2.71l-2.13-4.64l-0.06-0.13l-0.58-1.27l-2.78-6.05h-0.16l-2.78,6.06l-0.45,0.97
			c-0.04,0.1-0.08,0.2-0.13,0.3l-2.2,4.79l-1.23,2.69l-1.54,3.37l-1.67,3.64c-0.07,0.16-0.15,0.32-0.22,0.49l-0.88,1.93l-2.55,5.55
			c-0.08,0.17-0.15,0.34-0.23,0.51l-2.78,6.06l-0.1,0.21v0.01c-0.1,0.23-0.21,0.47-0.31,0.7l-2.36,5.13l-1.08,2.36l-1.7,3.69
			l-1.32,2.88l-0.42,0.91l-1.04,2.27H79.22z M88.48,74.87l1.09-2.37h0.01l2.34-5.12l0.25-0.54c0.06-0.13,0.12-0.26,0.18-0.39
			l2.78-6.06l0.22-0.49l2.55-5.56l0.88-1.93l0.16-0.35l1.74-3.79l1.53-3.35l1.53,3.35h0.01l1.89,4.14l0.09-0.19v0.39l0.79,1.72
			l2.56,5.58l0.22,0.47l2.78,6.06l0.44,0.96l0.04-0.1l0.01,0.2v0.01l2.28,4.98l1.1,2.4l1.68,3.65l-3.35,0.01h-1.69l-1.82,0.01
			l-3.35,0.01h-3.51l-3.36,0.01h-1.55l-1.95,0.01h-3.37l-1.47,0.01h-2.01l-3.38,0.01L88.48,74.87z"/>
	</g>
	<path class="st0" d="M102.26,62.46"/>
</g>
<g>
	<g>
		<path class="st0" d="M155.72,29.41c-0.06,0.14-0.12,0.27-0.18,0.41v0.01l-0.25,0.53c-1.01,2.16-2.01,4.31-3.02,6.47
			c-0.07-0.14-0.13-0.27-0.2-0.41c-0.93-2.02-1.85-4.03-2.78-6.05l-0.43-0.95l-0.12-0.25v-0.01l-2.21-4.84l2.21-0.01h2.46l2.18-0.01
			h2.15l2.54-0.01L155.72,29.41z"/>
		<path class="st0" d="M196.65,0.01c-2.11,0.01-4.22,0.03-6.33,0.04h-0.53c-0.11,0-0.21,0-0.32,0l-6.01,0.01h-0.55
			c-0.08,0-0.16,0-0.25,0l-6.07,0.01h-0.55c-0.06,0-0.11,0-0.17,0l-6.14,0.01h-0.56c-0.03,0-0.06,0-0.1,0l-6.2,0.01h-0.57
			c-0.01,0.01-0.01,0.01-0.02,0.02c-2.09,0-4.18,0-6.27-0.01h-0.58l-6.29,0.01h-0.58l-6.28,0.01l-0.4,0.01h-0.19l-6.27,0.01h-0.6
			l-6.26,0.01h-0.27l-0.34,0.01l-6.25,0.01h-0.62l-6.23,0.01h-0.64l-6.23,0.01l2.78,6.04c0.11,0.25,0.23,0.5,0.34,0.75v0.01
			l2.43,5.31l1,2.17c0.07,0.15,0.14,0.3,0.21,0.45l1.56,3.42l1.66,3.62l1.11,2.43l2.32,5.06c0.05,0.12,0.11,0.24,0.16,0.35v0.01
			l0.29,0.63l2.77,6.05c0.07,0.15,0.14,0.3,0.21,0.45l2.57,5.6l0.87,1.89c0.04,0.08,0.07,0.17,0.11,0.25l1.8,3.91l1.52,3.32
			l1.25,2.73l2.18,4.76c0.03,0.06,0.05,0.12,0.08,0.19l0.51,1.11l2.78,6.05c0.02,0.05,0.04,0.1,0.07,0.15v0.01l2.7,5.9l0.73,1.58
			c0.01,0.03,0.02,0.06,0.04,0.09l2.01,4.38l2.77,6.05h0.01l2.04,4.45l0.01,0.02l0.73,1.59l2.71,5.9l2.7-5.9H155l0.64-1.41
			c0.02-0.06,0.05-0.12,0.07-0.17l2.06-4.48l1.38-3.01l1.4-3.05l1.86-4.07c0.3-0.66,0.61-1.32,0.91-1.99l2.69-5.86v-0.01
			c0.95-2.08,1.91-4.16,2.86-6.24l0.31-0.66c0.09-0.19,0.17-0.39,0.26-0.58l2.21-4.82l1.22-2.67l1.55-3.39h0.01l1.51-3.31
			c0.12-0.26,0.24-0.53,0.37-0.79l0.9-1.95l2.54-5.54c0.08-0.17,0.16-0.35,0.24-0.52l2.73-5.95v-0.11c0.15-0.3,0.31-0.6,0.46-0.91
			l2.36-5.15l1.07-2.34l1.71-3.71l1.17-2.55c0.19-0.41,0.37-0.81,0.56-1.22l1.05-2.29l2.39-5.2c0.13-0.29,0.26-0.58,0.4-0.87
			l2.39-5.2V0.88C196.4,0.59,196.52,0.3,196.65,0.01z M186.62,6.95l-2.39,5.21l-1.04,2.27l-0.49,1.07c-0.41,0.9-0.83,1.8-1.24,2.71
			l-1.7,3.71l-1.08,2.35l-2.36,5.14l-0.39,0.86v0.05h-0.03l-2.78,6.06l-0.24,0.51l-2.54,5.54l-0.9,1.95v0.01l-0.29,0.63v0.01
			l-1.59,3.47l-1.55,3.38l-1.23,2.68l-2.21,4.81l-0.19,0.43c-0.12,0.27-0.25,0.54-0.37,0.81l-2.78,6.06l-0.08,0.17v0.01l-2.69,5.87
			l-0.74,1.61l-0.1,0.23v0.01l-1.93,4.21l-1.39,3.04l-1.39-3.03l-2.04-4.45l-0.04,0.07v-0.15l-0.7-1.52l-2.7-5.89l-0.07-0.15
			l-2.78-6.06c-0.19-0.42-0.38-0.84-0.58-1.25l-0.01-0.02v-0.01l-2.18-4.77l-1.24-2.72l-1.53-3.33l-1.86-4.05l-0.05-0.11l-0.87-1.89
			l-2.57-5.59V36.9l-0.2-0.45l-2.78-6.06c-0.15-0.32-0.3-0.65-0.45-0.97v-0.01l-2.33-5.07l-1.11-2.42l-1.66-3.63l-1.64-3.57
			l-0.13-0.29l-1-2.19l-2.43-5.3l-0.34-0.75h0.69l3.21-0.01l2.96-0.01h0.7l3.14-0.01h3.74l3.06-0.01l3.08-0.01h3.71l3.15-0.01h0.73
			l2.91-0.01l3.22-0.01h3.58l3.28-0.01h0.75l2.77-0.01l3.34-0.01h3.45l3.41-0.01h0.76l2.62-0.01h3.49l0.76-0.01h2.54l3.55-0.01h0.79
			L186.62,6.95z"/>
		<path class="st0" d="M175.28,12.17l-4.79,0.01l-1.39,0.01h-0.67l-4.8,0.01h-2.07l-4.81,0.01l-1.24,0.01h-0.81l-4.82,0.01h-2.04
			l-4.82,0.01l-1.1,0.01h-0.94l-4.83,0.01h-2.02l-4.85,0.01h-0.95l-1.06,0.01l1,2.2c0.02,0.05,0.04,0.09,0.07,0.14l1.7,3.71
			l1.67,3.64l1.1,2.41h0.01l2.33,5.08l0.02-0.06v0.12l0.42,0.91l2.78,6.05c0.07,0.16,0.14,0.31,0.22,0.47v0.01l2.56,5.58l0.85,1.87
			l0.01,0.03l1.9,4.15l1.53,3.35l1.24,2.71l2.13,4.64l0.06,0.13l0.58,1.27l2.78,6.05h0.16l2.78-6.06l0.45-0.97
			c0.04-0.1,0.08-0.2,0.13-0.3l2.2-4.79l1.23-2.69l1.54-3.37l1.67-3.64c0.07-0.16,0.15-0.32,0.22-0.49l0.88-1.93l2.55-5.55
			c0.08-0.17,0.15-0.34,0.23-0.51l2.78-6.06l0.1-0.21v-0.01c0.1-0.23,0.21-0.47,0.31-0.7l2.36-5.13l1.08-2.36l1.7-3.69l1.32-2.88
			l0.42-0.91l1.04-2.27H175.28z M166.02,21.93l-1.09,2.37h-0.01l-2.34,5.12l-0.25,0.54c-0.06,0.13-0.12,0.26-0.18,0.39l-2.78,6.06
			l-0.22,0.49l-2.55,5.56l-0.88,1.93l-0.16,0.35l-1.74,3.79l-1.53,3.35l-1.53-3.35h-0.01l-1.89-4.14l-0.09,0.19V44.2l-0.79-1.72
			l-2.56-5.58l-0.22-0.47l-2.78-6.06l-0.44-0.96l-0.04,0.1l-0.01-0.2v-0.01l-2.28-4.98l-1.1-2.4l-1.68-3.65l3.35-0.01h1.69
			l1.82-0.01l3.35-0.01h3.51l3.36-0.01h1.55l1.95-0.01h3.37l1.47-0.01h2.01l3.38-0.01L166.02,21.93z"/>
	</g>
	<path class="st0" d="M152.24,34.34"/>
</g>
<g>
	<g>
		<path class="st0" d="M198.99,66.72c0.06-0.14,0.12-0.27,0.18-0.41v-0.01l0.25-0.53c1.01-2.16,2.01-4.31,3.02-6.47
			c0.07,0.14,0.13,0.27,0.2,0.41c0.93,2.02,1.85,4.03,2.78,6.05l0.43,0.95l0.12,0.25v0.01l2.21,4.84l-2.21,0.01h-2.46l-2.18,0.01
			h-2.15l-2.54,0.01L198.99,66.72z"/>
		<path class="st0" d="M158.06,96.13c2.11-0.01,4.22-0.03,6.33-0.04h0.53c0.11,0,0.21,0,0.32,0l6.01-0.01h0.55c0.08,0,0.16,0,0.25,0
			l6.07-0.01h0.55c0.06,0,0.11,0,0.17,0l6.14-0.01h0.56c0.03,0,0.06,0,0.1,0l6.2-0.01h0.57c0.01-0.01,0.01-0.01,0.02-0.02
			c2.09,0,4.18,0,6.27,0.01h0.58l6.29-0.01h0.58l6.28-0.01l0.4-0.01h0.19l6.27-0.01h0.6l6.26-0.01h0.27l0.34-0.01l6.25-0.01h0.62
			l6.23-0.01h0.64l6.23-0.01l-2.78-6.04c-0.11-0.25-0.23-0.5-0.34-0.75v-0.01l-2.43-5.31l-1-2.17c-0.07-0.15-0.14-0.3-0.21-0.45
			l-1.56-3.42l-1.66-3.62l-1.11-2.43l-2.32-5.06c-0.05-0.12-0.11-0.24-0.16-0.35v-0.01l-0.29-0.63l-2.77-6.05
			c-0.07-0.15-0.14-0.3-0.21-0.45l-2.57-5.6l-0.87-1.89c-0.04-0.08-0.07-0.17-0.11-0.25l-1.8-3.91l-1.52-3.32l-1.25-2.73l-2.18-4.76
			c-0.03-0.06-0.05-0.12-0.08-0.19L219,35.48l-2.78-6.05c-0.02-0.05-0.04-0.1-0.07-0.15v-0.01l-2.7-5.9l-0.73-1.58
			c-0.01-0.03-0.02-0.06-0.04-0.09l-2.01-4.38l-2.77-6.05h-0.01l-2.04-4.45l-0.01-0.02l-0.73-1.59l-2.71-5.9l-2.7,5.9h-0.01
			l-0.64,1.41c-0.02,0.06-0.05,0.12-0.07,0.17l-2.06,4.48l-1.38,3.01l-1.4,3.05l-1.86,4.07c-0.3,0.66-0.61,1.32-0.91,1.99
			l-2.69,5.86v0.01c-0.95,2.08-1.91,4.16-2.86,6.24l-0.31,0.66c-0.09,0.19-0.17,0.39-0.26,0.58l-2.21,4.82l-1.22,2.67l-1.55,3.39
			h-0.01l-1.51,3.31c-0.12,0.26-0.24,0.53-0.37,0.79l-0.9,1.95l-2.54,5.54c-0.08,0.17-0.16,0.35-0.24,0.52l-2.73,5.95v0.11
			c-0.15,0.3-0.31,0.6-0.46,0.91l-2.36,5.15l-1.07,2.34l-1.71,3.71l-1.17,2.55c-0.19,0.41-0.37,0.81-0.56,1.22l-1.05,2.29l-2.39,5.2
			c-0.13,0.29-0.26,0.58-0.4,0.87l-2.39,5.2v0.01C158.32,95.54,158.19,95.84,158.06,96.13z M168.1,89.18l2.39-5.21l1.04-2.27
			l0.49-1.07c0.41-0.9,0.83-1.8,1.24-2.71l1.7-3.71l1.08-2.35l2.36-5.14l0.39-0.86v-0.05h0.03l2.78-6.06l0.24-0.51l2.54-5.54
			l0.9-1.95v-0.01l0.29-0.63V51.1l1.59-3.47l1.55-3.38l1.23-2.68l2.21-4.81l0.19-0.43c0.12-0.27,0.25-0.54,0.37-0.81l2.78-6.06
			l0.08-0.17v-0.01l2.69-5.87l0.74-1.61l0.1-0.23v-0.01l1.93-4.21l1.39-3.04l1.39,3.03l2.04,4.45l0.04-0.07v0.15l0.7,1.52l2.7,5.89
			l0.07,0.15l2.78,6.06c0.19,0.42,0.38,0.84,0.58,1.25l0.01,0.02v0.01l2.18,4.77l1.24,2.72l1.53,3.33l1.86,4.05l0.05,0.11l0.87,1.89
			l2.57,5.59v0.01l0.2,0.45l2.78,6.06c0.15,0.32,0.3,0.65,0.45,0.97v0.01l2.33,5.07l1.11,2.42l1.66,3.63l1.64,3.57l0.13,0.29l1,2.19
			l2.43,5.3l0.34,0.75h-0.69l-3.21,0.01l-2.96,0.01h-0.7l-3.14,0.01h-3.74l-3.06,0.01l-3.08,0.01h-3.71l-3.15,0.01h-0.73l-2.91,0.01
			l-3.22,0.01h-3.58l-3.28,0.01h-0.75L192.42,90L189.07,90h-3.45l-3.41,0.01h-0.76l-2.62,0.01h-3.49l-0.76,0.01h-2.54l-3.55,0.01
			h-0.79L168.1,89.18z"/>
		<path class="st0" d="M179.43,83.96l4.79-0.01l1.39-0.01h0.67l4.8-0.01h2.07l4.81-0.01l1.24-0.01h0.81l4.82-0.01h2.04l4.82-0.01
			l1.1-0.01h0.94l4.83-0.01h2.02l4.85-0.01h0.95l1.06-0.01l-1-2.2c-0.02-0.05-0.04-0.09-0.07-0.14l-1.7-3.71l-1.67-3.64l-1.1-2.41
			h-0.01l-2.33-5.08l-0.02,0.06v-0.12l-0.42-0.91l-2.78-6.05c-0.07-0.16-0.14-0.31-0.22-0.47v-0.01l-2.56-5.58l-0.85-1.87
			l-0.01-0.03l-1.9-4.15l-1.53-3.35l-1.24-2.71l-2.13-4.64l-0.06-0.13l-0.58-1.27l-2.78-6.05h-0.16l-2.78,6.06l-0.45,0.97
			c-0.04,0.1-0.08,0.2-0.13,0.3l-2.2,4.79l-1.23,2.69l-1.54,3.37l-1.67,3.64c-0.07,0.16-0.15,0.32-0.22,0.49l-0.88,1.93l-2.55,5.55
			c-0.08,0.17-0.15,0.34-0.23,0.51l-2.78,6.06l-0.1,0.21v0.01c-0.1,0.23-0.21,0.47-0.31,0.7l-2.36,5.13l-1.08,2.36l-1.7,3.69
			l-1.32,2.88l-0.42,0.91l-1.04,2.27H179.43z M188.69,74.2l1.09-2.37h0.01l2.34-5.12l0.25-0.54c0.06-0.13,0.12-0.26,0.18-0.39
			l2.78-6.06l0.22-0.49l2.55-5.56l0.88-1.93l0.16-0.35l1.74-3.79l1.53-3.35l1.53,3.35h0.01l1.89,4.14l0.09-0.19v0.39l0.79,1.72
			l2.56,5.58l0.22,0.47l2.78,6.06l0.44,0.96l0.04-0.1l0.01,0.2v0.01l2.28,4.98l1.1,2.4l1.68,3.65l-3.35,0.01h-1.69l-1.82,0.01
			l-3.35,0.01h-3.51l-3.36,0.01h-1.55l-1.95,0.01h-3.37l-1.47,0.01h-2.01L187,77.9L188.69,74.2z"/>
	</g>
	<path class="st0" d="M202.47,61.79"/>
</g>
<g>
	<g>
		<path class="st0" d="M255.93,31.35c-0.06,0.14-0.12,0.27-0.18,0.41v0.01l-0.25,0.53c-1.01,2.16-2.01,4.31-3.02,6.47
			c-0.07-0.14-0.13-0.27-0.2-0.41c-0.93-2.02-1.85-4.03-2.78-6.05l-0.43-0.95l-0.12-0.25v-0.01l-2.21-4.84l2.21-0.01h2.46l2.18-0.01
			h2.15l2.54-0.01L255.93,31.35z"/>
		<path class="st0" d="M296.86,1.94c-2.11,0.01-4.22,0.03-6.33,0.04H290c-0.11,0-0.21,0-0.32,0l-6.01,0.01h-0.55
			c-0.08,0-0.16,0-0.25,0L276.81,2h-0.55c-0.06,0-0.11,0-0.17,0l-6.14,0.01h-0.56c-0.03,0-0.06,0-0.1,0l-6.2,0.01h-0.57
			c-0.01,0.01-0.01,0.01-0.02,0.02c-2.09,0-4.18,0-6.27-0.01h-0.58l-6.29,0.01h-0.58l-6.28,0.01l-0.4,0.01h-0.19l-6.27,0.01h-0.6
			l-6.26,0.01h-0.27l-0.34,0.01l-6.25,0.01h-0.62l-6.23,0.01h-0.64l-6.23,0.01l2.78,6.04c0.11,0.25,0.23,0.5,0.34,0.75v0.01
			l2.43,5.31l1,2.17c0.07,0.15,0.14,0.3,0.21,0.45l1.56,3.42l1.66,3.62l1.11,2.43l2.32,5.06c0.05,0.12,0.11,0.24,0.16,0.35v0.01
			l0.29,0.63l2.77,6.05c0.07,0.15,0.14,0.3,0.21,0.45l2.57,5.6l0.87,1.89c0.04,0.08,0.07,0.17,0.11,0.25l1.8,3.91l1.52,3.32
			l1.25,2.73l2.18,4.76c0.03,0.06,0.05,0.12,0.08,0.19l0.51,1.11l2.78,6.05c0.02,0.05,0.04,0.1,0.07,0.15v0.01l2.7,5.9l0.73,1.58
			c0.01,0.03,0.02,0.06,0.04,0.09l2.01,4.38l2.77,6.05h0.01l2.04,4.45l0.01,0.02l0.73,1.59l2.71,5.9l2.7-5.9h0.01l0.64-1.41
			c0.02-0.06,0.05-0.12,0.07-0.17l2.06-4.48l1.38-3.01l1.4-3.05l1.86-4.07c0.3-0.66,0.61-1.32,0.91-1.99l2.69-5.86v-0.01
			c0.95-2.08,1.91-4.16,2.86-6.24l0.31-0.66c0.09-0.19,0.17-0.39,0.26-0.58l2.21-4.82l1.22-2.67l1.55-3.39h0.01l1.51-3.31
			c0.12-0.26,0.24-0.53,0.37-0.79l0.9-1.95l2.54-5.54c0.08-0.17,0.16-0.35,0.24-0.52l2.73-5.95v-0.11c0.15-0.3,0.31-0.6,0.46-0.91
			l2.36-5.15l1.07-2.34l1.71-3.71l1.17-2.55c0.19-0.41,0.37-0.81,0.56-1.22l1.05-2.29l2.39-5.2c0.13-0.29,0.26-0.58,0.4-0.87
			l2.39-5.2V2.82C296.61,2.52,296.74,2.23,296.86,1.94z M286.83,8.89l-2.39,5.21l-1.04,2.27l-0.49,1.07
			c-0.41,0.9-0.83,1.8-1.24,2.71l-1.7,3.71l-1.08,2.35l-2.36,5.14l-0.39,0.86v0.05h-0.03l-2.78,6.06l-0.24,0.51l-2.54,5.54
			l-0.9,1.95v0.01l-0.29,0.63v0.01l-1.59,3.47l-1.55,3.38l-1.23,2.68l-2.21,4.81l-0.19,0.43c-0.12,0.27-0.25,0.54-0.37,0.81
			l-2.78,6.06l-0.08,0.17v0.01l-2.69,5.87l-0.74,1.61l-0.1,0.23v0.01l-1.93,4.21l-1.39,3.04l-1.39-3.03l-2.04-4.45l-0.04,0.07v-0.15
			l-0.7-1.52l-2.7-5.89l-0.07-0.15l-2.78-6.06c-0.19-0.42-0.38-0.84-0.58-1.25l-0.01-0.02v-0.01l-2.18-4.77l-1.24-2.72l-1.53-3.33
			l-1.86-4.05l-0.05-0.11l-0.87-1.89l-2.57-5.59v-0.01l-0.2-0.45l-2.78-6.06c-0.15-0.32-0.3-0.65-0.45-0.97v-0.01l-2.33-5.07
			l-1.11-2.42l-1.66-3.63l-1.64-3.57l-0.13-0.29l-1-2.19l-2.43-5.3l-0.34-0.75h0.69l3.21-0.01l2.96-0.01h0.7l3.14-0.01h3.74
			l3.06-0.01l3.08-0.01h3.71l3.15-0.01H246l2.91-0.01l3.22-0.01h3.58l3.28-0.01h0.75l2.77-0.01l3.34-0.01h3.45l3.41-0.01h0.76
			l2.62-0.01h3.49l0.76-0.01h2.54l3.55-0.01h0.79L286.83,8.89z"/>
		<path class="st0" d="M275.49,14.11l-4.79,0.01l-1.39,0.01h-0.67l-4.8,0.01h-2.07l-4.81,0.01l-1.24,0.01h-0.81l-4.82,0.01h-2.04
			l-4.82,0.01l-1.1,0.01h-0.94l-4.83,0.01h-2.02l-4.85,0.01h-0.95l-1.06,0.01l1,2.2c0.02,0.05,0.04,0.09,0.07,0.14l1.7,3.71
			l1.67,3.64l1.1,2.41h0.01l2.33,5.08l0.02-0.06v0.12l0.42,0.91l2.78,6.05c0.07,0.16,0.14,0.31,0.22,0.47v0.01l2.56,5.58l0.85,1.87
			l0.01,0.03l1.9,4.15l1.53,3.35l1.24,2.71l2.13,4.64l0.06,0.13l0.58,1.27l2.78,6.05h0.16l2.78-6.06l0.45-0.97
			c0.04-0.1,0.08-0.2,0.13-0.3l2.2-4.79l1.23-2.69l1.54-3.37l1.67-3.64c0.07-0.16,0.15-0.32,0.22-0.49l0.88-1.93l2.55-5.55
			c0.08-0.17,0.15-0.34,0.23-0.51l2.78-6.06l0.1-0.21v-0.01c0.1-0.23,0.21-0.47,0.31-0.7l2.36-5.13l1.08-2.36l1.7-3.69l1.32-2.88
			l0.42-0.91l1.04-2.27H275.49z M266.23,23.86l-1.09,2.37h-0.01l-2.34,5.12l-0.25,0.54c-0.06,0.13-0.12,0.26-0.18,0.39l-2.78,6.06
			l-0.22,0.49l-2.55,5.56l-0.88,1.93l-0.16,0.35l-1.74,3.79l-1.53,3.35l-1.53-3.35h-0.01l-1.89-4.14l-0.09,0.19v-0.39l-0.79-1.72
			l-2.56-5.58l-0.22-0.47l-2.78-6.06l-0.44-0.96l-0.04,0.1l-0.01-0.2v-0.01l-2.28-4.98l-1.1-2.4l-1.68-3.65l3.35-0.01h1.69
			l1.82-0.01l3.35-0.01h3.51l3.36-0.01h1.55l1.95-0.01h3.37l1.47-0.01h2.01l3.38-0.01L266.23,23.86z"/>
	</g>
	<path class="st0" d="M252.46,36.28"/>
</g>
<g>
	<g>
		<path class="st0" d="M299.2,68.65c0.06-0.14,0.12-0.27,0.18-0.41v-0.01l0.25-0.53c1.01-2.16,2.01-4.31,3.02-6.47
			c0.07,0.14,0.13,0.27,0.2,0.41c0.93,2.02,1.85,4.03,2.78,6.05l0.43,0.95l0.12,0.25v0.01l2.21,4.84l-2.21,0.01h-2.46l-2.18,0.01
			h-2.15l-2.54,0.01L299.2,68.65z"/>
		<path class="st0" d="M258.27,98.06c2.11-0.01,4.22-0.03,6.33-0.04h0.53c0.11,0,0.21,0,0.32,0l6.01-0.01h0.55c0.08,0,0.16,0,0.25,0
			l6.07-0.01h0.55c0.06,0,0.11,0,0.17,0l6.14-0.01h0.56c0.03,0,0.06,0,0.1,0l6.2-0.01h0.57c0.01-0.01,0.01-0.01,0.02-0.02
			c2.09,0,4.18,0,6.27,0.01h0.58l6.29-0.01h0.58l6.28-0.01l0.4-0.01h0.19l6.27-0.01h0.6l6.26-0.01h0.27l0.34-0.01l6.25-0.01h0.62
			l6.23-0.01h0.64l6.23-0.01l-2.78-6.04c-0.11-0.25-0.23-0.5-0.34-0.75v-0.01l-2.43-5.31l-1-2.17c-0.07-0.15-0.14-0.3-0.21-0.45
			l-1.56-3.42l-1.66-3.62l-1.11-2.43l-2.32-5.06c-0.05-0.12-0.11-0.24-0.16-0.35v-0.01l-0.29-0.63l-2.77-6.05
			c-0.07-0.15-0.14-0.3-0.21-0.45l-2.57-5.6l-0.87-1.89c-0.04-0.08-0.07-0.17-0.11-0.25l-1.8-3.91l-1.52-3.32l-1.25-2.73l-2.18-4.76
			c-0.03-0.06-0.05-0.12-0.08-0.19l-0.51-1.11l-2.78-6.05c-0.02-0.05-0.04-0.1-0.07-0.15v-0.01l-2.7-5.9l-0.73-1.58
			c-0.01-0.03-0.02-0.06-0.04-0.09l-2.01-4.38l-2.77-6.05h-0.01l-2.04-4.45l-0.01-0.02l-0.73-1.59l-2.71-5.9l-2.7,5.9h-0.01
			l-0.64,1.41c-0.02,0.06-0.05,0.12-0.07,0.17l-2.06,4.48l-1.38,3.01l-1.4,3.05l-1.86,4.07c-0.3,0.66-0.61,1.32-0.91,1.99
			l-2.69,5.86v0.01c-0.95,2.08-1.91,4.16-2.86,6.24l-0.31,0.66c-0.09,0.19-0.17,0.39-0.26,0.58l-2.21,4.82l-1.22,2.67l-1.55,3.39
			h-0.01l-1.51,3.31c-0.12,0.26-0.24,0.53-0.37,0.79l-0.9,1.95l-2.54,5.54c-0.08,0.17-0.16,0.35-0.24,0.52l-2.73,5.95v0.11
			c-0.15,0.3-0.31,0.6-0.46,0.91l-2.36,5.15l-1.07,2.34l-1.71,3.71l-1.17,2.55c-0.19,0.41-0.37,0.81-0.56,1.22l-1.05,2.29l-2.39,5.2
			c-0.13,0.29-0.26,0.58-0.4,0.87l-2.39,5.2v0.01C258.53,97.48,258.4,97.77,258.27,98.06z M268.31,91.11l2.39-5.21l1.04-2.27
			l0.49-1.07c0.41-0.9,0.83-1.8,1.24-2.71l1.7-3.71l1.08-2.35l2.36-5.14l0.39-0.86v-0.05h0.03l2.78-6.06l0.24-0.51l2.54-5.54
			l0.9-1.95v-0.01l0.29-0.63v-0.01l1.59-3.47l1.55-3.38l1.23-2.68l2.21-4.81l0.19-0.43c0.12-0.27,0.25-0.54,0.37-0.81l2.78-6.06
			l0.08-0.17v-0.01l2.69-5.87l0.74-1.61l0.1-0.23v-0.01l1.93-4.21l1.39-3.04l1.39,3.03l2.04,4.45l0.04-0.07v0.15l0.7,1.52l2.7,5.89
			l0.07,0.15l2.78,6.06c0.19,0.42,0.38,0.84,0.58,1.25l0.01,0.02v0.01l2.18,4.77l1.24,2.72l1.53,3.33l1.86,4.05l0.05,0.11l0.87,1.89
			l2.57,5.59v0.01l0.2,0.45l2.78,6.06c0.15,0.32,0.3,0.65,0.45,0.97v0.01l2.33,5.07l1.11,2.42l1.66,3.63l1.64,3.57l0.13,0.29l1,2.19
			l2.43,5.3l0.34,0.75h-0.69l-3.21,0.01l-2.96,0.01h-0.7l-3.14,0.01h-3.74l-3.06,0.01l-3.08,0.01h-3.71l-3.15,0.01h-0.73l-2.91,0.01
			l-3.22,0.01h-3.58l-3.28,0.01h-0.75l-2.77,0.01l-3.34,0.01h-3.45l-3.41,0.01h-0.76l-2.62,0.01h-3.49l-0.76,0.01h-2.54l-3.55,0.01
			h-0.79L268.31,91.11z"/>
		<path class="st0" d="M279.64,85.89l4.79-0.01l1.39-0.01h0.67l4.8-0.01h2.07l4.81-0.01l1.24-0.01h0.81l4.82-0.01h2.04l4.82-0.01
			l1.1-0.01h0.94l4.83-0.01h2.02l4.85-0.01h0.95l1.06-0.01l-1-2.2c-0.02-0.05-0.04-0.09-0.07-0.14l-1.7-3.71l-1.67-3.64l-1.1-2.41
			h-0.01l-2.33-5.08l-0.02,0.06v-0.12l-0.42-0.91l-2.78-6.05c-0.07-0.16-0.14-0.31-0.22-0.47v-0.01l-2.56-5.58l-0.85-1.87
			l-0.01-0.03l-1.9-4.15l-1.53-3.35l-1.24-2.71l-2.13-4.64l-0.06-0.13l-0.58-1.27l-2.78-6.05h-0.16l-2.78,6.06l-0.45,0.97
			c-0.04,0.1-0.08,0.2-0.13,0.3l-2.2,4.79l-1.23,2.69l-1.54,3.37l-1.67,3.64c-0.07,0.16-0.15,0.32-0.22,0.49l-0.88,1.93l-2.55,5.55
			c-0.08,0.17-0.15,0.34-0.23,0.51l-2.78,6.06l-0.1,0.21v0.01c-0.1,0.23-0.21,0.47-0.31,0.7l-2.36,5.13l-1.08,2.36l-1.7,3.69
			l-1.32,2.88l-0.42,0.91l-1.04,2.27H279.64z M288.9,76.14l1.09-2.37h0.01l2.34-5.12l0.25-0.54c0.06-0.13,0.12-0.26,0.18-0.39
			l2.78-6.06l0.22-0.49l2.55-5.56l0.88-1.93l0.16-0.35l1.74-3.79l1.53-3.35l1.53,3.35h0.01l1.89,4.14l0.09-0.19v0.39l0.79,1.72
			l2.56,5.58l0.22,0.47l2.78,6.06l0.44,0.96l0.04-0.1l0.01,0.2v0.01l2.28,4.98l1.1,2.4l1.68,3.65l-3.35,0.01H313l-1.82,0.01
			l-3.35,0.01h-3.51l-3.36,0.01h-1.55l-1.95,0.01h-3.37l-1.47,0.01h-2.01l-3.38,0.01L288.9,76.14z"/>
	</g>
	<path class="st0" d="M302.68,63.72"/>
</g>
<g>
	<g>
		<path class="st0" d="M356.14,31.01c-0.06,0.14-0.12,0.27-0.18,0.41v0.01l-0.25,0.53c-1.01,2.16-2.01,4.31-3.02,6.47
			c-0.07-0.14-0.13-0.27-0.2-0.41c-0.93-2.02-1.85-4.03-2.78-6.05l-0.43-0.95l-0.12-0.25v-0.01l-2.21-4.84l2.21-0.01h2.46l2.18-0.01
			h2.15l2.54-0.01L356.14,31.01z"/>
		<path class="st0" d="M397.07,1.6c-2.11,0.01-4.22,0.03-6.33,0.04h-0.53c-0.11,0-0.21,0-0.32,0l-6.01,0.01h-0.55
			c-0.08,0-0.16,0-0.25,0l-6.07,0.01h-0.55c-0.06,0-0.11,0-0.17,0l-6.14,0.01h-0.56c-0.03,0-0.06,0-0.1,0l-6.2,0.01h-0.57
			c-0.01,0.01-0.01,0.01-0.02,0.02c-2.09,0-4.18,0-6.27-0.01h-0.58l-6.29,0.01h-0.58l-6.28,0.01l-0.4,0.01h-0.19l-6.27,0.01h-0.6
			l-6.26,0.01h-0.27l-0.34,0.01l-6.25,0.01h-0.62l-6.23,0.01h-0.64l-6.23,0.01l2.78,6.04c0.11,0.25,0.23,0.5,0.34,0.75v0.01
			l2.43,5.31l1,2.17c0.07,0.15,0.14,0.3,0.21,0.45l1.56,3.42l1.66,3.62l1.11,2.43l2.32,5.06c0.05,0.12,0.11,0.24,0.16,0.35v0.01
			l0.29,0.63l2.77,6.05c0.07,0.15,0.14,0.3,0.21,0.45l2.57,5.6l0.87,1.89c0.04,0.08,0.07,0.17,0.11,0.25l1.8,3.91l1.52,3.32
			l1.25,2.73l2.18,4.76c0.03,0.06,0.05,0.12,0.08,0.19l0.51,1.11l2.78,6.05c0.02,0.05,0.04,0.1,0.07,0.15v0.01l2.7,5.9l0.73,1.58
			c0.01,0.03,0.02,0.06,0.04,0.09l2.01,4.38l2.77,6.05h0.01l2.04,4.45l0.01,0.02l0.73,1.59l2.71,5.9l2.7-5.9h0.01l0.64-1.41
			c0.02-0.06,0.05-0.12,0.07-0.17l2.06-4.48l1.38-3.01l1.4-3.05l1.86-4.07c0.3-0.66,0.61-1.32,0.91-1.99l2.69-5.86v-0.01
			c0.95-2.08,1.91-4.16,2.86-6.24l0.31-0.66c0.09-0.19,0.17-0.39,0.26-0.58l2.21-4.82l1.22-2.67l1.55-3.39h0.01l1.51-3.31
			c0.12-0.26,0.24-0.53,0.37-0.79l0.9-1.95l2.54-5.54c0.08-0.17,0.16-0.35,0.24-0.52l2.73-5.95v-0.11c0.15-0.3,0.31-0.6,0.46-0.91
			l2.36-5.15l1.07-2.34l1.71-3.71l1.17-2.55c0.19-0.41,0.37-0.81,0.56-1.22l1.05-2.29l2.39-5.2c0.13-0.29,0.26-0.58,0.4-0.87
			l2.39-5.2V2.48C396.82,2.19,396.95,1.9,397.07,1.6z M387.04,8.55l-2.39,5.21l-1.04,2.27l-0.49,1.07c-0.41,0.9-0.83,1.8-1.24,2.71
			l-1.7,3.71l-1.08,2.35l-2.36,5.14l-0.39,0.86v0.05h-0.03l-2.78,6.06l-0.24,0.51l-2.54,5.54l-0.9,1.95v0.01l-0.29,0.63v0.01
			L368,50.1l-1.55,3.38l-1.23,2.68l-2.21,4.81l-0.19,0.43c-0.12,0.27-0.25,0.54-0.37,0.81l-2.78,6.06l-0.08,0.17v0.01l-2.69,5.87
			l-0.74,1.61l-0.1,0.23v0.01l-1.93,4.21l-1.39,3.04l-1.39-3.03l-2.04-4.45L349.24,76v-0.15l-0.7-1.52l-2.7-5.89l-0.07-0.15
			L343,62.24c-0.19-0.42-0.38-0.84-0.58-1.25l-0.01-0.02v-0.01l-2.18-4.77l-1.24-2.72l-1.53-3.33l-1.86-4.05l-0.05-0.11l-0.87-1.89
			l-2.57-5.59V38.5l-0.2-0.45l-2.78-6.06c-0.15-0.32-0.3-0.65-0.45-0.97v-0.01l-2.33-5.07l-1.11-2.42l-1.66-3.63l-1.64-3.57
			l-0.13-0.29l-1-2.19l-2.43-5.3l-0.34-0.75h0.69l3.21-0.01l2.96-0.01h0.7l3.14-0.01h3.74l3.06-0.01l3.08-0.01h3.71l3.15-0.01h0.73
			l2.91-0.01l3.22-0.01h3.58l3.28-0.01h0.75l2.77-0.01l3.34-0.01h3.45l3.41-0.01h0.76l2.62-0.01h3.49l0.76-0.01h2.54l3.55-0.01h0.79
			L387.04,8.55z"/>
		<path class="st0" d="M375.7,13.77l-4.79,0.01l-1.39,0.01h-0.67l-4.8,0.01h-2.07l-4.81,0.01l-1.24,0.01h-0.81l-4.82,0.01h-2.04
			l-4.82,0.01l-1.1,0.01h-0.94l-4.83,0.01h-2.02l-4.85,0.01h-0.95l-1.06,0.01l1,2.2c0.02,0.05,0.04,0.09,0.07,0.14l1.7,3.71
			l1.67,3.64l1.1,2.41h0.01l2.33,5.08l0.02-0.06v0.12l0.42,0.91l2.78,6.05c0.07,0.16,0.14,0.31,0.22,0.47v0.01l2.56,5.58l0.85,1.87
			l0.01,0.03l1.9,4.15l1.53,3.35l1.24,2.71l2.13,4.64l0.06,0.13l0.58,1.27l2.78,6.05h0.16l2.78-6.06l0.45-0.97
			c0.04-0.1,0.08-0.2,0.13-0.3l2.2-4.79l1.23-2.69l1.54-3.37l1.67-3.64c0.07-0.16,0.15-0.32,0.22-0.49l0.88-1.93l2.55-5.55
			c0.08-0.17,0.15-0.34,0.23-0.51l2.78-6.06l0.1-0.21v-0.01c0.1-0.23,0.21-0.47,0.31-0.7l2.36-5.13l1.08-2.36l1.7-3.69l1.32-2.88
			l0.42-0.91l1.04-2.27H375.7z M366.45,23.53l-1.09,2.37h-0.01l-2.34,5.12l-0.25,0.54c-0.06,0.13-0.12,0.26-0.18,0.39l-2.78,6.06
			l-0.22,0.49l-2.55,5.56l-0.88,1.93l-0.16,0.35l-1.74,3.79l-1.53,3.35l-1.53-3.35h-0.01l-1.89-4.14l-0.09,0.19v-0.39l-0.79-1.72
			l-2.56-5.58l-0.22-0.47l-2.78-6.06l-0.44-0.96l-0.04,0.1l-0.01-0.2v-0.01l-2.28-4.98l-1.1-2.4l-1.68-3.65l3.35-0.01h1.69
			l1.82-0.01l3.35-0.01h3.51l3.36-0.01h1.55l1.95-0.01h3.37l1.47-0.01h2.01l3.38-0.01L366.45,23.53z"/>
	</g>
	<path class="st0" d="M352.67,35.94"/>
</g>
<g>
	<g>
		<path class="st0" d="M399.42,68.32c0.06-0.14,0.12-0.27,0.18-0.41V67.9l0.25-0.53c1.01-2.16,2.01-4.31,3.02-6.47
			c0.07,0.14,0.13,0.27,0.2,0.41c0.93,2.02,1.85,4.03,2.78,6.05l0.43,0.95l0.12,0.25v0.01l2.21,4.84l-2.21,0.01h-2.46l-2.18,0.01
			h-2.15l-2.54,0.01L399.42,68.32z"/>
		<path class="st0" d="M358.48,97.73c2.11-0.01,4.22-0.03,6.33-0.04h0.53c0.11,0,0.21,0,0.32,0l6.01-0.01h0.55c0.08,0,0.16,0,0.25,0
			l6.07-0.01h0.55c0.06,0,0.11,0,0.17,0l6.14-0.01h0.56c0.03,0,0.06,0,0.1,0l6.2-0.01h0.57c0.01-0.01,0.01-0.01,0.02-0.02
			c2.09,0,4.18,0,6.27,0.01h0.58l6.29-0.01h0.58l6.28-0.01l0.4-0.01h0.19l6.27-0.01h0.6l6.26-0.01h0.27l0.34-0.01l6.25-0.01h0.62
			l6.23-0.01h0.64l6.23-0.01l-2.78-6.04c-0.11-0.25-0.23-0.5-0.34-0.75v-0.01l-2.43-5.31l-1-2.17c-0.07-0.15-0.14-0.3-0.21-0.45
			l-1.56-3.42l-1.66-3.62l-1.11-2.43l-2.32-5.06c-0.05-0.12-0.11-0.24-0.16-0.35v-0.01l-0.29-0.63l-2.77-6.05
			c-0.07-0.15-0.14-0.3-0.21-0.45l-2.57-5.6l-0.87-1.89c-0.04-0.08-0.07-0.17-0.11-0.25l-1.8-3.91l-1.52-3.32l-1.25-2.73l-2.18-4.76
			c-0.03-0.06-0.05-0.12-0.08-0.19l-0.51-1.11l-2.78-6.05c-0.02-0.05-0.04-0.1-0.07-0.15v-0.01l-2.7-5.9l-0.73-1.58
			c-0.01-0.03-0.02-0.06-0.04-0.09l-2.01-4.38l-2.77-6.05h-0.01l-2.04-4.45l-0.01-0.02l-0.73-1.59l-2.71-5.9l-2.7,5.9h-0.01
			l-0.64,1.41c-0.02,0.06-0.05,0.12-0.07,0.17l-2.06,4.48l-1.38,3.01l-1.4,3.05l-1.86,4.07c-0.3,0.66-0.61,1.32-0.91,1.99
			l-2.69,5.86v0.01c-0.95,2.08-1.91,4.16-2.86,6.24l-0.31,0.66c-0.09,0.19-0.17,0.39-0.26,0.58l-2.21,4.82l-1.22,2.67l-1.55,3.39
			h-0.01l-1.51,3.31c-0.12,0.26-0.24,0.53-0.37,0.79l-0.9,1.95l-2.54,5.54c-0.08,0.17-0.16,0.35-0.24,0.52l-2.73,5.95v0.11
			c-0.15,0.3-0.31,0.6-0.46,0.91l-2.36,5.15l-1.07,2.34l-1.71,3.71l-1.17,2.55c-0.19,0.41-0.37,0.81-0.56,1.22l-1.05,2.29l-2.39,5.2
			c-0.13,0.29-0.26,0.58-0.4,0.87l-2.39,5.2v0.01C358.74,97.14,358.61,97.43,358.48,97.73z M368.52,90.78l2.39-5.21l1.04-2.27
			l0.49-1.07c0.41-0.9,0.83-1.8,1.24-2.71l1.7-3.71l1.08-2.35l2.36-5.14l0.39-0.86V67.4h0.03l2.78-6.06l0.24-0.51l2.54-5.54
			l0.9-1.95v-0.01l0.29-0.63V52.7l1.59-3.47l1.55-3.38l1.23-2.68l2.21-4.81l0.19-0.43c0.12-0.27,0.25-0.54,0.37-0.81l2.78-6.06
			l0.08-0.17v-0.01l2.69-5.87l0.74-1.61l0.1-0.23v-0.01l1.93-4.21l1.39-3.04l1.39,3.03l2.04,4.45l0.04-0.07v0.15l0.7,1.52l2.7,5.89
			l0.07,0.15l2.78,6.06c0.19,0.42,0.38,0.84,0.58,1.25l0.01,0.02v0.01l2.18,4.77l1.24,2.72l1.53,3.33l1.86,4.05l0.05,0.11l0.87,1.89
			l2.57,5.59v0.01l0.2,0.45l2.78,6.06c0.15,0.32,0.3,0.65,0.45,0.97v0.01l2.33,5.07l1.11,2.42l1.66,3.63l1.64,3.57l0.13,0.29l1,2.19
			l2.43,5.3l0.34,0.75h-0.69l-3.21,0.01l-2.96,0.01h-0.7l-3.14,0.01h-3.74l-3.06,0.01l-3.08,0.01h-3.71l-3.15,0.01h-0.73l-2.91,0.01
			l-3.22,0.01h-3.58l-3.28,0.01h-0.75l-2.77,0.01l-3.34,0.01h-3.45l-3.41,0.01h-0.76l-2.62,0.01h-3.49L375,91.62h-2.54l-3.55,0.01
			h-0.79L368.52,90.78z"/>
		<path class="st0" d="M379.86,85.56l4.79-0.01l1.39-0.01h0.67l4.8-0.01h2.07l4.81-0.01l1.24-0.01h0.81l4.82-0.01h2.04l4.82-0.01
			l1.1-0.01h0.94L419,85.5h2.02l4.85-0.01h0.95l1.06-0.01l-1-2.2c-0.02-0.05-0.04-0.09-0.07-0.14l-1.7-3.71l-1.67-3.64l-1.1-2.41
			h-0.01l-2.33-5.08l-0.02,0.06v-0.12l-0.42-0.91l-2.78-6.05c-0.07-0.16-0.14-0.31-0.22-0.47v-0.01l-2.56-5.58l-0.85-1.87
			l-0.01-0.03l-1.9-4.15l-1.53-3.35l-1.24-2.71l-2.13-4.64l-0.06-0.13l-0.58-1.27l-2.78-6.05h-0.16l-2.78,6.06l-0.45,0.97
			c-0.04,0.1-0.08,0.2-0.13,0.3l-2.2,4.79l-1.23,2.69l-1.54,3.37l-1.67,3.64c-0.07,0.16-0.15,0.32-0.22,0.49l-0.88,1.93l-2.55,5.55
			c-0.08,0.17-0.15,0.34-0.23,0.51l-2.78,6.06L386,67.6v0.01c-0.1,0.23-0.21,0.47-0.31,0.7l-2.36,5.13l-1.08,2.36l-1.7,3.69
			l-1.32,2.88l-0.42,0.91l-1.04,2.27H379.86z M389.11,75.8l1.09-2.37h0.01l2.34-5.12l0.25-0.54c0.06-0.13,0.12-0.26,0.18-0.39
			l2.78-6.06l0.22-0.49l2.55-5.56l0.88-1.93l0.16-0.35l1.74-3.79l1.53-3.35l1.53,3.35h0.01l1.89,4.14l0.09-0.19v0.39l0.79,1.72
			l2.56,5.58l0.22,0.47l2.78,6.06l0.44,0.96l0.04-0.1l0.01,0.2v0.01l2.28,4.98l1.1,2.4l1.68,3.65l-3.35,0.01h-1.69l-1.82,0.01
			l-3.35,0.01h-3.51l-3.36,0.01h-1.55l-1.95,0.01h-3.37l-1.47,0.01h-2.01l-3.38,0.01L389.11,75.8z"/>
	</g>
	<path class="st0" d="M402.89,63.39"/>
</g>
<g>
	<g>
		<path class="st0" d="M456.35,31.01c-0.06,0.14-0.12,0.27-0.18,0.41v0.01l-0.25,0.53c-1.01,2.16-2.01,4.31-3.02,6.47
			c-0.07-0.14-0.13-0.27-0.2-0.41c-0.93-2.02-1.85-4.03-2.78-6.05l-0.43-0.95l-0.12-0.25v-0.01l-2.21-4.84l2.21-0.01h2.46l2.18-0.01
			h2.15l2.54-0.01L456.35,31.01z"/>
		<path class="st0" d="M497.29,1.6c-2.11,0.01-4.22,0.03-6.33,0.04h-0.53c-0.11,0-0.21,0-0.32,0l-6.01,0.01h-0.55
			c-0.08,0-0.16,0-0.25,0l-6.07,0.01h-0.55c-0.06,0-0.11,0-0.17,0l-6.14,0.01h-0.56c-0.03,0-0.06,0-0.1,0l-6.2,0.01h-0.57
			c-0.01,0.01-0.01,0.01-0.02,0.02c-2.09,0-4.18,0-6.27-0.01h-0.58l-6.29,0.01h-0.58l-6.28,0.01l-0.4,0.01h-0.19l-6.27,0.01h-0.6
			l-6.26,0.01h-0.27l-0.34,0.01l-6.25,0.01h-0.62l-6.23,0.01h-0.64l-6.23,0.01l2.78,6.04c0.11,0.25,0.23,0.5,0.34,0.75v0.01
			l2.43,5.31l1,2.17c0.07,0.15,0.14,0.3,0.21,0.45l1.56,3.42l1.66,3.62l1.11,2.43l2.32,5.06c0.05,0.12,0.11,0.24,0.16,0.35v0.01
			l0.29,0.63l2.77,6.05c0.07,0.15,0.14,0.3,0.21,0.45l2.57,5.6l0.87,1.89c0.04,0.08,0.07,0.17,0.11,0.25l1.8,3.91l1.52,3.32
			l1.25,2.73l2.18,4.76c0.03,0.06,0.05,0.12,0.08,0.19l0.51,1.11l2.78,6.05c0.02,0.05,0.04,0.1,0.07,0.15v0.01l2.7,5.9l0.73,1.58
			c0.01,0.03,0.02,0.06,0.04,0.09l2.01,4.38l2.77,6.05h0.01l2.04,4.45l0.01,0.02l0.73,1.59l2.71,5.9l2.7-5.9h0.01l0.64-1.41
			c0.02-0.06,0.05-0.12,0.07-0.17l2.06-4.48l1.38-3.01l1.4-3.05l1.86-4.07c0.3-0.66,0.61-1.32,0.91-1.99l2.69-5.86v-0.01
			c0.95-2.08,1.91-4.16,2.86-6.24l0.31-0.66c0.09-0.19,0.17-0.39,0.26-0.58l2.21-4.82l1.22-2.67l1.55-3.39h0.01l1.51-3.31
			c0.12-0.26,0.24-0.53,0.37-0.79l0.9-1.95l2.54-5.54c0.08-0.17,0.16-0.35,0.24-0.52l2.73-5.95v-0.11c0.15-0.3,0.31-0.6,0.46-0.91
			l2.36-5.15l1.07-2.34l1.71-3.71l1.17-2.55c0.19-0.41,0.37-0.81,0.56-1.22l1.05-2.29l2.39-5.2c0.13-0.29,0.26-0.58,0.4-0.87
			l2.39-5.2V2.48C497.03,2.19,497.16,1.9,497.29,1.6z M487.25,8.55l-2.39,5.21l-1.04,2.27l-0.49,1.07c-0.41,0.9-0.83,1.8-1.24,2.71
			l-1.7,3.71l-1.08,2.35l-2.36,5.14l-0.39,0.86v0.05h-0.03l-2.78,6.06l-0.24,0.51l-2.54,5.54l-0.9,1.95v0.01l-0.29,0.63v0.01
			l-1.59,3.47l-1.55,3.38l-1.23,2.68l-2.21,4.81l-0.19,0.43c-0.12,0.27-0.25,0.54-0.37,0.81l-2.78,6.06l-0.08,0.17v0.01l-2.69,5.87
			l-0.74,1.61l-0.1,0.23v0.01l-1.93,4.21l-1.39,3.04l-1.39-3.03l-2.04-4.45L449.45,76v-0.15l-0.7-1.52l-2.7-5.89l-0.07-0.15
			l-2.78-6.06c-0.19-0.42-0.38-0.84-0.58-1.25l-0.01-0.02v-0.01l-2.18-4.77l-1.24-2.72l-1.53-3.33l-1.86-4.05l-0.05-0.11l-0.87-1.89
			l-2.57-5.59V38.5l-0.2-0.45l-2.78-6.06c-0.15-0.32-0.3-0.65-0.45-0.97v-0.01l-2.33-5.07l-1.11-2.42l-1.66-3.63l-1.64-3.57
			l-0.13-0.29l-1-2.19l-2.43-5.3l-0.34-0.75h0.69l3.21-0.01l2.96-0.01h0.7l3.14-0.01h3.74l3.06-0.01l3.08-0.01h3.71l3.15-0.01h0.73
			l2.91-0.01l3.22-0.01h3.58l3.28-0.01h0.75l2.77-0.01l3.34-0.01h3.45l3.41-0.01h0.76l2.62-0.01h3.49l0.76-0.01h2.54l3.55-0.01h0.79
			L487.25,8.55z"/>
		<path class="st0" d="M475.91,13.77l-4.79,0.01l-1.39,0.01h-0.67l-4.8,0.01h-2.07l-4.81,0.01l-1.24,0.01h-0.81l-4.82,0.01h-2.04
			l-4.82,0.01l-1.1,0.01h-0.94l-4.83,0.01h-2.02l-4.85,0.01h-0.95l-1.06,0.01l1,2.2c0.02,0.05,0.04,0.09,0.07,0.14l1.7,3.71
			l1.67,3.64l1.1,2.41h0.01l2.33,5.08l0.02-0.06v0.12l0.42,0.91l2.78,6.05c0.07,0.16,0.14,0.31,0.22,0.47v0.01l2.56,5.58l0.85,1.87
			l0.01,0.03l1.9,4.15l1.53,3.35l1.24,2.71l2.13,4.64l0.06,0.13l0.58,1.27l2.78,6.05H453l2.78-6.06l0.45-0.97
			c0.04-0.1,0.08-0.2,0.13-0.3l2.2-4.79l1.23-2.69l1.54-3.37l1.67-3.64c0.07-0.16,0.15-0.32,0.22-0.49l0.88-1.93l2.55-5.55
			c0.08-0.17,0.15-0.34,0.23-0.51l2.78-6.06l0.1-0.21v-0.01c0.1-0.23,0.21-0.47,0.31-0.7l2.36-5.13l1.08-2.36l1.7-3.69l1.32-2.88
			l0.42-0.91l1.04-2.27H475.91z M466.66,23.53l-1.09,2.37h-0.01l-2.34,5.12l-0.25,0.54c-0.06,0.13-0.12,0.26-0.18,0.39l-2.78,6.06
			l-0.22,0.49l-2.55,5.56l-0.88,1.93l-0.16,0.35l-1.74,3.79l-1.53,3.35l-1.53-3.35h-0.01l-1.89-4.14l-0.09,0.19v-0.39l-0.79-1.72
			l-2.56-5.58l-0.22-0.47l-2.78-6.06l-0.44-0.96l-0.04,0.1l-0.01-0.2v-0.01l-2.28-4.98l-1.1-2.4l-1.68-3.65l3.35-0.01h1.69
			l1.82-0.01l3.35-0.01h3.51l3.36-0.01h1.55l1.95-0.01h3.37l1.47-0.01h2.01l3.38-0.01L466.66,23.53z"/>
	</g>
	<path class="st0" d="M452.88,35.94"/>
</g>
<g>
	<g>
		<path class="st0" d="M499.63,68.32c0.06-0.14,0.12-0.27,0.18-0.41V67.9l0.25-0.53c1.01-2.16,2.01-4.31,3.02-6.47
			c0.07,0.14,0.13,0.27,0.2,0.41c0.93,2.02,1.85,4.03,2.78,6.05l0.43,0.95l0.12,0.25v0.01l2.21,4.84l-2.21,0.01h-2.46l-2.18,0.01
			h-2.15l-2.54,0.01L499.63,68.32z"/>
		<path class="st0" d="M458.7,97.73c2.11-0.01,4.22-0.03,6.33-0.04h0.53c0.11,0,0.21,0,0.32,0l6.01-0.01h0.55c0.08,0,0.16,0,0.25,0
			l6.07-0.01h0.55c0.06,0,0.11,0,0.17,0l6.14-0.01h0.56c0.03,0,0.06,0,0.1,0l6.2-0.01h0.57c0.01-0.01,0.01-0.01,0.02-0.02
			c2.09,0,4.18,0,6.27,0.01h0.58l6.29-0.01h0.58l6.28-0.01l0.4-0.01h0.19l6.27-0.01h0.6l6.26-0.01h0.27l0.34-0.01l6.25-0.01h0.62
			l6.23-0.01h0.64l6.23-0.01l-2.78-6.04c-0.11-0.25-0.23-0.5-0.34-0.75v-0.01l-2.43-5.31l-1-2.17c-0.07-0.15-0.14-0.3-0.21-0.45
			l-1.56-3.42l-1.66-3.62l-1.11-2.43l-2.32-5.06c-0.05-0.12-0.11-0.24-0.16-0.35v-0.01l-0.29-0.63l-2.77-6.05
			c-0.07-0.15-0.14-0.3-0.21-0.45l-2.57-5.6l-0.87-1.89c-0.04-0.08-0.07-0.17-0.11-0.25l-1.8-3.91l-1.52-3.32l-1.25-2.73l-2.18-4.76
			c-0.03-0.06-0.05-0.12-0.08-0.19l-0.51-1.11l-2.78-6.05c-0.02-0.05-0.04-0.1-0.07-0.15v-0.01l-2.7-5.9l-0.73-1.58
			c-0.01-0.03-0.02-0.06-0.04-0.09l-2.01-4.38l-2.77-6.05h-0.01l-2.04-4.45l-0.01-0.02l-0.73-1.59l-2.71-5.9l-2.7,5.9h-0.01
			l-0.64,1.41c-0.02,0.06-0.05,0.12-0.07,0.17l-2.06,4.48l-1.38,3.01l-1.4,3.05l-1.86,4.07c-0.3,0.66-0.61,1.32-0.91,1.99
			l-2.69,5.86v0.01c-0.95,2.08-1.91,4.16-2.86,6.24l-0.31,0.66c-0.09,0.19-0.17,0.39-0.26,0.58l-2.21,4.82l-1.22,2.67l-1.55,3.39
			h-0.01l-1.51,3.31c-0.12,0.26-0.24,0.53-0.37,0.79l-0.9,1.95l-2.54,5.54c-0.08,0.17-0.16,0.35-0.24,0.52l-2.73,5.95v0.11
			c-0.15,0.3-0.31,0.6-0.46,0.91l-2.36,5.15l-1.07,2.34l-1.71,3.71l-1.17,2.55c-0.19,0.41-0.37,0.81-0.56,1.22l-1.05,2.29l-2.39,5.2
			c-0.13,0.29-0.26,0.58-0.4,0.87l-2.39,5.2v0.01C458.95,97.14,458.82,97.43,458.7,97.73z M468.73,90.78l2.39-5.21l1.04-2.27
			l0.49-1.07c0.41-0.9,0.83-1.8,1.24-2.71l1.7-3.71l1.08-2.35l2.36-5.14l0.39-0.86V67.4h0.03l2.78-6.06l0.24-0.51l2.54-5.54
			l0.9-1.95v-0.01l0.29-0.63V52.7l1.59-3.47l1.55-3.38l1.23-2.68l2.21-4.81l0.19-0.43c0.12-0.27,0.25-0.54,0.37-0.81l2.78-6.06
			l0.08-0.17v-0.01l2.69-5.87l0.74-1.61l0.1-0.23v-0.01l1.93-4.21l1.39-3.04l1.39,3.03l2.04,4.45l0.04-0.07v0.15l0.7,1.52l2.7,5.89
			l0.07,0.15l2.78,6.06c0.19,0.42,0.38,0.84,0.58,1.25l0.01,0.02v0.01l2.18,4.77l1.24,2.72l1.53,3.33l1.86,4.05l0.05,0.11l0.87,1.89
			l2.57,5.59v0.01l0.2,0.45l2.78,6.06c0.15,0.32,0.3,0.65,0.45,0.97v0.01l2.33,5.07l1.11,2.42l1.66,3.63l1.64,3.57l0.13,0.29l1,2.19
			l2.43,5.3l0.34,0.75h-0.69l-3.21,0.01l-2.96,0.01h-0.7l-3.14,0.01h-3.74l-3.06,0.01l-3.08,0.01h-3.71l-3.15,0.01h-0.73l-2.91,0.01
			l-3.22,0.01h-3.58l-3.28,0.01h-0.75l-2.77,0.01l-3.34,0.01h-3.45l-3.41,0.01h-0.76l-2.62,0.01h-3.49l-0.76,0.01h-2.54l-3.55,0.01
			h-0.79L468.73,90.78z"/>
		<path class="st0" d="M480.07,85.56l4.79-0.01l1.39-0.01h0.67l4.8-0.01h2.07l4.81-0.01l1.24-0.01h0.81l4.82-0.01h2.04l4.82-0.01
			l1.1-0.01h0.94l4.83-0.01h2.02l4.85-0.01h0.95l1.06-0.01l-1-2.2c-0.02-0.05-0.04-0.09-0.07-0.14l-1.7-3.71l-1.67-3.64l-1.1-2.41
			h-0.01l-2.33-5.08l-0.02,0.06v-0.12l-0.42-0.91L517,61.29c-0.07-0.16-0.14-0.31-0.22-0.47v-0.01l-2.56-5.58l-0.85-1.87l-0.01-0.03
			l-1.9-4.15l-1.53-3.35l-1.24-2.71l-2.13-4.64l-0.06-0.13l-0.58-1.27l-2.78-6.05h-0.16l-2.78,6.06l-0.45,0.97
			c-0.04,0.1-0.08,0.2-0.13,0.3l-2.2,4.79l-1.23,2.69l-1.54,3.37l-1.67,3.64c-0.07,0.16-0.15,0.32-0.22,0.49l-0.88,1.93l-2.55,5.55
			c-0.08,0.17-0.15,0.34-0.23,0.51l-2.78,6.06l-0.1,0.21v0.01c-0.1,0.23-0.21,0.47-0.31,0.7l-2.36,5.13l-1.08,2.36l-1.7,3.69
			l-1.32,2.88l-0.42,0.91l-1.04,2.27H480.07z M489.32,75.8l1.09-2.37h0.01l2.34-5.12l0.25-0.54c0.06-0.13,0.12-0.26,0.18-0.39
			l2.78-6.06l0.22-0.49l2.55-5.56l0.88-1.93l0.16-0.35l1.74-3.79l1.53-3.35l1.53,3.35h0.01l1.89,4.14l0.09-0.19v0.39l0.79,1.72
			l2.56,5.58l0.22,0.47l2.78,6.06l0.44,0.96l0.04-0.1l0.01,0.2v0.01l2.28,4.98l1.1,2.4l1.68,3.65l-3.35,0.01h-1.69l-1.82,0.01
			l-3.35,0.01h-3.51l-3.36,0.01h-1.55l-1.95,0.01h-3.37l-1.47,0.01h-2.01l-3.38,0.01L489.32,75.8z"/>
	</g>
	<path class="st0" d="M503.1,63.39"/>
</g>
<g>
	<path class="st1" d="M110.04,64.06"/>
</g>
<path class="st1" d="M45.11,86.89"/>
</svg>
