<?xml version="1.0" encoding="utf-8"?>
<!-- Generator: Adobe Illustrator 27.3.1, SVG Export Plug-In . SVG Version: 6.00 Build 0)  -->
<svg version="1.1" id="Layer_1" xmlns="http://www.w3.org/2000/svg" xmlns:xlink="http://www.w3.org/1999/xlink" x="0px" y="0px"
	 viewBox="0 0 841.89 595.28" style="enable-background:new 0 0 841.89 595.28;" xml:space="preserve">
<style type="text/css">
	.st0{fill:#DEB86E;stroke:#DEB86E;stroke-width:9;stroke-miterlimit:10;}
	.st1{fill:#3F372A;}
	.st2{fill:none;stroke:#D26A28;stroke-width:13;stroke-miterlimit:10;}
</style>
<path class="st0" d="M566.99,359.9c0.62-0.35,1.38,0.08,1.38,0.79v46.99c0,19.63-16.33,35.52-36.12,34.82
	c-18.89-0.68-33.56-16.84-33.56-35.74v-95.04v-3.17v-39.84c0-15.17-12.29-27.46-27.46-27.46H352.37
	c-13.76,0-25.61,10.58-26.26,24.33c-0.33,7.21,2.27,14.03,7.29,19.17c4.89,5.01,11.4,7.73,18.43,7.74l40.72-0.09
	c9.34,0,18.09,3.6,24.69,10.18c6.6,6.59,10.22,15.34,10.22,24.66l-0.19,46.59c-0.01,0.63-0.61,1.06-1.21,0.87
	c-1.89-0.6-4-0.72-6.16-0.23l-0.76,0.17c-0.6,0.13-1.18-0.33-1.17-0.95l0.2-46.47c0-9.35-5.03-17.97-13.8-22.72
	c-3.59-1.96-7.68-2.8-11.76-2.8h-0.04l-40.72,0.08h-0.06c-6.67,0-13.29-1.77-18.86-5.45c-10.39-6.86-16.2-17.82-16.14-29.67
	c0.09-19.36,16.5-34.7,35.86-34.7h118.57c20.3,0,36.76,16.46,36.76,36.76v39.84v3.59v94.73c0,13.77,10.56,25.68,24.32,26.32
	c14.63,0.68,26.76-11.02,26.76-25.51v-46.85c0-0.7,0.73-1.12,1.35-0.8c0.95,0.49,2.02,0.76,3.17,0.76
	C564.82,360.79,565.98,360.47,566.99,359.9z"/>
<circle class="st1" cx="422.96" cy="399.92" r="16.25"/>
<circle class="st2" cx="563.35" cy="349.99" r="10.36"/>
</svg>
